<?xml version="1.0" encoding="utf-8"?>
<!-- Generator: Adobe Illustrator 25.0.1, SVG Export Plug-In . SVG Version: 6.00 Build 0)  -->
<svg version="1.1" id="Layer_1" xmlns="http://www.w3.org/2000/svg" xmlns:xlink="http://www.w3.org/1999/xlink" x="0px" y="0px"
	 viewBox="0 0 488.7 782" style="enable-background:new 0 0 488.7 782;" xml:space="preserve">
<style type="text/css">
	.st0{clip-path:url(#SVGID_2_);}
	.st1{clip-path:url(#SVGID_4_);fill:#0D1A3E;}
	.st2{clip-path:url(#SVGID_4_);}
	.st3{opacity:0.5;clip-path:url(#SVGID_10_);}
	.st4{clip-path:url(#SVGID_12_);}
	.st5{clip-path:url(#SVGID_10_);}
	.st6{clip-path:url(#SVGID_16_);}
	.st7{clip-path:url(#SVGID_18_);fill:url(#SVGID_19_);}
	.st8{clip-path:url(#SVGID_10_);fill:#EACB4E;}
	.st9{clip-path:url(#SVGID_21_);}
	.st10{clip-path:url(#SVGID_23_);}
	.st11{clip-path:url(#SVGID_25_);}
	.st12{fill:#EACB4E;}
	.st13{font-family:'Elegant-ar';}
	.st14{font-size:15.3375px;}
	.st15{letter-spacing:1;}
	.st16{clip-path:url(#SVGID_4_);fill:none;stroke:#EACB4E;stroke-width:0.6135;stroke-miterlimit:10;}
	.st17{clip-path:url(#SVGID_29_);fill:none;stroke:#EACB4E;stroke-width:0.6135;stroke-miterlimit:10;}
	.st18{font-size:12.8835px;}
	.st19{letter-spacing:2;}
	.st20{clip-path:url(#SVGID_31_);fill:none;stroke:#EACB4E;stroke-width:0.6135;stroke-miterlimit:10;}
</style>
<g>
	<g>
		<defs>
			<rect id="SVGID_1_" x="-1" y="-1.7" width="490.8" height="785.3"/>
		</defs>
		<clipPath id="SVGID_2_">
			<use xlink:href="#SVGID_1_"  style="overflow:visible;"/>
		</clipPath>
		<g class="st0">
			<defs>
				<rect id="SVGID_3_" x="-1" y="-1.7" width="490.8" height="785.3"/>
			</defs>
			<clipPath id="SVGID_4_">
				<use xlink:href="#SVGID_3_"  style="overflow:visible;"/>
			</clipPath>
			<rect x="-1" y="-1.7" class="st1" width="490.8" height="785.3"/>
			<g class="st2">
				<defs>
					<rect id="SVGID_5_" x="246.7" y="583.5" width="126.8" height="83.7"/>
				</defs>
				<clipPath id="SVGID_6_">
					<use xlink:href="#SVGID_5_"  style="overflow:visible;"/>
				</clipPath>
				<g style="clip-path:url(#SVGID_6_);">
					
						<image style="overflow:visible;" width="10738" height="7087" xlink:href="62E027422C90A6D0.png"  transform="matrix(1.180603e-02 0 0 1.180603e-02 246.6811 583.5494)">
					</image>
				</g>
			</g>
			<g class="st2">
				<defs>
					<rect id="SVGID_7_" x="117.8" y="583.5" width="126.8" height="83.7"/>
				</defs>
				<clipPath id="SVGID_8_">
					<use xlink:href="#SVGID_7_"  style="overflow:visible;"/>
				</clipPath>
				<g transform="matrix(1 0 0 1 7.629395e-06 0)" style="clip-path:url(#SVGID_8_);">
					
						<image style="overflow:visible;" width="10738" height="7087" xlink:href="62E027422C90A6D1.png"  transform="matrix(1.180603e-02 0 0 1.180603e-02 117.8471 583.5494)">
					</image>
				</g>
			</g>
			<g class="st2">
				<defs>
					<rect id="SVGID_9_" x="-1" y="-1.7" width="490.8" height="785.3"/>
				</defs>
				<clipPath id="SVGID_10_">
					<use xlink:href="#SVGID_9_"  style="overflow:visible;"/>
				</clipPath>
				<g class="st3">
					<g>
						<defs>
							<rect id="SVGID_11_" x="-1" y="-1.7" width="490.8" height="785.3"/>
						</defs>
						<clipPath id="SVGID_12_">
							<use xlink:href="#SVGID_11_"  style="overflow:visible;"/>
						</clipPath>
						<g class="st4">
							<defs>
								<rect id="SVGID_13_" x="-1" y="-1.7" width="490.8" height="785.3"/>
							</defs>
							<clipPath id="SVGID_14_">
								<use xlink:href="#SVGID_13_"  style="overflow:visible;"/>
							</clipPath>
							<g style="clip-path:url(#SVGID_14_);">
								
									<image style="overflow:visible;" width="1000" height="667" xlink:href="62E027422C90A6D0.jpg"  transform="matrix(0.4908 0 0 1.1773 -1.0353 -1.6565)">
								</image>
							</g>
						</g>
					</g>
				</g>
				<g class="st5">
					<g>
						<defs>
							<rect id="SVGID_15_" x="-1" y="-1.7" width="46" height="785.3"/>
						</defs>
						<clipPath id="SVGID_16_">
							<use xlink:href="#SVGID_15_"  style="overflow:visible;"/>
						</clipPath>
						<g class="st6">
							<defs>
								<rect id="SVGID_17_" x="-1" y="-1.7" width="46" height="785.3"/>
							</defs>
							<clipPath id="SVGID_18_">
								<use xlink:href="#SVGID_17_"  style="overflow:visible;"/>
							</clipPath>
							
								<linearGradient id="SVGID_19_" gradientUnits="userSpaceOnUse" x1="0.5525" y1="-47.0227" x2="0.8593" y2="-47.0227" gradientTransform="matrix(150 0 0 -150 -83.9154 -6662.4272)">
								<stop  offset="0" style="stop-color:#4D4D4E"/>
								<stop  offset="1" style="stop-color:#FFFFFF"/>
							</linearGradient>
							<rect x="-1" y="-1.7" class="st7" width="46" height="785.3"/>
						</g>
					</g>
				</g>
				<path class="st8" d="M138.7,406.7c1-0.4,1.8-1,2.6-1.7c0.7-0.7,1.3-1.6,1.7-2.6c0.4-1,0.6-2,0.6-3.1c0-0.9-0.1-1.8-0.4-2.6
					c-0.3-0.8-0.7-1.6-1.2-2.2c-0.5-0.7-1.1-1.2-1.8-1.7c-0.6-0.4-1.2-0.7-1.9-1c0.3-0.2,0.6-0.5,0.8-0.7c0.7-0.6,1.2-1.4,1.5-2.2
					c0.3-0.8,0.5-1.7,0.5-2.7c0-0.9-0.2-1.8-0.5-2.7c-0.3-0.8-0.8-1.6-1.5-2.2c-1.4-1.4-3-2-4.9-2h-11.6v0.7h0.4
					c0.2,0,0.3,0.1,0.3,0.3v26.1c0,0.2-0.1,0.3-0.3,0.3h-0.4v0.7h12.9C136.6,407.4,137.7,407.1,138.7,406.7 M135.9,385.3v1.7
					c0,2-0.3,3.4-0.9,4.2c-0.6,0.8-1.3,1.2-2.3,1.2h-3.4v-12.1c0-0.2,0.1-0.3,0.3-0.3h3.1c1,0,1.7,0.4,2.3,1.2
					C135.7,381.9,135.9,383.3,135.9,385.3 M129.4,393h3.9c1.1,0,1.9,0.4,2.6,1.3c0.6,0.9,1,2.4,1,4.6v1.8c0,2.2-0.3,3.7-1,4.6
					c-0.6,0.9-1.5,1.3-2.6,1.3h-3.5c-0.3,0-0.3-0.1-0.3-0.3V393z"/>
				<path class="st8" d="M155.7,407.4c1.2,0,2.3-0.2,3.3-0.6c1-0.4,2-1.1,2.8-1.9l0.1-0.1l-0.5-0.5l-0.1,0.1
					c-0.8,0.8-1.6,1.4-2.6,1.7c-1,0.4-2,0.6-3,0.6c-0.3,0-0.5,0-0.8-0.1c-0.2-0.1-0.4-0.2-0.6-0.4c-0.4-0.4-0.7-1.1-0.8-1.9
					c-0.1-0.9-0.2-1.9-0.2-3.1v-1.2c0-0.2,0.1-0.2,0.1-0.2h10.9v-1c0-1.2-0.2-2.3-0.6-3.3c-0.4-1.1-1.1-2-1.9-2.8
					c-0.8-0.8-1.7-1.4-2.8-1.9c-1-0.4-2.2-0.6-3.3-0.6c-2.4,0-4.4,0.8-6.1,2.5c-0.8,0.8-1.4,1.8-1.9,2.8c-0.4,1-0.6,2.2-0.6,3.3
					c0,1.1,0.2,2.2,0.6,3.3c0.4,1.1,1.1,2,1.9,2.8c0.8,0.8,1.8,1.4,2.8,1.9C153.5,407.1,154.6,407.4,155.7,407.4 M157.9,393.2
					c0.1,0.8,0.2,1.8,0.2,3v2.8c0,0.1,0,0.1-0.1,0.1h-4.5c-0.1,0-0.1,0-0.1-0.1c0-0.1,0-0.3,0-0.4c0-0.1,0-0.3,0-0.4l0-0.4
					c0-1.5,0-2.8,0.1-4c0.1-1.1,0.4-1.9,0.9-2.4c0.2-0.2,0.4-0.3,0.6-0.4c0.3-0.1,0.5-0.1,0.8-0.1c0.3,0,0.5,0,0.8,0.1
					c0.2,0.1,0.4,0.2,0.6,0.4C157.6,391.7,157.8,392.4,157.9,393.2"/>
				<path class="st8" d="M157.5,386.5c0.4,0.4,0.7,0.8,0.9,1.2l0.1,0.2l0.7-0.3l-0.1-0.2c-0.2-0.4-0.5-0.8-0.9-1.3
					c-0.4-0.5-0.9-0.9-1.4-1.3c-0.5-0.4-1-0.7-1.6-1c-0.6-0.3-1.2-0.4-1.7-0.4c-0.5,0-0.9,0.2-1.3,0.5c-0.4,0.4-0.5,0.8-0.5,1.3
					c0,0.5,0.2,0.9,0.5,1.3c0.4,0.3,0.8,0.5,1.3,0.5c0.5,0,0.9-0.2,1.3-0.5c0.3-0.3,0.5-0.8,0.5-1.3c0-0.2,0-0.5-0.1-0.7
					c0.4,0.2,0.8,0.4,1.2,0.8C156.7,385.7,157.1,386.1,157.5,386.5"/>
				<path class="st8" d="M176.5,406.6c-0.1,0.1-0.3,0.2-0.4,0.2h-0.2v0.6h7.7v-0.6h-0.2c-0.2,0-0.3-0.1-0.4-0.2
					c-0.1-0.1-0.2-0.3-0.2-0.5v-11.4c0-0.8-0.1-1.5-0.4-2.1c-0.2-0.6-0.6-1.1-1-1.4c-0.4-0.4-0.9-0.7-1.4-0.8
					c-1.3-0.4-2.8-0.3-4.3,0.2c-0.7,0.2-1.4,0.5-2,0.8c0-0.4-0.1-0.7-0.4-0.9c-0.3-0.3-0.6-0.4-0.9-0.4h-5.4v0.7h0.4
					c0.2,0,0.3,0.1,0.3,0.3v15.2c0,0.2-0.1,0.3-0.3,0.3h-0.4v0.7h7.5v-0.7h-0.4c-0.3,0-0.3-0.1-0.3-0.3v-13.9c0-0.2,0.1-0.4,0.3-0.5
					l0.6-0.2c0.4-0.1,0.8-0.1,1.1-0.1c0.4,0.1,0.6,0.3,0.9,0.7c0.2,0.3,0.4,0.8,0.4,1.6v12.1C176.7,406.3,176.6,406.4,176.5,406.6"
					/>
				<path class="st8" d="M186.3,401.2v0.2c0,0.8,0.2,1.6,0.5,2.3c0.3,0.7,0.7,1.4,1.3,1.9c0.5,0.5,1.2,1,1.9,1.3
					c0.7,0.3,1.5,0.5,2.3,0.5c0.8,0,1.6-0.2,2.3-0.5c0.7-0.3,1.4-0.7,1.9-1.3c0.5-0.5,1-1.2,1.3-1.9c0.3-0.7,0.5-1.5,0.5-2.3
					c0-1.2-0.3-2.2-0.9-3.2c-0.6-0.9-1.4-1.7-2.3-2.2l-4.8-2.5c-0.5-0.2-0.7-0.6-0.7-1.1c0-0.5,0.2-0.9,0.7-1.1
					c0.6-0.3,1.3-0.5,2.1-0.5c0.7,0,1.4,0.1,2,0.4c0.6,0.3,1.1,0.7,1.5,1.2c0.2,0.3,0.3,0.6,0.3,0.9v1.7h0.7v-4.5H196v1.2v0
					c-0.5-0.5-1-0.9-1.7-1.2c-1.3-0.6-2.8-0.6-4.1,0c-0.6,0.3-1.2,0.7-1.7,1.1c-0.5,0.5-0.9,1-1.1,1.7c-0.3,0.6-0.4,1.3-0.4,2.1
					c0,1,0.2,1.9,0.7,2.7c0.5,0.8,1.1,1.5,1.9,1.9l6,3.1c0.5,0.2,0.7,0.6,0.7,1.1c0,0.4-0.1,0.7-0.4,0.9c-0.5,0.5-1,0.9-1.7,1.1
					c-0.6,0.3-1.3,0.4-2,0.4c-0.7,0-1.4-0.1-2.1-0.4c-0.6-0.3-1.2-0.7-1.7-1.1c-0.5-0.5-0.8-1-1.1-1.7c-0.3-0.6-0.4-1.3-0.4-2.1
					v-0.2H186.3z"/>
				<path class="st8" d="M215.4,392.6c-0.8-0.8-1.8-1.4-2.8-1.9c-2.1-0.9-4.5-0.9-6.6,0c-1.1,0.4-2,1.1-2.8,1.9
					c-0.8,0.8-1.4,1.8-1.9,2.8c-0.4,1-0.6,2.2-0.6,3.3c0,1.1,0.2,2.2,0.6,3.3c0.4,1.1,1.1,2,1.9,2.8c0.8,0.8,1.8,1.4,2.8,1.9
					c1,0.4,2.2,0.6,3.3,0.6c1.2,0,2.3-0.2,3.3-0.6c1.1-0.4,2-1.1,2.8-1.9c0.8-0.8,1.4-1.7,1.9-2.8c0.4-1.1,0.6-2.2,0.6-3.3
					c0-1.2-0.2-2.3-0.6-3.3C216.8,394.4,216.2,393.4,215.4,392.6 M206.9,399.7v-2c0-1.5,0-2.8,0.1-4c0.1-1.1,0.4-1.9,0.9-2.5
					c0.4-0.3,0.8-0.5,1.4-0.5c0.6,0,1,0.2,1.4,0.5c0.5,0.5,0.8,1.3,0.9,2.5c0.1,1.2,0.1,2.5,0.1,4l0,2c0,1.5,0,2.8-0.1,4
					c-0.1,1.1-0.4,1.9-0.9,2.4c-0.4,0.3-0.8,0.5-1.4,0.5c-0.6,0-1-0.2-1.4-0.5c-0.5-0.5-0.8-1.3-0.9-2.4
					C206.9,402.5,206.9,401.2,206.9,399.7"/>
				<path class="st8" d="M236,403.1c0-0.8-0.3-1.5-0.9-2.1c-0.6-0.6-1.3-0.9-2.1-0.9c-0.8,0-1.5,0.3-2.1,0.9
					c-0.6,0.6-0.9,1.3-0.9,2.1c0,0.6,0.2,1.2,0.6,1.7c0.4,0.5,0.9,1,1.5,1.3c0.6,0.4,1.3,0.7,2.1,0.9c0.8,0.2,1.6,0.3,2.5,0.3
					c1.2,0,2.3-0.2,3.3-0.6c1-0.4,2-1.1,2.8-1.9c0.8-0.8,1.4-1.7,1.9-2.8s0.7-2.2,0.7-3.3l0-18.4c0-0.1,0-0.2,0.1-0.3
					c0.1-0.1,0.2-0.1,0.3-0.1h0.5v-0.7h-7.9v0.7h0.5c0.1,0,0.2,0,0.3,0.1c0.1,0.1,0.1,0.2,0.1,0.3v20.1c0,1.3-0.1,2.5-0.2,3.5
					c-0.1,1-0.4,1.7-0.9,2.1c-0.3,0.3-0.7,0.5-1.2,0.5h-0.5c-0.6,0-1.2-0.1-1.9-0.2c-0.5-0.1-1-0.2-1.5-0.5c0.8-0.1,1.4-0.4,1.9-0.9
					C235.8,404.4,236,403.7,236,403.1"/>
				<path class="st8" d="M267.9,393.1h0.4v-0.7l-0.2,0c-1.3-0.2-2.4-0.5-3.4-0.9c-0.9-0.3-1.8-0.8-2.6-1.4l-0.1,0h-0.6v1.3
					c-0.1-0.1-0.3-0.2-0.5-0.3c-0.3-0.2-0.6-0.3-1-0.5c-0.4-0.2-0.9-0.3-1.4-0.4c-0.5-0.1-1.1-0.2-1.7-0.2c-1.1,0-2.1,0.2-3,0.6
					c-0.9,0.4-1.7,1-2.4,1.8c-0.7,0.8-1.2,1.7-1.5,2.8c-0.2,0.5-0.3,1.1-0.4,1.6c-0.1,0.5-0.1,1.1-0.1,1.8c0,0.7,0,1.3,0.1,1.9
					c0.1,0.6,0.3,1.1,0.5,1.7c0.4,1.1,1,2.1,1.7,2.8c0.7,0.8,1.6,1.4,2.6,1.7c0.9,0.4,1.8,0.5,2.9,0.5c0.1,0,0.3,0,0.4,0
					c0.5,0,0.9-0.1,1.3-0.2c0.4-0.1,0.8-0.3,1.1-0.5c0.5-0.3,1-0.6,1.4-1v0.3c0,0.3,0.1,0.7,0.4,0.9c0.3,0.3,0.6,0.4,0.9,0.4h5.4
					v-0.7h-0.4c-0.2,0-0.3-0.1-0.3-0.3v-12.9C267.6,393.2,267.7,393.1,267.9,393.1 M257.1,404.5c-0.3-0.6-0.5-1.4-0.7-2.3
					c-0.1-0.9-0.2-2.1-0.2-3.5c0-0.7,0.1-1.3,0.1-1.8c0-0.5,0.1-1,0.2-1.4c0.2-1,0.5-1.7,0.7-2.3c0.2-0.5,0.6-0.9,1-1.2
					c0.4-0.2,0.8-0.4,1.2-0.4c0.1,0,0.2,0,0.2,0c0.4,0,0.7,0.1,1,0.2c0.3,0.1,0.6,0.2,0.7,0.3c0.2,0.1,0.3,0.2,0.3,0.3
					c0,0.1,0.1,0.3,0.1,0.5v11.4c0,0.3-0.1,0.7-0.4,1c-0.2,0.2-0.5,0.4-0.7,0.6c-0.4,0.2-0.8,0.4-1.2,0.4
					C258.4,406.3,257.6,405.8,257.1,404.5"/>
				<path class="st8" d="M280.3,405.4c-0.2,0.1-0.3,0.2-0.5,0.2c-0.3,0.1-0.6,0.1-0.8,0.1c-0.3-0.1-0.5-0.3-0.6-0.7
					c-0.2-0.4-0.3-1-0.3-1.7v-12.2c0-0.2,0.1-0.3,0.3-0.3h2.4v-0.7h-2.4c-0.3,0-0.3-0.1-0.3-0.3v-4h-0.6l-0.1,0
					c-0.7,0.6-1.6,1-2.5,1.4c-0.9,0.4-2.1,0.7-3.4,0.9l-0.2,0v0.7h0.4c0.2,0,0.3,0.1,0.3,0.3v13.5c0,0.8,0.1,1.6,0.4,2.1
					c0.2,0.6,0.6,1.1,1,1.5c0.4,0.4,0.9,0.7,1.5,0.8c0.6,0.2,1.2,0.2,1.8,0.2c0.8,0,1.6-0.2,2.4-0.5c0.4-0.2,0.7-0.3,1-0.5
					c0.3-0.2,0.6-0.4,0.9-0.5l0.1-0.1l0.1-0.8l-0.4,0.2C280.6,405.2,280.4,405.3,280.3,405.4"/>
				<path class="st8" d="M287.4,387.9c0.8,0,1.5-0.3,2.1-0.9c0.6-0.6,0.9-1.3,0.9-2.1c0-0.8-0.3-1.5-0.9-2.1
					c-0.6-0.6-1.3-0.9-2.1-0.9c-0.8,0-1.5,0.3-2.1,0.9c-0.6,0.6-0.9,1.3-0.9,2.1c0,0.8,0.3,1.5,0.9,2.1
					C285.8,387.6,286.6,387.9,287.4,387.9"/>
				<path class="st8" d="M290.4,406.3v-14.9c0-0.4-0.1-0.7-0.4-0.9c-0.3-0.3-0.6-0.4-0.9-0.4h-5.4v0.7h0.4c0.2,0,0.3,0.1,0.3,0.3
					v15.2c0,0.2-0.1,0.3-0.3,0.3h-0.4v0.7h7.5v-0.7h-0.4C290.4,406.7,290.4,406.5,290.4,406.3"/>
				<path class="st8" d="M299.6,423.7c1,0.4,2.2,0.6,3.3,0.6c1.1,0,2.2-0.2,3.3-0.6c1-0.4,2-1.1,2.8-1.9c0.8-0.8,1.4-1.7,1.9-2.8
					c0.4-1,0.6-2.2,0.6-3.3c0-1.4-0.3-2.5-1-3.4c-0.7-0.9-1.5-1.6-2.6-2.2c-1-0.6-2.2-1-3.4-1.4c-1.2-0.3-2.4-0.7-3.5-1
					c-1.1-0.3-2.1-0.7-2.9-1c-0.8-0.3-1.3-0.8-1.6-1.3c-0.1-0.3-0.2-0.6-0.1-0.8c0.8,0.9,1.8,1.6,2.8,2c2.2,1,4.7,1,6.8,0.1
					c1-0.4,2-1.1,2.8-1.9c0.8-0.8,1.4-1.7,1.9-2.8c0.4-1.1,0.6-2.2,0.6-3.3v-4.2c0-0.2,0.1-0.3,0.3-0.3h0.5v-0.7l-0.2,0
					c-1.2-0.1-2.4-0.5-3.4-1.1c-1-0.6-1.9-1.3-2.5-2.3l-0.1-0.1h-0.6v0.4c-0.8-0.3-1.7-0.4-2.6-0.4c-1.2,0-2.3,0.2-3.3,0.6
					c-1.1,0.4-2,1.1-2.8,1.9c-0.8,0.8-1.4,1.8-1.9,2.8c-0.4,1-0.6,2.2-0.6,3.3c0,0.9,0.2,1.9,0.5,2.8c0.3,0.8,0.7,1.6,1.2,2.3
					c-0.4,0.3-0.8,0.8-1.1,1.3c-0.4,0.6-0.6,1.4-0.6,2.4c0,1.1,0.3,2,0.9,2.7c0.6,0.7,1.3,1.3,2.2,1.7c0.9,0.5,1.9,0.8,3,1.2
					c1.1,0.3,2.2,0.6,3.3,1c1.1,0.3,2.1,0.7,3.1,1.1c0.9,0.4,1.7,0.9,2.4,1.5l0,0c0.2,0.3,0.4,0.6,0.6,0.9c0.1,0.3,0.2,0.7,0.2,1.1
					c0,0.7-0.2,1.4-0.7,1.9c-0.7,0.9-1.7,1.6-2.7,2.2c-1.1,0.5-2.2,0.8-3.4,0.8c-1.2,0-2.4-0.3-3.4-0.8c-0.8-0.4-1.5-0.9-2.1-1.4
					c0.2,0,0.4,0.1,0.6,0.1c0.8,0,1.5-0.3,2.1-0.9c0.6-0.6,0.9-1.3,0.9-2.1c0-0.8-0.3-1.5-0.9-2.1c-0.6-0.6-1.3-0.9-2.1-0.9
					c-0.8,0-1.5,0.3-2.1,0.9c-0.6,0.6-0.9,1.3-0.9,2.1c0,0.5,0.1,1,0.4,1.5c0.2,0.3,0.4,0.6,0.6,0.9c0.2,0.3,0.5,0.6,0.8,0.9
					C297.6,422.7,298.6,423.3,299.6,423.7 M305.3,397.7v2c0,1.5,0,2.8-0.1,4c-0.1,1.1-0.4,1.9-0.9,2.4c-0.4,0.3-0.8,0.5-1.4,0.5
					c-0.6,0-1-0.2-1.4-0.5c-0.5-0.5-0.8-1.3-0.9-2.4c-0.1-1.2-0.1-2.5-0.1-4v-2c0-1.5,0-2.8,0.1-4c0.1-1.1,0.4-1.9,0.9-2.4
					c0.4-0.4,0.8-0.5,1.4-0.5c0.6,0,1,0.2,1.4,0.5c0.5,0.5,0.8,1.3,0.9,2.4C305.3,394.9,305.3,396.2,305.3,397.7"/>
				<path class="st8" d="M315.6,406.7h-0.4v0.7h7.5v-0.7h-0.4c-0.3,0-0.3-0.1-0.3-0.3v-16.2h-0.6l-0.1,0.1c-0.7,0.9-1.5,1.7-2.5,2.3
					c-1,0.6-2.1,0.9-3.3,1.1l-0.2,0v0.7h0.4c0.2,0,0.3,0.1,0.3,0.3v11.8C315.9,406.6,315.8,406.7,315.6,406.7"/>
				<path class="st8" d="M321,385.6c0.6-0.6,0.9-1.3,0.9-2.1c0-0.8-0.3-1.5-0.9-2.1c-0.6-0.6-1.3-0.9-2.1-0.9
					c-0.8,0-1.5,0.3-2.1,0.9c-0.6,0.6-0.9,1.3-0.9,2.1c0,0.8,0.3,1.5,0.9,2.1c0.6,0.6,1.3,0.9,2.1,0.9
					C319.7,386.5,320.4,386.2,321,385.6"/>
				<path class="st8" d="M328.9,421.9c1.7,1.7,3.7,2.5,6.1,2.5c1.2,0,2.3-0.2,3.3-0.6c1-0.4,2-1.1,2.8-1.9c0.8-0.8,1.4-1.7,1.9-2.8
					c0.4-1,0.7-2.2,0.7-3.3c0-1.4-0.3-2.5-1-3.4c-0.7-0.9-1.5-1.6-2.6-2.2c-1-0.6-2.2-1-3.4-1.4c-1.2-0.3-2.4-0.7-3.5-1
					c-1.1-0.3-2.1-0.7-2.9-1c-0.8-0.3-1.3-0.8-1.6-1.3c-0.1-0.3-0.1-0.5,0-0.8c0.9,0.9,1.9,1.6,2.9,2c1.1,0.5,2.2,0.8,3.4,0.8
					c1.2,0,2.3-0.2,3.3-0.6c1-0.4,2-1.1,2.8-1.9c0.8-0.8,1.4-1.7,1.9-2.8c0.4-1.1,0.6-2.2,0.6-3.3v-7.6c0-0.2,0.1-0.3,0.3-0.3h0.4
					v-0.7h-7.8v0.7h0.5c0.2,0,0.3,0.1,0.3,0.3v8.6c0,1.5,0,2.8-0.1,4c-0.1,1.1-0.4,2-0.9,2.4c-0.3,0.3-0.8,0.5-1.4,0.5
					c-0.6,0-1.1-0.2-1.4-0.5c-0.2-0.2-0.4-0.6-0.6-1c-0.1-0.4-0.2-0.9-0.3-1.5c-0.1-0.6-0.1-1.2-0.1-1.8c0-0.7,0-1.4,0-2.1v-8.6
					c0-0.2,0.1-0.3,0.3-0.3h0.5v-0.7h-7.8v0.7h0.4c0.2,0,0.3,0.1,0.3,0.3v7.6c0,1.9,0.6,3.6,1.7,5.1c-0.4,0.3-0.8,0.8-1.2,1.3
					c-0.4,0.6-0.7,1.4-0.7,2.4c0,1.1,0.3,2,0.9,2.7c0.6,0.7,1.3,1.3,2.2,1.7c0.9,0.5,1.9,0.8,3,1.2c1.1,0.3,2.2,0.6,3.3,0.9
					c1.1,0.3,2.1,0.7,3.1,1.1c0.9,0.4,1.7,0.9,2.3,1.5v0l0.1,0.1c0.5,0.6,0.8,1.3,0.8,2.1c0,0.8-0.2,1.4-0.7,1.9
					c-0.7,0.9-1.6,1.6-2.7,2.2c-1.1,0.5-2.2,0.8-3.5,0.8c-1.2,0-2.4-0.3-3.4-0.8c-0.8-0.4-1.5-0.9-2-1.4c0.2,0,0.4,0.1,0.5,0.1
					c0.8,0,1.5-0.3,2.1-0.9c0.6-0.6,0.9-1.3,0.9-2.1c0-0.8-0.3-1.5-0.9-2.1c-0.6-0.6-1.3-0.9-2.1-0.9c-0.8,0-1.5,0.3-2.1,0.9
					c-0.6,0.6-0.9,1.3-0.9,2.1c0,0.5,0.1,1,0.4,1.5c0.2,0.3,0.4,0.6,0.6,0.9C328.4,421.3,328.6,421.6,328.9,421.9"/>
				<path class="st8" d="M357.6,406.7c0.5-0.3,1-0.6,1.4-1v0.3c0,0.3,0.1,0.7,0.4,0.9c0.3,0.3,0.6,0.4,0.9,0.4h5.4v-0.7h-0.4
					c-0.2,0-0.3-0.1-0.3-0.3v-15.2c0-0.2,0.1-0.3,0.3-0.3h0.4v-0.7h-5.4c-0.3,0-0.6,0.1-0.9,0.4c-0.3,0.3-0.4,0.6-0.4,0.9v0.1
					c-0.1-0.1-0.3-0.2-0.5-0.3c-0.3-0.2-0.6-0.3-1-0.5c-0.4-0.2-0.9-0.3-1.4-0.4c-0.5-0.1-1.1-0.2-1.7-0.2c-1.1,0-2.1,0.2-3,0.6
					c-0.9,0.4-1.7,1-2.4,1.8c-0.7,0.8-1.2,1.7-1.5,2.8c-0.2,0.5-0.3,1.1-0.4,1.6c-0.1,0.5-0.1,1.1-0.1,1.8c0,0.7,0,1.3,0.1,1.9
					c0.1,0.6,0.3,1.1,0.5,1.7c0.4,1.1,1,2.1,1.7,2.8c0.7,0.8,1.6,1.4,2.6,1.7c0.9,0.4,1.8,0.5,2.9,0.5c0.1,0,0.3,0,0.4,0
					c0.5,0,0.9-0.1,1.3-0.2C356.9,407,357.2,406.9,357.6,406.7 M358.9,392.3c0,0.1,0.1,0.3,0.1,0.5v11.4c0,0.3-0.1,0.7-0.4,1
					c-0.2,0.2-0.5,0.4-0.7,0.6c-0.4,0.2-0.8,0.4-1.2,0.4c-1,0.1-1.7-0.4-2.3-1.7c-0.3-0.6-0.5-1.4-0.7-2.3c-0.1-0.9-0.2-2.1-0.2-3.5
					c0-0.7,0.1-1.3,0.1-1.8c0-0.5,0.1-1,0.2-1.4c0.2-1,0.5-1.7,0.7-2.3c0.2-0.5,0.6-0.9,1-1.2c0.4-0.2,0.8-0.4,1.2-0.4
					c0.1,0,0.2,0,0.2,0c0.4,0,0.7,0.1,1,0.2c0.3,0.1,0.6,0.2,0.7,0.3C358.8,392.1,358.9,392.2,358.9,392.3"/>
				<path class="st8" d="M124.9,446.6h0.4l0,0c1.6-1.1,2.6-2.1,3-2.9c0.3,0.3,0.7,0.6,1.1,1c0.4,0.4,0.8,0.8,1.3,1.2l0,0h0.4l0,0
					c2.1-1.5,3.1-2.7,3.1-3.7c0-0.5-0.3-1.1-0.8-1.6c-0.5-0.5-1.3-1.1-2.3-1.7l0,0h-0.3l0,0c-0.2,0.1-0.4,0.3-0.7,0.6
					c-0.3,0.3-0.7,0.7-1.1,1.1c-0.3,0.4-0.7,0.7-0.9,1.1c-0.2-0.3-0.6-0.7-1-1c-0.5-0.3-1-0.7-1.6-1.1l0,0h-0.4l0,0
					c-0.2,0.1-0.5,0.4-1,0.9c-0.4,0.5-0.9,1-1.3,1.5c-0.5,0.5-0.8,1-1.1,1.3l0,0v0.4l0,0c0.5,0.4,1,0.9,1.6,1.3
					C123.8,445.4,124.3,446,124.9,446.6L124.9,446.6z"/>
				<path class="st8" d="M141.1,424L141.1,424l-0.4,0l0,0c-0.2,0.1-0.5,0.4-1,0.9c-0.5,0.5-0.9,1-1.4,1.5c-0.5,0.5-0.8,1-1,1.3l0,0
					v0.4l0,0c1.1,0.8,2.1,1.8,3.2,2.9l0,0h0.3l0,0c2.2-1.5,3.2-2.7,3.2-3.7c0-0.4-0.2-0.9-0.6-1.4
					C143.1,425.4,142.3,424.8,141.1,424"/>
				<path class="st8" d="M142.9,439.7c-0.6-0.6-1.4-0.9-2.3-0.9c-1.1,0-1.9,0.6-2.5,1.7l-1.2,2.3c-0.5,0.9-0.7,1.8-0.7,2.7
					c0,0.8,0.3,1.5,1,2c0.6,0.5,1.4,0.8,2.2,0.8c1.1,0,2-0.3,2.8-0.8c0.1,0.3,0.1,0.5,0.1,0.7c0,0.6-0.2,1.1-0.6,1.6
					c-0.5,0.6-1.1,1.1-1.9,1.3c-0.7,0.2-1.7,0.3-2.9,0.3c-0.1,0-0.2,0-0.4,0c-0.5,0-1.1-0.1-1.9-0.2c-0.7-0.1-1.4-0.2-2-0.2
					c-1.7,0-3.3,0.8-4.7,2.3c-1.4,1.5-2.6,3.6-3.7,6.2l0,0l0.9,0.4l0,0c0.7-0.9,1.4-1.7,2-2.2c0.6-0.5,1.4-0.7,2.4-0.7
					c0.6,0,1.2,0.1,1.9,0.3c0.5,0.2,1,0.3,1.4,0.3c0.3,0.1,0.7,0.1,1.3,0.1c1.2,0,2.5-0.3,3.7-0.8c1.2-0.5,2.4-1.3,3.4-2.3
					c1-1,1.8-2.4,2.5-4c0.6-1.6,0.9-3.5,0.9-5.7c0-1.1-0.2-2.1-0.4-3.1C143.9,441.1,143.5,440.3,142.9,439.7"/>
				<path class="st8" d="M166.9,459.6L166.9,459.6l-0.4,0l0,0c-0.2,0.1-0.6,0.5-1.2,1.1c-0.5,0.6-1.1,1.2-1.5,1.7
					c-0.2-0.3-0.6-0.7-1-1c-0.4-0.3-1-0.7-1.6-1.1l0,0h-0.4l0,0c-0.2,0.1-0.5,0.4-1,0.9c-0.5,0.5-0.9,1-1.4,1.5
					c-0.5,0.5-0.8,1-1,1.3l0,0v0.4l0,0c0.5,0.4,1,0.9,1.6,1.3c0.5,0.5,1.1,1,1.6,1.6l0,0h0.4l0,0c1.6-1.1,2.6-2.1,3-2.9
					c0.8,0.6,1.6,1.3,2.4,2.2l0,0h0.4l0,0c2.1-1.5,3.1-2.7,3.1-3.7c0-0.5-0.3-1.1-0.8-1.6C168.7,460.8,167.9,460.3,166.9,459.6"/>
				<path class="st8" d="M180.3,426.5L180.3,426.5l0.4,0l0,0c2.2-1.5,3.2-2.7,3.2-3.7c0-0.4-0.2-0.9-0.6-1.4
					c-0.4-0.5-1.2-1.1-2.4-1.9l0,0h-0.4l0,0c-0.2,0.1-0.5,0.4-1,0.9c-0.5,0.5-0.9,1-1.4,1.5c-0.5,0.5-0.8,1-1,1.3l0,0v0.4l0,0
					C178.1,424.5,179.2,425.4,180.3,426.5"/>
				<path class="st8" d="M202.7,412.6c-0.9,2-1.6,3.9-2,5.8c-0.5,1.9-0.7,3.8-0.8,5.7l-0.2,6.9c0,2.1-0.3,3.8-0.9,5.2
					c-0.6,1.3-1.5,2.5-2.8,3.4c-0.9,0.7-2.1,1.4-3.5,1.9c-1.4,0.6-2.9,1.1-4.5,1.5c-0.3,0.1-0.7,0.2-1,0.2c0.2-0.1,0.3-0.3,0.5-0.4
					c0.5-0.4,1-1,1.7-1.7c0.6-0.7,1.3-1.6,1.8-2.5c0.6-0.9,1.1-1.9,1.5-2.9c0.4-1,0.6-1.9,0.6-2.9c0-0.7-0.3-1.4-0.8-1.8
					c-0.5-0.5-1.3-0.7-2.2-0.7c-1.5,0-3,0.5-4.5,1.4c-1.5,0.9-3,2.2-4.4,3.8c-1.4,1.6-2.9,3.4-4.4,5.3c-0.2-0.1-0.6-0.2-1-0.4
					c-0.5-0.2-0.9-0.3-1.3-0.3c-0.7,0-1.2,0.3-1.7,1l-1.9,2.4c-0.7,1-1.4,1.8-2,2.3c-0.5,0.5-1.1,0.7-1.8,0.7
					c-0.6,0-1.1-0.1-1.5-0.4c-0.4-0.3-0.9-0.4-1.5-0.4c-0.7,0-1.2,0.3-1.6,0.9l-1.3,1.7c-0.9,1.2-2.2,1.8-3.7,1.8
					c-1.1,0-2.1-0.3-2.7-0.9c-0.6-0.6-1.1-1.3-1.4-2.2c-0.3-0.9-0.5-1.9-0.5-3c-0.1-1.1-0.1-2.1-0.1-3.1c0-3.7,0.1-6.9,0.2-9.7
					c0.2-2.7,0.4-5,0.7-6.7l0,0l-0.9-0.3l0,0c-0.6,1.5-1.1,2.9-1.4,4.2c-0.1,0.6-0.3,1.5-0.4,2.7c-0.2,1.3-0.3,2.8-0.4,4.5
					c-0.1,1.7-0.2,3.6-0.3,5.6c-0.1,2-0.1,4.1-0.1,6.3c0,2.8,0.5,5,1.3,6.5c0.9,1.4,2.3,2.2,4.2,2.2c0,0,0,0,0,0c0,0,0,0,0,0
					c0,0,0,0,0,0c0.1,0,0.3,0,0.4,0c0.7-0.1,1.3-0.3,1.8-0.6c0.6-0.4,1.2-1,1.8-1.7c0.5-0.7,1.1-1.5,1.6-2.3c0.4-0.6,0.7-1,0.9-1.4
					c0.2-0.3,0.5-0.5,0.8-0.5c0.2,0,0.6,0.2,1.1,0.5c0.5,0.3,1.2,0.5,1.9,0.5c0,0,0,0,0,0c0.7,0,1.3-0.1,1.9-0.4
					c0.6-0.3,1.2-0.8,1.7-1.4c0.6-0.7,1.2-1.6,2-2.8c0.7-1.2,1.3-1.9,1.7-1.9c0.3,0,0.7,0.2,1.2,0.5c0.7,0.5,1.5,0.8,2.3,1.1
					c0.7,0.2,1.5,0.3,2.3,0.3c0.1,0,0.1,0,0.2,0c0,0,0,0,0,0h0c0,0,0,0,0,0c1.8,0,3.6-0.1,5.5-0.4c1.9-0.3,3.9-0.7,5.7-1.2
					c1.8-0.6,3.5-1.3,5.1-2.1c1.5-0.9,2.8-1.9,3.7-3.1c0.5-0.6,1-1.4,1.4-2.1c0.4-0.7,0.7-1.5,1-2.3c0.2-0.7,0.4-1.4,0.5-2.1
					c0.2-0.7,0.3-1.7,0.4-2.9c0.1-1.2,0.2-2.7,0.3-4.6c0.1-1.9,0.2-4.3,0.4-7.2c0.1-1.2,0.1-2.2,0.2-3c0.1-0.8,0.2-1.5,0.3-2l0,0
					L202.7,412.6L202.7,412.6z M189.5,437c0,0.5-0.3,1-0.8,1.5c-0.6,0.5-1.3,1-2.3,1.5c-0.9,0.5-2,0.8-3.2,1.1
					c-1.2,0.3-2.4,0.4-3.6,0.4c-0.2,0-0.4,0-0.6,0c-0.2,0-0.4-0.1-0.6-0.1c1.5-2,3-3.6,4.3-4.6c1.3-1,2.7-1.5,4.1-1.5
					c0.7,0,1.3,0.1,1.8,0.4C189.3,436.1,189.5,436.5,189.5,437"/>
				<path class="st8" d="M214.4,422.6c-0.7,1.6-1.3,3-1.7,4.1c-0.4,1.1-0.7,2.1-1,3c-0.2,0.9-0.3,1.7-0.4,2.6
					c-0.1,0.9-0.1,1.9-0.2,3.1l-0.3,9.3c-0.1,1.8-0.2,3.4-0.3,4.7c-0.1,1.3-0.3,2.2-0.4,2.8l0,0.1l0.9,0.2l0,0
					c0.8-1.9,1.5-3.8,1.9-5.6c0.4-1.8,0.7-3.5,0.8-5.2l0.7-10.9c0.1-2.1,0.3-3.8,0.4-5.1c0.1-1.3,0.3-2.2,0.5-2.7l0,0L214.4,422.6
					L214.4,422.6z"/>
				<path class="st8" d="M259.3,419.2L259.3,419.2l-0.4,0l0,0c-0.2,0.1-0.5,0.4-1,0.9c-0.5,0.5-0.9,1-1.4,1.5c-0.5,0.5-0.8,1-1,1.3
					l0,0v0.4l0,0c1.1,0.8,2.1,1.8,3.2,2.9l0,0h0.3l0,0c2.2-1.5,3.2-2.7,3.2-3.7c0-0.4-0.2-0.9-0.6-1.4
					C261.3,420.6,260.4,420,259.3,419.2"/>
				<path class="st8" d="M266.1,439.3c1.1-1.6,1.8-2.9,2.3-3.9c0.4-1,0.7-2,0.7-3c0-0.7-0.3-1.3-0.8-1.8c-0.5-0.5-1.3-0.8-2.2-0.8
					c-1.5,0-3,0.5-4.6,1.4c-1.6,0.9-3.3,2.5-5.1,4.6c-2,2.3-3.3,4-4,4.9c-0.7-0.1-1.2-0.1-1.7-0.2c-0.4-0.1-0.7-0.1-0.8-0.2l0,0
					l-0.8,0.1l0,0c-0.1,5.9-0.8,10.3-1.9,13.1c-0.9,2.3-2.1,4.1-3.5,5.4c-1.4,1.3-2.9,2.2-4.5,2.7c-1.6,0.5-3.1,0.8-4.6,0.8
					c-1.1,0-2.2-0.1-3.3-0.4c-1.1-0.3-2.1-0.7-2.9-1.4c-0.9-0.6-1.5-1.5-2.1-2.7c-0.5-1.1-0.8-2.6-0.8-4.2c0-2.5,0.7-5.5,2.2-9.1
					l0,0l-1.2-0.5l0,0c-1.4,2.9-2.3,5.6-2.9,8c-0.5,2.4-0.8,4.9-0.8,7.3c0,2,0.4,3.8,1.2,5.3c0.8,1.5,1.9,2.7,3.4,3.5
					c1.5,0.8,3.2,1.2,5.2,1.2c3.1,0,5.9-1,8.5-3c1.7-1.3,3.2-3.1,4.6-5.2c1.3-2.1,2.4-4.6,3.3-7.3c0.9-2.7,1.4-5.7,1.7-8.8
					c0.6,0.1,1.2,0.2,1.9,0.2c0.7,0,1.4,0.1,2.2,0.1c2.1,0,4.2-0.6,6.2-1.7C263.1,442.8,264.8,441.3,266.1,439.3 M265.5,436.5
					c0,1-1,2-3.1,3c-2,1-4.3,1.5-6.8,1.5H255c-0.2,0-0.3,0-0.5,0c1.6-2.1,3-3.7,4.3-4.6c1.3-1,2.7-1.5,4.1-1.5
					c0.7,0,1.4,0.2,1.9,0.5C265.2,435.7,265.5,436.1,265.5,436.5"/>
				<path class="st8" d="M276.2,440c-0.4,1.1-0.8,2.2-1.3,3.3c-0.5,1.1-0.9,2-1.3,2.9c-0.4,0.9-0.9,1.5-1.3,2
					c-0.4,0.5-1,1.1-1.9,1.9c-0.8,0.8-1.8,1.6-2.8,2.5c-1,0.9-2,1.7-3.1,2.4c-1,0.8-1.9,1.4-2.8,1.8l0,0l0.2,1l0.1,0
					c2.1-0.5,3.9-0.9,5.4-1.4c1.4-0.4,2.5-0.8,3.2-1.2c1.1-0.9,2.3-2.6,3.5-5.2c1.2-2.5,2.3-5.9,3.3-9.9l0-0.1L276.2,440L276.2,440z
					"/>
				<path class="st8" d="M286.1,422.6c-0.7,1.6-1.3,3-1.7,4.1c-0.4,1.1-0.7,2.1-1,3c-0.2,0.9-0.3,1.7-0.4,2.6
					c-0.1,0.9-0.1,1.9-0.2,3.1l-0.3,9.3c-0.1,1.8-0.2,3.4-0.3,4.7c-0.1,1.3-0.3,2.2-0.4,2.8l0,0.1l0.9,0.2l0,0
					c0.8-1.9,1.5-3.8,1.9-5.6c0.4-1.8,0.7-3.5,0.8-5.2l0.7-10.9c0.1-2.1,0.3-3.8,0.4-5.1c0.1-1.3,0.3-2.2,0.5-2.7l0,0L286.1,422.6
					L286.1,422.6z"/>
				<path class="st8" d="M341,472.3L341,472.3l-0.6,0l-0.1,0c-0.3,0.1-0.7,0.5-1.3,1.2c-0.5,0.5-0.9,1-1.3,1.5
					c-0.2-0.3-0.5-0.5-0.8-0.8c-0.4-0.3-1-0.7-1.7-1.1l-0.1,0h-0.5l-0.1,0c-0.2,0.1-0.6,0.4-1.1,0.9c-0.5,0.5-0.9,1-1.4,1.5
					c-0.5,0.5-0.8,1-1,1.3l-0.1,0.1v0.6l0.1,0.1c0.5,0.4,1,0.9,1.6,1.3c0.5,0.5,1.1,1,1.6,1.6l0.1,0.1h0.6l0.1-0.1
					c1.5-1.1,2.4-2,2.9-2.8c0.7,0.6,1.4,1.2,2.2,2l0.1,0.1h0.6l0.1-0.1c2.2-1.6,3.2-2.8,3.2-3.9c0-0.6-0.3-1.2-0.8-1.7
					C342.8,473.5,342,472.9,341,472.3"/>
				<path class="st8" d="M351.2,446.6c-1.3-0.6-2.2-1-2.6-1.4c-0.4-0.4-0.6-0.8-0.6-1.4c0-0.2,0-0.4,0.1-0.7c0.1-0.3,0.1-0.7,0.1-1
					c0-0.1,0-0.1,0-0.2c0.2-0.8,0.4-1.6,0.6-2.4c0.2-0.9,0.5-1.7,0.7-2.5c0.5-1.8,0.9-4.1,1.2-6.7c0.3-2.6,0.5-5.6,0.6-8.9
					c0.1-2.3,0.2-4,0.5-5l0.1-0.2l-1.3-0.6l-0.1,0.3c-0.9,2.1-1.6,4.1-2.1,6c-0.5,2-0.7,3.9-0.7,5.7c0,3.1-0.2,5.9-0.5,8.4
					c-0.3,2.5-0.6,4.4-1,5.8c0,0,0,0,0,0c0,0,0,0,0,0l-0.9,2.9c-0.5,1.6-0.7,2.8-0.7,3.8c0,1.1,0.3,2,0.9,2.7
					c0.6,0.6,1.4,1.1,2.5,1.6c0.8,0.3,1.4,0.7,1.8,1c0.4,0.3,0.5,0.7,0.5,1.1c0,0.5-0.3,1.1-0.8,1.9c-0.5,0.8-1.3,1.7-2.2,2.6
					c-1,0.9-2.2,1.6-3.6,2.2c-1.4,0.6-3,0.9-4.8,0.9c-1.7,0-3.2-0.3-4.4-1c-1.1-0.6-2-1.5-2.6-2.6c-0.6-1.1-0.8-2.3-0.8-3.7
					c0-1,0.1-2.1,0.4-3.3c0.2-1.1,0.7-2.5,1.3-3.9c0.6-1.5,1.5-3.2,2.7-5.2l0.2-0.3l-1.5-0.9l-0.2,0.2c-1.6,2.4-2.9,4.7-3.9,6.9
					c-0.9,2.2-1.6,4.3-2,6.1c-0.4,1.9-0.6,3.5-0.6,4.9c0,2,0.4,3.7,1.1,5.2c0.7,1.5,1.8,2.7,3.1,3.6c1.3,0.9,2.9,1.3,4.7,1.3
					c1.7,0,3.4-0.3,4.8-0.9c1.5-0.6,2.8-1.4,4-2.4c1.2-1,2.2-2,3-3.1c1.2-1.5,2.2-3.1,2.9-4.8c0.8-1.7,1.4-3.3,1.7-4.8
					c0.4-1.6,0.6-2.9,0.6-4.1C353.6,448.3,352.8,447.3,351.2,446.6"/>
				<path class="st8" d="M366.5,446.9c-0.4-0.5-1-0.8-1.7-0.8c-0.2,0-0.3,0-0.4,0.1l-0.1,0l-1.7,3.7c-0.1,0-0.2,0-0.2,0
					c-0.8,0-1.5-0.2-1.9-0.8c-0.5-0.5-0.8-1.2-1.1-2.1c-0.2-0.9-0.4-1.9-0.4-2.9c-0.1-1.1-0.1-2.1-0.1-3.1c0-3.6,0.1-6.9,0.3-9.6
					c0.2-2.8,0.4-5.2,0.8-7.3l0-0.3l-1.3-0.3l-0.1,0.2c-0.5,1.1-0.9,2.2-1.2,3.2c-0.3,1-0.5,2.1-0.7,3.1c-0.1,0.4-0.1,1.1-0.3,2.2
					c-0.1,1.1-0.2,2.4-0.3,4c-0.1,1.6-0.2,3.4-0.3,5.3c-0.1,1.9-0.1,4-0.1,6.1c0,5.8,1.5,8.8,4.6,8.9c0.1,0,0.2,0,0.3,0
					c1.3,0,2.4-0.4,3.4-1.1c1-0.7,1.8-1.7,2.3-2.9c0.6-1.2,0.9-2.6,0.9-4C367.1,448,366.9,447.4,366.5,446.9"/>
				<path class="st8" d="M321.3,439.9c-0.9,0.2-1.9,0.4-3.1,0.6c-1.2,0.2-2.4,0.4-3.8,0.5c-1.3,0.1-2.7,0.2-4,0.3
					c-1.4,0.1-2.7,0.1-3.9,0.1c-2,0-3.7,0-4.9-0.1c-1.2-0.1-2.1-0.2-2.7-0.5c-0.5-0.2-1.7-0.2-2.2,0.1c-0.1,0.1-0.2,0.2-0.2,0.3
					c0,0.7,0.4,1.3,1.1,1.6c0.7,0.4,1.7,0.6,3,0.8c1.2,0.1,2.6,0.2,4.1,0.2c1.4,0,2.8,0,4.3-0.1c1.5-0.1,3-0.2,4.5-0.4
					c1.5-0.2,2.9-0.4,4.3-0.6c1.3-0.3,2.6-0.6,3.6-0.9c1.1-0.3,1.9-0.8,2.5-1.2c0.2-0.1,0.1-0.2,0.1-0.3
					C323.7,440,322.1,439.6,321.3,439.9"/>
				<path class="st8" d="M154.1,357.5c1.1,2.7,1.3,3.9,1.3,4.4c0,0.3,0,0.5,0,0.7c-0.2,0.1-0.4,0.4-0.4,0.7c0,0.5,0.4,0.8,0.8,0.8
					h13c0.4,0,0.8-0.3,0.8-0.7c0-0.3-0.1-0.6-0.4-0.8c0-0.1-0.1-0.4,0-0.8c0-0.6,0.3-1.8,1.3-4.3c0.7-1.7,1.7-4.2,3.1-7.4
					c1.4-3.3,3-7,4.8-10.9c1.8-4,3.6-8.1,5.5-12.3c1.3-3,2.6-5.8,3.8-8.5v38.7c0,2-0.2,3.5-0.5,4.4c-0.3,0.7-0.5,0.9-0.6,0.9
					c-0.4,0-0.8,0.4-0.8,0.8c0,0.5,0.4,0.8,0.8,0.8h14.2c0.5,0,0.8-0.4,0.8-0.8c0-0.4-0.3-0.8-0.8-0.8c-0.1,0-0.3-0.2-0.6-0.9
					c-0.4-0.8-0.6-2.3-0.6-4.3v-48.7c0-2.1,0.2-3.6,0.6-4.4c0.3-0.7,0.5-0.9,0.6-0.9c0.4,0,0.8-0.4,0.8-0.8c0-0.5-0.4-0.8-0.8-0.8
					h-17c-0.5,0-0.8,0.4-0.8,0.8c0,0.1,0,0.2,0,0.3c0,0.1-0.1,0.4-0.2,0.9c-0.3,0.9-0.8,2.5-1.7,4.6c-0.4,0.9-1,2.4-2,4.6
					c-1,2.2-2.1,4.8-3.5,7.9c-1.4,3.1-2.8,6.4-4.4,10c-1.6,3.6-3.2,7.2-4.8,10.8c-1.4,3.1-2.7,6-3.9,8.8c-1.2-2.7-2.5-5.6-3.8-8.7
					c-1.6-3.6-3.2-7.2-4.7-10.7c-1.5-3.5-3-6.8-4.4-9.9c-1.3-3-2.5-5.7-3.5-8c-1-2.2-1.6-3.8-2-4.7c-0.9-2.3-1.5-3.9-1.7-4.8
					c-0.1-0.5-0.2-0.8-0.2-0.9c0-0.1,0-0.2,0-0.3c0-0.5-0.4-0.8-0.8-0.8h-17.1c-0.4,0-0.8,0.3-0.8,0.8c0,0.4,0.3,0.8,0.7,0.9
					c0,0,0.3,0.1,0.7,1c0.3,0.6,0.6,1.7,0.6,4.3v48.8c0,2.5-0.3,3.8-0.6,4.3c-0.3,0.7-0.5,0.9-0.6,0.9c-0.4,0-0.8,0.4-0.8,0.8
					c0,0.5,0.4,0.8,0.8,0.8h14.3c0.5,0,0.8-0.4,0.8-0.8c0-0.4-0.3-0.8-0.8-0.8c-0.1,0-0.3-0.2-0.6-0.9c-0.4-0.8-0.6-2.3-0.6-4.3
					v-38.8c1.2,2.8,2.5,5.8,3.9,9c1.9,4.3,3.7,8.5,5.4,12.6c1.8,4.1,3.3,7.7,4.7,10.8C152.6,353.9,153.5,356.1,154.1,357.5"/>
				<path class="st8" d="M211.1,364.1h15.6c0.5,0,0.8-0.4,0.8-0.8c0-0.4-0.3-0.8-0.7-0.8c-0.1-0.1-0.2-0.3-0.3-0.8
					c-0.1-0.6-0.2-1.8,0.5-4.4c0,0,0,0,0-0.1c0.1-0.6,0.3-1.4,0.5-2.1l0.7-2.4c0.5-1.6,1-1.9,1.2-2c0.4-0.2,1.3-0.3,3.3-0.3h23.7
					c1.9,0,2.6,0.2,2.9,0.4c0.2,0.1,0.7,0.6,1.4,2.1c0,0,0,0,0,0.1c0.2,0.4,0.5,1.1,0.8,2.1c0.3,1,0.5,1.8,0.6,2.3
					c0.6,2.4,0.5,3.5,0.3,4c-0.2,0.5-0.5,1.1-0.9,1.1c-0.4,0.1-0.7,0.5-0.6,0.9c0,0.4,0.4,0.7,0.8,0.7h17.1c0.5,0,0.8-0.4,0.8-0.8
					c0-0.4-0.3-0.8-0.8-0.8c0,0,0,0-0.1,0c-0.1,0-0.4-0.1-1.3-1.1c-0.8-0.9-1.6-2.4-2.6-4.6c-0.5-1.1-1.3-2.9-2.3-5.4
					c-1.1-2.6-2.3-5.5-3.7-8.8c-1.4-3.2-2.8-6.6-4.3-10.3c-1.5-3.6-2.9-7-4.3-10.3c-1.4-3.4-2.6-6.2-3.6-8.7c-1-2.5-1.7-4.2-2.1-5.2
					c-0.8-2.1-1.2-3.6-1.2-4.4c0-0.4,0-0.6,0-0.7c0.2-0.2,0.3-0.4,0.3-0.6c0-0.5-0.4-0.8-0.8-0.8h-16.2c-0.5,0-0.8,0.4-0.8,0.8
					c0,0.3,0.1,0.5,0.4,0.7c0,0.1,0,0.3,0,0.7c0,0.6-0.3,1.8-1.3,4.4c-0.4,1-1.2,2.8-2.2,5.3l-3.7,8.7c-1.3,3.2-2.8,6.7-4.4,10.4
					c-1.5,3.6-3,7.1-4.4,10.4c-1.4,3.3-2.7,6.2-3.7,8.6c-1.1,2.4-1.8,4.2-2.2,5.2c-1,2.2-1.8,3.8-2.3,4.7c-0.5,0.7-0.7,1-0.8,1.1
					c-0.4,0.1-0.6,0.4-0.6,0.8C210.3,363.8,210.6,364.1,211.1,364.1 M244.5,312.2c0.9,2,1.9,4.3,3,6.9c1.4,3.3,2.8,6.7,4.3,10.2
					c1.4,3.4,2.7,6.6,3.8,9.5c0.3,0.9,0.3,1.3,0.3,1.5c-0.2,0.1-0.8,0.2-2.2,0.2h-18.6c-1.5,0-2-0.2-2.2-0.2c0-0.2,0-0.7,0.4-1.7
					c1.5-3.5,2.8-6.7,4-9.5c1.2-2.8,2.5-5.8,3.8-9.1C242.3,317.4,243.4,314.8,244.5,312.2"/>
				<path class="st8" d="M288.8,303.1c0,0,0.3,0.1,0.7,1c0.3,0.6,0.6,1.7,0.6,4.3v48.8c0,2.5-0.3,3.8-0.6,4.3
					c-0.3,0.7-0.5,0.9-0.6,0.9c-0.4,0-0.8,0.4-0.8,0.8c0,0.5,0.4,0.8,0.8,0.8h50.7c0.5,0,0.8-0.4,0.8-0.8v-2.1l1.8-10.1
					c0.1-0.4-0.1-0.7-0.5-0.9c-0.3-0.2-0.8-0.1-1,0.2c-0.4,0.5-1.4,1.4-4,2.4c-2.1,0.9-4.9,1.3-8.3,1.3h-23.4c-2,0-2.6-0.2-2.7-0.3
					c-0.1-0.1-0.2-0.6-0.2-2.1v-43.4c0-2.1,0.2-3.6,0.6-4.4c0.3-0.7,0.5-0.9,0.6-0.9c0.4,0,0.8-0.4,0.8-0.8c0-0.5-0.4-0.8-0.8-0.8
					H289c-0.4,0-0.8,0.3-0.8,0.8C288.1,302.6,288.4,303,288.8,303.1"/>
				<path class="st8" d="M350.7,303.1c0,0,0.3,0.1,0.7,1c0.3,0.6,0.6,1.7,0.6,4.3v48.8c0,2.5-0.3,3.8-0.6,4.3
					c-0.3,0.7-0.5,0.9-0.6,0.9c-0.4,0-0.8,0.4-0.8,0.8c0,0.5,0.4,0.8,0.8,0.8h14.3c0.5,0,0.8-0.4,0.8-0.8c0-0.4-0.3-0.8-0.8-0.8
					c-0.1,0-0.3-0.2-0.6-0.9c-0.4-0.8-0.6-2.3-0.6-4.3v-48.7c0-2.1,0.2-3.6,0.6-4.4c0.3-0.7,0.5-0.9,0.6-0.9c0.4,0,0.8-0.4,0.8-0.8
					c0-0.5-0.4-0.8-0.8-0.8h-14.3c-0.4,0-0.8,0.3-0.8,0.8C350,302.6,350.3,303,350.7,303.1"/>
			</g>
			<g class="st2">
				<defs>
					<rect id="SVGID_20_" x="-1" y="-1.7" width="490.8" height="785.3"/>
				</defs>
				<clipPath id="SVGID_21_">
					<use xlink:href="#SVGID_20_"  style="overflow:visible;"/>
				</clipPath>
				<g class="st9">
					<defs>
						<rect id="SVGID_22_" x="626.5" y="136.4" width="272.6" height="316.1"/>
					</defs>
					<clipPath id="SVGID_23_">
						<use xlink:href="#SVGID_22_"  style="overflow:visible;"/>
					</clipPath>
					<g class="st10">
						<defs>
							<rect id="SVGID_24_" x="38" y="77" width="905.3" height="559.9"/>
						</defs>
						<clipPath id="SVGID_25_">
							<use xlink:href="#SVGID_24_"  style="overflow:visible;"/>
						</clipPath>
						<g class="st11">
							<defs>
								<rect id="SVGID_26_" x="38" y="77" width="905.3" height="559.9"/>
							</defs>
							<clipPath id="SVGID_27_">
								<use xlink:href="#SVGID_26_"  style="overflow:visible;"/>
							</clipPath>
							<g transform="matrix(1 0 0 1 0 0)" style="clip-path:url(#SVGID_27_);">
								
									<image style="overflow:visible;" width="1080" height="668" xlink:href="62E027422C90A6D1.jpg"  transform="matrix(0.8382 0 0 0.8382 38.0463 77.0175)">
								</image>
							</g>
						</g>
					</g>
				</g>
			</g>
			<g class="st2">
				<text transform="matrix(1 0 0 1 155.8962 629.1693)"><tspan x="0" y="0" class="st12 st13 st14 st15">E</tspan><tspan x="9.4" y="0" class="st12 st13 st14 st15">ng</tspan><tspan x="27.3" y="0" class="st12 st13 st14 st15">li</tspan><tspan x="33.6" y="0" class="st12 st13 st14 st15">s</tspan><tspan x="41.8" y="0" class="st12 st13 st14">h</tspan></text>
			</g>
			<polygon class="st16" points="157,628.9 157,623.6 163.6,623.6 163.6,623.3 157,623.3 157,618.5 164,618.5 164,618.2 
				156.7,618.2 156.7,629.2 164.1,629.2 164.1,628.9 			"/>
			<g class="st2">
				<defs>
					<rect id="SVGID_28_" x="-1" y="-1.7" width="490.8" height="785.3"/>
				</defs>
				<clipPath id="SVGID_29_">
					<use xlink:href="#SVGID_28_"  style="overflow:visible;"/>
				</clipPath>
				<path class="st17" d="M166.1,621.3v7.9h0.3v-4.5c0-0.4,0.1-0.9,0.2-1.3c0.1-0.4,0.3-0.7,0.5-1.1c0.2-0.3,0.5-0.5,0.9-0.7
					c0.4-0.2,0.8-0.3,1.2-0.3c0.3,0,0.7,0,1,0.1c0.3,0.1,0.6,0.3,0.8,0.5c0.2,0.2,0.4,0.5,0.5,0.8c0.1,0.3,0.2,0.7,0.2,1.2v5.2h0.3
					v-5.2c0-0.5-0.1-0.9-0.2-1.2c-0.1-0.4-0.3-0.6-0.6-0.9c-0.3-0.2-0.5-0.4-0.9-0.5c-0.3-0.1-0.7-0.2-1.1-0.2
					c-0.4,0-0.7,0.1-1.1,0.2c-0.3,0.1-0.6,0.3-0.8,0.5c-0.2,0.2-0.4,0.4-0.6,0.7c-0.2,0.3-0.3,0.5-0.3,0.8h0v-1.9H166.1z"/>
				<path class="st17" d="M180.9,625c0,0.5-0.1,0.9-0.2,1.3c-0.1,0.4-0.3,0.8-0.6,1.1c-0.3,0.3-0.6,0.6-1,0.7
					c-0.4,0.2-0.8,0.3-1.3,0.3c-0.5,0-0.9-0.1-1.3-0.3c-0.4-0.2-0.7-0.4-0.9-0.7c-0.3-0.3-0.4-0.7-0.6-1.1c-0.1-0.4-0.2-0.9-0.2-1.4
					c0-0.5,0.1-0.9,0.2-1.4c0.1-0.4,0.3-0.8,0.6-1.1c0.3-0.3,0.6-0.6,1-0.8s0.8-0.3,1.3-0.3c0.5,0,0.9,0.1,1.3,0.3
					c0.4,0.2,0.7,0.5,0.9,0.8s0.4,0.7,0.6,1.1C180.9,624.1,180.9,624.5,180.9,625z M180.9,626.5v2.4c0,1-0.3,1.7-0.8,2.2
					c-0.5,0.5-1.3,0.7-2.2,0.7c-0.3,0-0.7,0-1-0.1c-0.3-0.1-0.6-0.2-0.9-0.4c-0.2-0.2-0.4-0.4-0.6-0.7c-0.1-0.3-0.2-0.6-0.2-1H175
					c0,0.4,0.1,0.8,0.3,1.1c0.2,0.3,0.4,0.6,0.7,0.8c0.3,0.2,0.6,0.3,1,0.4s0.7,0.1,1.1,0.1c1,0,1.9-0.3,2.4-0.8
					c0.6-0.5,0.9-1.3,0.9-2.4v-7.6h-0.3v2.1h0c-0.1-0.3-0.2-0.6-0.4-0.9c-0.2-0.3-0.4-0.5-0.7-0.7c-0.3-0.2-0.6-0.4-0.9-0.5
					c-0.3-0.1-0.7-0.2-1.1-0.2c-0.6,0-1,0.1-1.5,0.3c-0.4,0.2-0.8,0.5-1.1,0.8c-0.3,0.4-0.5,0.8-0.6,1.2c-0.1,0.5-0.2,1-0.2,1.5
					c0,0.5,0.1,1,0.2,1.4c0.1,0.5,0.3,0.9,0.6,1.2c0.3,0.3,0.6,0.6,1,0.8c0.4,0.2,0.9,0.3,1.4,0.3c0.3,0,0.7,0,1-0.1
					c0.3-0.1,0.6-0.2,0.9-0.4c0.3-0.2,0.5-0.4,0.7-0.7C180.7,627.2,180.8,626.9,180.9,626.5L180.9,626.5z"/>
				<rect x="184.1" y="618.2" class="st17" width="0.3" height="11"/>
				<path class="st17" d="M187.5,621.3h-0.3v7.9h0.3V621.3z M187.5,618.2h-0.3v1.5h0.3V618.2z"/>
				<path class="st17" d="M195.5,623.6h0.3c0-0.9-0.3-1.5-0.8-1.9c-0.5-0.4-1.2-0.6-2.1-0.6c-0.5,0-0.9,0.1-1.2,0.2
					c-0.3,0.1-0.6,0.3-0.8,0.5c-0.2,0.2-0.4,0.4-0.5,0.6c-0.1,0.2-0.1,0.5-0.1,0.7c0,0.4,0.1,0.8,0.2,1c0.2,0.3,0.4,0.5,0.7,0.6
					c0.2,0.1,0.5,0.2,0.8,0.3c0.3,0.1,0.6,0.2,1,0.3c0.3,0.1,0.7,0.2,1,0.2c0.3,0.1,0.6,0.2,0.9,0.3c0.3,0.1,0.5,0.3,0.6,0.5
					c0.2,0.2,0.2,0.5,0.2,0.8c0,0.3-0.1,0.6-0.2,0.9c-0.2,0.2-0.4,0.4-0.6,0.6c-0.2,0.1-0.5,0.3-0.8,0.3c-0.3,0.1-0.6,0.1-0.9,0.1
					c-0.9,0-1.6-0.2-2.1-0.6c-0.5-0.4-0.7-1.1-0.7-2H190c0,1,0.3,1.7,0.8,2.2c0.5,0.5,1.3,0.7,2.4,0.7c0.3,0,0.7,0,1-0.1
					c0.3-0.1,0.6-0.2,0.9-0.4c0.3-0.2,0.5-0.4,0.7-0.7c0.2-0.3,0.3-0.6,0.3-1c0-0.4-0.1-0.7-0.2-0.9c-0.1-0.2-0.3-0.4-0.6-0.6
					c-0.2-0.2-0.5-0.3-0.8-0.4c-0.3-0.1-0.6-0.2-0.9-0.3c-0.4-0.1-0.8-0.2-1.1-0.3c-0.3-0.1-0.6-0.2-0.9-0.3
					c-0.3-0.1-0.5-0.3-0.6-0.5c-0.2-0.2-0.2-0.5-0.2-0.9c0-0.1,0-0.2,0.1-0.4c0-0.2,0.1-0.4,0.3-0.6c0.2-0.2,0.4-0.4,0.7-0.5
					c0.3-0.1,0.8-0.2,1.3-0.2c0.4,0,0.7,0,1,0.1c0.3,0.1,0.6,0.2,0.8,0.4c0.2,0.2,0.4,0.4,0.5,0.7
					C195.4,622.9,195.5,623.2,195.5,623.6z"/>
				<path class="st17" d="M198.6,618.2v11h0.3v-4.5c0-0.4,0.1-0.9,0.2-1.3c0.1-0.4,0.3-0.7,0.5-1.1c0.2-0.3,0.5-0.5,0.9-0.7
					c0.4-0.2,0.8-0.3,1.2-0.3c0.3,0,0.7,0,1,0.1c0.3,0.1,0.6,0.3,0.8,0.5c0.2,0.2,0.4,0.5,0.5,0.8c0.1,0.3,0.2,0.7,0.2,1.2v5.2h0.3
					v-5.2c0-0.5-0.1-0.9-0.2-1.2c-0.1-0.4-0.3-0.6-0.6-0.9c-0.3-0.2-0.5-0.4-0.9-0.5c-0.3-0.1-0.7-0.2-1.1-0.2
					c-0.4,0-0.7,0.1-1.1,0.2c-0.3,0.1-0.6,0.3-0.8,0.5c-0.2,0.2-0.4,0.4-0.6,0.7c-0.2,0.3-0.3,0.5-0.3,0.8h0v-5H198.6z"/>
			</g>
			<g class="st2">
				<text transform="matrix(1.0225 0 0 1 289.0446 630.054)"><tspan x="0" y="0" class="st12 st13 st18">ﺔﻴ</tspan><tspan x="12.9" y="0" class="st12 st13 st18 st19">ﺑ</tspan><tspan x="20.4" y="0" class="st12 st13 st18">ﺮﻌ</tspan><tspan x="34.4" y="0" class="st12 st13 st18 st19">ﻟ</tspan><tspan x="39.8" y="0" class="st12 st13 st18">ا</tspan></text>
			</g>
			<g class="st2">
				<defs>
					<rect id="SVGID_30_" x="-1" y="-1.7" width="490.8" height="785.3"/>
				</defs>
				<clipPath id="SVGID_31_">
					<use xlink:href="#SVGID_30_"  style="overflow:visible;"/>
				</clipPath>
				<path class="st20" d="M291.4,619.7c-0.1,0.1-0.2,0.2-0.2,0.4c0,0.1,0.1,0.3,0.2,0.4s0.2,0.2,0.4,0.2c0.1,0,0.3-0.1,0.4-0.2
					c0.1-0.1,0.2-0.2,0.2-0.4c0-0.1-0.1-0.3-0.2-0.4c-0.1-0.1-0.2-0.2-0.4-0.2C291.6,619.6,291.5,619.6,291.4,619.7z M293.6,619.7
					c-0.1,0.1-0.2,0.2-0.2,0.4c0,0.1,0.1,0.3,0.2,0.4s0.2,0.2,0.4,0.2c0.1,0,0.3-0.1,0.4-0.2c0.1-0.1,0.2-0.2,0.2-0.4
					c0-0.1-0.1-0.3-0.2-0.4c-0.1-0.1-0.2-0.2-0.4-0.2C293.8,619.6,293.7,619.6,293.6,619.7z M296.4,629.6h-2.1
					c-1.9,0.1-3.2-0.9-3.9-3c-0.1-0.3-0.2-0.6-0.2-1.1v-0.4c0-1.3,0.5-2.2,1.5-2.7c0.4-0.1,0.7-0.2,1-0.2c1.2,0,2,0.4,2.4,1.3
					c0.2,0.3,0.4,1.7,0.5,4.3C295.9,628.8,296.1,629.4,296.4,629.6z M292.8,621.8c-1.5,0-2.5,0.8-2.8,2.5l-0.1,1
					c0.1,2,0.9,3.4,2.5,4.3c0.6,0.3,1.3,0.4,2,0.4h4.2v-0.5h-0.8c-0.6,0-1-0.3-1.3-0.8c-0.2-0.6-0.3-2-0.5-4.4c-0.2-0.9-0.5-1.5-1-2
					C294.3,622,293.6,621.8,292.8,621.8z"/>
				<path class="st20" d="M300,622v6.4c0,0.5-0.2,0.9-0.5,1.2h-1.2c-0.1,0-0.1,0-0.1,0.1v0.3c0,0.1,0,0.1,0.1,0.1h1.3
					c0.6-0.3,0.9-1,0.9-2.1V622c0-0.1,0-0.1-0.1-0.1h-0.3C300,621.9,300,621.9,300,622z M300.3,621.9h-0.3c-0.1,0-0.1,0-0.1,0.1v5.9
					c0,1.2,0.3,1.9,0.9,2.1h1.6c0.1,0,0.1,0,0.1-0.1v-0.3c0-0.1,0-0.1-0.1-0.1H301c-0.4-0.2-0.5-0.6-0.5-1.2V622
					C300.4,621.9,300.4,621.9,300.3,621.9z M301.3,631.4c-0.1,0-0.3,0.1-0.4,0.2c-0.1,0.1-0.2,0.2-0.2,0.4c0,0.1,0.1,0.3,0.2,0.4
					c0.1,0.1,0.2,0.2,0.4,0.2c0.1,0,0.3-0.1,0.4-0.2c0.1-0.1,0.2-0.2,0.2-0.4c0-0.1-0.1-0.3-0.2-0.4S301.5,631.4,301.3,631.4z
					 M299.2,631.4c-0.1,0-0.3,0.1-0.4,0.2c-0.1,0.1-0.2,0.2-0.2,0.4c0,0.1,0.1,0.3,0.2,0.4c0.1,0.1,0.2,0.2,0.4,0.2
					c0.1,0,0.3-0.1,0.4-0.2c0.1-0.1,0.2-0.2,0.2-0.4c0-0.1-0.1-0.3-0.2-0.4S299.3,631.4,299.2,631.4z"/>
				<path class="st20" d="M303.6,631.3c-0.1,0-0.3,0-0.4,0.1c-0.1,0.1-0.2,0.2-0.2,0.4c0,0.1,0.1,0.3,0.2,0.4
					c0.1,0.1,0.2,0.1,0.4,0.1c0.1,0,0.3,0,0.4-0.1c0.1-0.1,0.2-0.2,0.2-0.4c0-0.1-0.1-0.3-0.2-0.4
					C303.8,631.4,303.7,631.3,303.6,631.3z M305.8,621.9v6.5c0,0.5-0.2,0.9-0.5,1.2h-3.1c-0.1,0-0.1,0-0.1,0.1v0.3
					c0,0.1,0,0.1,0.1,0.1h3.2c0.6-0.3,0.9-1,0.9-2.1v-6.1c0-0.1,0-0.1-0.1-0.1h-0.3C305.8,621.8,305.8,621.8,305.8,621.9z"/>
				<path class="st20" d="M312,631.7l0.9-1.6h2.3c0.1,0,0.1,0,0.1-0.1v-0.3c0-0.1,0-0.1-0.1-0.1h-2.2c0.2-0.8,0.4-1.5,0.4-2.4v-5.6
					H313v5.9c0,0.6-0.1,1.3-0.4,2.1l-0.2,0.5c-0.5,1-1,1.7-1.8,2.3l0.3,0.3C311.3,632.4,311.7,632.1,312,631.7z"/>
				<path class="st20" d="M318.7,621.9c-1.9,0.8-3,2-3.1,3.9v0.2c0,0.9,0.2,1.6,0.7,2.3c0.8,0.9,1.6,1.3,2.2,1.3v0.1h-3.5
					c-0.1,0-0.1,0-0.1,0.1v0.2c0,0.1,0,0.1,0.1,0.1h9.2c0.1,0,0.1,0,0.1-0.1v-0.2c0-0.1,0-0.1-0.1-0.1h-4c-2.8-0.4-4.2-1.6-4.2-3.7
					c0-0.4,0.1-0.8,0.2-1.2c0.8-1.7,2.1-2.5,3.7-2.5c1.1,0,2,0.3,2.8,1h0.1l0.1-0.4c-0.8-0.7-1.7-1.1-2.6-1.1h-0.6
					C319.5,621.8,319.1,621.8,318.7,621.9z"/>
				<path class="st20" d="M325.9,617.2v11.2c0,0.5-0.2,0.9-0.5,1.2h-1.2c-0.1,0-0.1,0-0.1,0.1v0.3c0,0.1,0,0.1,0.1,0.1h1.3
					c0.6-0.3,0.9-1,0.9-2.1v-10.7c0-0.1,0-0.1-0.1-0.1H326C325.9,617.1,325.9,617.2,325.9,617.2z"/>
				<path class="st20" d="M330.2,617.2V630c0,0.1,0,0.1,0.1,0.1h0.2c0.1,0,0.1,0,0.1-0.1v-12.7c0-0.1,0-0.1-0.1-0.1h-0.2
					C330.2,617.1,330.2,617.2,330.2,617.2z"/>
			</g>
		</g>
	</g>
</g>
</svg>
