<?xml version="1.0" encoding="utf-8"?>
<!-- Generator: Adobe Illustrator 25.0.1, SVG Export Plug-In . SVG Version: 6.00 Build 0)  -->
<svg version="1.1" id="Layer_1" xmlns="http://www.w3.org/2000/svg" xmlns:xlink="http://www.w3.org/1999/xlink" x="0px" y="0px"
	 viewBox="0 0 220.3 220.1" style="enable-background:new 0 0 220.3 220.1;" xml:space="preserve">
<style type="text/css">
	.st0{display:none;opacity:0.81;}
	.st1{fill:url(#SVGID_1_);}
	.st2{opacity:0.18;fill:url(#SVGID_2_);}
	.st3{fill:none;stroke:#0D1B3F;stroke-width:0.3081;stroke-linecap:round;stroke-linejoin:round;stroke-miterlimit:10;}
	.st4{fill:none;stroke:#0D1B3F;stroke-width:1.438;stroke-linecap:round;stroke-linejoin:round;stroke-miterlimit:10;}
	.st5{fill:url(#SVGID_3_);}
</style>
<g>
	<g class="st0">
		
			<image style="display:inline;overflow:visible;" width="1115" height="1114" xlink:href="D65E3340B6467730.png"  transform="matrix(0.24 0 0 0.24 -23.6866 -23.7366)">
		</image>
	</g>
	<linearGradient id="SVGID_1_" gradientUnits="userSpaceOnUse" x1="110.562" y1="110.3547" x2="267.1626" y2="266.9553">
		<stop  offset="0" style="stop-color:#0D1B3F"/>
		<stop  offset="1" style="stop-color:#65CAF3"/>
	</linearGradient>
	<path class="st1" d="M117.4,160.5H103c-23.9,0-43.3-19.4-43.3-43.3v-14.4c0-23.9,19.4-43.3,43.3-43.3h14.4
		c23.9,0,43.3,19.4,43.3,43.3v14.4C160.7,141.1,141.3,160.5,117.4,160.5z"/>
	<linearGradient id="SVGID_2_" gradientUnits="userSpaceOnUse" x1="110.562" y1="110.3547" x2="267.1626" y2="266.9553">
		<stop  offset="0" style="stop-color:#0D1B3F"/>
		<stop  offset="1" style="stop-color:#FFFFFF"/>
	</linearGradient>
	<path class="st2" d="M117.4,160.5H103c-23.9,0-43.3-19.4-43.3-43.3v-14.4c0-23.9,19.4-43.3,43.3-43.3h14.4
		c23.9,0,43.3,19.4,43.3,43.3v14.4C160.7,141.1,141.3,160.5,117.4,160.5z"/>
	<g>
		
			<image style="overflow:visible;" width="918" height="917" xlink:href="D65E3340B6467731.png"  transform="matrix(0.24 0 0 0.24 0 0)">
		</image>
	</g>
	<path class="st3" d="M117.4,160.5H103c-23.9,0-43.3-19.4-43.3-43.3v-14.4c0-23.9,19.4-43.3,43.3-43.3h14.4
		c23.9,0,43.3,19.4,43.3,43.3v14.4C160.7,141.1,141.3,160.5,117.4,160.5z"/>
	<path class="st4" d="M117.4,160.5H103c-23.9,0-43.3-19.4-43.3-43.3v-14.4c0-23.9,19.4-43.3,43.3-43.3h14.4
		c23.9,0,43.3,19.4,43.3,43.3v14.4C160.7,141.1,141.3,160.5,117.4,160.5z"/>
</g>
<linearGradient id="SVGID_3_" gradientUnits="userSpaceOnUse" x1="93.7374" y1="134.8147" x2="132.9285" y2="95.6236">
	<stop  offset="0" style="stop-color:#AD834C"/>
	<stop  offset="1" style="stop-color:#ECCB84"/>
</linearGradient>
<path class="st5" d="M134.3,110.5l-6-6.1c0.3-0.4,0.5-0.9,0.5-1.4V92.4c0-1.2-0.9-2.1-2.1-2.1h-4c-1.2,0-2.1,0.9-2.1,2.1v4.2
	l-9.1-9.2c0,0,0,0,0,0l-0.7-0.7c-0.4-0.4-1.2-0.4-1.6,0l-14.4,14.6l-2.9,3c0,0,0,0,0,0l-5.9,6c-0.4,0.4-0.4,1.1,0,1.6
	c0.4,0.4,1.1,0.4,1.6,0l3.7-3.7v23.4c0,1.2,0.9,2.1,2.1,2.1h9.7c1.2,0,2.1-0.9,2.1-2.1v-17.7h9.7v17.7c0,1.2,0.9,2.1,2.1,2.1h9.7
	c1.2,0,2.1-0.9,2.1-2.1v-23.4l3.9,4c0.2,0.2,0.5,0.3,0.8,0.3c0.3,0,0.6-0.1,0.8-0.3C134.7,111.6,134.7,110.9,134.3,110.5z
	 M122.9,92.5h3.7v10.1l-2.7-2.8l-1-1V92.5z M126.6,131.4h-9.5v-17.7c0-1.2-0.9-2.1-2.1-2.1h-9.9c-1.2,0-2.1,0.9-2.1,2.1v17.7h-9.5
	v-25.6L110.1,89l11.2,11.4c0,0,0,0,0,0c0,0,0,0,0,0l0.5,0.5l4.8,4.9V131.4z"/>
</svg>
