<?xml version="1.0" encoding="utf-8"?>
<!-- Generator: Adobe Illustrator 25.0.1, SVG Export Plug-In . SVG Version: 6.00 Build 0)  -->
<svg version="1.1" id="Layer_1" xmlns="http://www.w3.org/2000/svg" xmlns:xlink="http://www.w3.org/1999/xlink" x="0px" y="0px"
	 viewBox="0 0 490.8 785.3" style="enable-background:new 0 0 490.8 785.3;" xml:space="preserve">
<style type="text/css">
	.st0{clip-path:url(#SVGID_2_);}
	.st1{clip-path:url(#SVGID_4_);}
	.st2{clip-path:url(#SVGID_6_);fill:#0D1A3E;}
	.st3{clip-path:url(#SVGID_6_);}
	.st4{opacity:0.5;clip-path:url(#SVGID_12_);}
	.st5{clip-path:url(#SVGID_14_);}
	.st6{clip-path:url(#SVGID_12_);}
	.st7{clip-path:url(#SVGID_18_);}
	.st8{clip-path:url(#SVGID_20_);fill:url(#SVGID_21_);}
	.st9{clip-path:url(#SVGID_12_);fill:#EACB4E;}
	.st10{clip-path:url(#SVGID_23_);}
	.st11{clip-path:url(#SVGID_25_);}
	.st12{clip-path:url(#SVGID_27_);}
	.st13{fill:#EACB4E;}
	.st14{font-family:'Elegant-ar';}
	.st15{font-size:15.3375px;}
	.st16{letter-spacing:1;}
	.st17{clip-path:url(#SVGID_6_);fill:none;stroke:#EACB4E;stroke-width:0.6135;stroke-miterlimit:10;}
	.st18{clip-path:url(#SVGID_31_);fill:none;stroke:#EACB4E;stroke-width:0.6135;stroke-miterlimit:10;}
	.st19{font-size:12.8835px;}
	.st20{letter-spacing:2;}
	.st21{clip-path:url(#SVGID_33_);fill:none;stroke:#EACB4E;stroke-width:0.6135;stroke-miterlimit:10;}
</style>
<g>
	<defs>
		<path id="SVGID_1_" d="M16.1,784h458.5c8.5,0,15.5-7,15.5-15.5V16.5c0-8.6-7-15.5-15.5-15.5H16.1C7.6,1,0.6,8,0.6,16.5v751.9
			C0.6,777.1,7.6,784,16.1,784z"/>
	</defs>
	<clipPath id="SVGID_2_">
		<use xlink:href="#SVGID_1_"  style="overflow:visible;"/>
	</clipPath>
	<g class="st0">
		<g>
			<defs>
				<rect id="SVGID_3_" x="0" y="0" width="490.8" height="785.3"/>
			</defs>
			<clipPath id="SVGID_4_">
				<use xlink:href="#SVGID_3_"  style="overflow:visible;"/>
			</clipPath>
			<g class="st1">
				<defs>
					<rect id="SVGID_5_" x="0" y="0" width="490.8" height="785.3"/>
				</defs>
				<clipPath id="SVGID_6_">
					<use xlink:href="#SVGID_5_"  style="overflow:visible;"/>
				</clipPath>
				<rect x="0" y="0" class="st2" width="490.8" height="785.3"/>
				<g class="st3">
					<defs>
						<rect id="SVGID_7_" x="247.7" y="585.2" width="126.8" height="83.7"/>
					</defs>
					<clipPath id="SVGID_8_">
						<use xlink:href="#SVGID_7_"  style="overflow:visible;"/>
					</clipPath>
					<g style="clip-path:url(#SVGID_8_);">
						
							<image style="overflow:visible;" width="10738" height="7087" xlink:href="374B173F071F0EB6.png"  transform="matrix(1.180603e-02 0 0 1.180603e-02 247.7164 585.2059)">
						</image>
					</g>
				</g>
				<g class="st3">
					<defs>
						<rect id="SVGID_9_" x="118.9" y="585.2" width="126.8" height="83.7"/>
					</defs>
					<clipPath id="SVGID_10_">
						<use xlink:href="#SVGID_9_"  style="overflow:visible;"/>
					</clipPath>
					<g transform="matrix(1 0 0 1 -7.629395e-06 0)" style="clip-path:url(#SVGID_10_);">
						
							<image style="overflow:visible;" width="10738" height="7087" xlink:href="374B173F071F0EBA.png"  transform="matrix(1.180603e-02 0 0 1.180603e-02 118.8824 585.2059)">
						</image>
					</g>
				</g>
				<g class="st3">
					<defs>
						<rect id="SVGID_11_" x="0" y="0" width="490.8" height="785.3"/>
					</defs>
					<clipPath id="SVGID_12_">
						<use xlink:href="#SVGID_11_"  style="overflow:visible;"/>
					</clipPath>
					<g class="st4">
						<g>
							<defs>
								<rect id="SVGID_13_" x="0" y="0" width="490.8" height="785.3"/>
							</defs>
							<clipPath id="SVGID_14_">
								<use xlink:href="#SVGID_13_"  style="overflow:visible;"/>
							</clipPath>
							<g class="st5">
								<defs>
									<rect id="SVGID_15_" x="0" y="0" width="490.8" height="785.3"/>
								</defs>
								<clipPath id="SVGID_16_">
									<use xlink:href="#SVGID_15_"  style="overflow:visible;"/>
								</clipPath>
								<g style="clip-path:url(#SVGID_16_);">
									
										<image style="overflow:visible;" width="1000" height="667" xlink:href="374B173F071F0EBA.jpg"  transform="matrix(0.4908 0 0 1.1773 0 0)">
									</image>
								</g>
							</g>
						</g>
					</g>
					<g class="st6">
						<g>
							<defs>
								<rect id="SVGID_17_" x="0" y="0" width="46" height="785.3"/>
							</defs>
							<clipPath id="SVGID_18_">
								<use xlink:href="#SVGID_17_"  style="overflow:visible;"/>
							</clipPath>
							<g class="st7">
								<defs>
									<rect id="SVGID_19_" x="0" y="0" width="46" height="785.3"/>
								</defs>
								<clipPath id="SVGID_20_">
									<use xlink:href="#SVGID_19_"  style="overflow:visible;"/>
								</clipPath>
								
									<linearGradient id="SVGID_21_" gradientUnits="userSpaceOnUse" x1="-19.595" y1="-32.992" x2="-19.2882" y2="-32.992" gradientTransform="matrix(150 0 0 -150 2939.2485 -4556.1533)">
									<stop  offset="0" style="stop-color:#4D4D4E"/>
									<stop  offset="1" style="stop-color:#FFFFFF"/>
								</linearGradient>
								<rect x="0" y="0" class="st8" width="46" height="785.3"/>
							</g>
						</g>
					</g>
					<path class="st9" d="M139.7,408.4c1-0.4,1.8-1,2.6-1.7c0.7-0.7,1.3-1.6,1.7-2.6c0.4-1,0.6-2,0.6-3.1c0-0.9-0.1-1.8-0.4-2.6
						c-0.3-0.8-0.7-1.6-1.2-2.2c-0.5-0.7-1.1-1.2-1.8-1.7c-0.6-0.4-1.2-0.7-1.9-1c0.3-0.2,0.6-0.5,0.8-0.7c0.7-0.6,1.2-1.4,1.5-2.2
						c0.3-0.8,0.5-1.7,0.5-2.7c0-0.9-0.2-1.8-0.5-2.7c-0.3-0.8-0.8-1.6-1.5-2.2c-1.4-1.4-3-2-4.9-2h-11.6v0.7h0.4
						c0.2,0,0.3,0.1,0.3,0.3V408c0,0.2-0.1,0.3-0.3,0.3h-0.4v0.7h12.9C137.7,409,138.7,408.8,139.7,408.4 M137,386.9v1.7
						c0,2-0.3,3.4-0.9,4.2c-0.6,0.8-1.3,1.2-2.3,1.2h-3.4v-12.1c0-0.2,0.1-0.3,0.3-0.3h3.1c1,0,1.7,0.4,2.3,1.2
						C136.7,383.5,137,385,137,386.9 M130.4,394.7h3.9c1.1,0,1.9,0.4,2.6,1.3c0.6,0.9,1,2.4,1,4.6v1.8c0,2.2-0.3,3.7-1,4.6
						c-0.6,0.9-1.5,1.3-2.6,1.3h-3.5c-0.3,0-0.3-0.1-0.3-0.3V394.7z"/>
					<path class="st9" d="M156.8,409c1.2,0,2.3-0.2,3.3-0.7c1-0.4,2-1.1,2.8-1.9l0.1-0.1l-0.5-0.5l-0.1,0.1
						c-0.8,0.8-1.6,1.4-2.6,1.7c-1,0.4-2,0.6-3,0.6c-0.3,0-0.5,0-0.8-0.1c-0.2-0.1-0.4-0.2-0.6-0.4c-0.4-0.4-0.7-1.1-0.8-1.9
						c-0.1-0.9-0.2-1.9-0.2-3.1v-1.2c0-0.2,0.1-0.2,0.1-0.2h10.9v-1c0-1.2-0.2-2.3-0.6-3.3c-0.4-1.1-1.1-2-1.9-2.8
						c-0.8-0.8-1.7-1.4-2.8-1.9c-1-0.4-2.2-0.6-3.3-0.6c-2.4,0-4.4,0.8-6.1,2.5c-0.8,0.8-1.4,1.8-1.9,2.8c-0.4,1-0.6,2.2-0.6,3.3
						c0,1.1,0.2,2.2,0.6,3.3c0.4,1.1,1.1,2,1.9,2.8c0.8,0.8,1.8,1.4,2.8,1.9C154.5,408.8,155.6,409,156.8,409 M159,394.8
						c0.1,0.8,0.2,1.8,0.2,3v2.8c0,0.1,0,0.1-0.1,0.1h-4.5c-0.1,0-0.1,0-0.1-0.1c0-0.1,0-0.3,0-0.4c0-0.1,0-0.3,0-0.4l0-0.4
						c0-1.5,0-2.8,0.1-4c0.1-1.1,0.4-1.9,0.9-2.4c0.2-0.2,0.4-0.3,0.6-0.4c0.3-0.1,0.5-0.1,0.8-0.1c0.3,0,0.5,0,0.8,0.1
						c0.2,0.1,0.4,0.2,0.6,0.4C158.6,393.4,158.9,394,159,394.8"/>
					<path class="st9" d="M158.5,388.2c0.4,0.4,0.7,0.8,0.9,1.2l0.1,0.2l0.7-0.3l-0.1-0.2c-0.2-0.4-0.5-0.8-0.9-1.3
						c-0.4-0.5-0.9-0.9-1.4-1.3c-0.5-0.4-1-0.7-1.6-1c-0.6-0.3-1.2-0.4-1.7-0.4c-0.5,0-0.9,0.2-1.3,0.5c-0.4,0.4-0.5,0.8-0.5,1.3
						c0,0.5,0.2,0.9,0.5,1.3c0.4,0.3,0.8,0.5,1.3,0.5c0.5,0,0.9-0.2,1.3-0.5c0.3-0.3,0.5-0.8,0.5-1.3c0-0.2,0-0.5-0.1-0.7
						c0.4,0.2,0.8,0.4,1.2,0.8C157.7,387.4,158.1,387.8,158.5,388.2"/>
					<path class="st9" d="M177.5,408.2c-0.1,0.1-0.3,0.2-0.4,0.2h-0.2v0.6h7.7v-0.6h-0.2c-0.2,0-0.3-0.1-0.4-0.2
						c-0.1-0.1-0.2-0.3-0.2-0.5v-11.4c0-0.8-0.1-1.5-0.4-2.1c-0.2-0.6-0.6-1.1-1-1.4c-0.4-0.4-0.9-0.7-1.4-0.8
						c-1.3-0.4-2.8-0.3-4.3,0.2c-0.7,0.2-1.4,0.5-2,0.8c0-0.4-0.1-0.7-0.4-0.9c-0.3-0.3-0.6-0.4-0.9-0.4h-5.4v0.7h0.4
						c0.2,0,0.3,0.1,0.3,0.3V408c0,0.2-0.1,0.3-0.3,0.3h-0.4v0.7h7.5v-0.7h-0.4c-0.3,0-0.3-0.1-0.3-0.3v-13.9c0-0.2,0.1-0.4,0.3-0.5
						l0.6-0.2c0.4-0.1,0.8-0.1,1.1-0.1c0.4,0.1,0.6,0.3,0.9,0.7c0.2,0.3,0.4,0.8,0.4,1.6v12.1C177.8,407.9,177.7,408.1,177.5,408.2"
						/>
					<path class="st9" d="M187.3,402.8v0.2c0,0.8,0.2,1.6,0.5,2.3c0.3,0.7,0.7,1.4,1.3,1.9c0.5,0.5,1.2,1,1.9,1.3
						c0.7,0.3,1.5,0.5,2.3,0.5c0.8,0,1.6-0.2,2.3-0.5c0.7-0.3,1.4-0.7,1.9-1.3c0.5-0.5,1-1.2,1.3-1.9c0.3-0.7,0.5-1.5,0.5-2.3
						c0-1.2-0.3-2.2-0.9-3.2c-0.6-0.9-1.4-1.7-2.3-2.2l-4.8-2.5c-0.5-0.2-0.7-0.6-0.7-1.1c0-0.5,0.2-0.9,0.7-1.1
						c0.6-0.3,1.3-0.5,2.1-0.5c0.7,0,1.4,0.1,2,0.4c0.6,0.3,1.1,0.7,1.5,1.2c0.2,0.3,0.3,0.6,0.3,0.9v1.7h0.7v-4.5H197v1.2v0
						c-0.5-0.5-1-0.9-1.7-1.2c-1.3-0.6-2.8-0.6-4.1,0c-0.6,0.3-1.2,0.7-1.7,1.1c-0.5,0.5-0.9,1-1.1,1.7c-0.3,0.6-0.4,1.3-0.4,2.1
						c0,1,0.2,1.9,0.7,2.7c0.5,0.8,1.1,1.5,1.9,1.9l6,3.1c0.5,0.2,0.7,0.6,0.7,1.1c0,0.4-0.1,0.7-0.4,0.9c-0.5,0.5-1,0.9-1.7,1.1
						c-0.6,0.3-1.3,0.4-2,0.4c-0.7,0-1.4-0.1-2.1-0.4c-0.6-0.3-1.2-0.7-1.7-1.1c-0.5-0.5-0.8-1-1.1-1.7c-0.3-0.6-0.4-1.3-0.4-2.1
						v-0.2H187.3z"/>
					<path class="st9" d="M216.4,394.3c-0.8-0.8-1.8-1.4-2.8-1.9c-2.1-0.9-4.5-0.9-6.6,0c-1.1,0.4-2,1.1-2.8,1.9
						c-0.8,0.8-1.4,1.8-1.9,2.8c-0.4,1-0.6,2.2-0.6,3.3c0,1.1,0.2,2.2,0.6,3.3c0.4,1.1,1.1,2,1.9,2.8c0.8,0.8,1.8,1.4,2.8,1.9
						c1,0.4,2.2,0.6,3.3,0.6c1.2,0,2.3-0.2,3.3-0.6c1.1-0.4,2-1.1,2.8-1.9c0.8-0.8,1.4-1.7,1.9-2.8c0.4-1.1,0.6-2.2,0.6-3.3
						c0-1.2-0.2-2.3-0.6-3.3C217.9,396,217.2,395.1,216.4,394.3 M207.9,401.4v-2c0-1.5,0-2.8,0.1-4c0.1-1.1,0.4-1.9,0.9-2.5
						c0.4-0.3,0.8-0.5,1.4-0.5c0.6,0,1,0.2,1.4,0.5c0.5,0.5,0.8,1.3,0.9,2.5c0.1,1.2,0.1,2.5,0.1,4l0,2c0,1.5,0,2.8-0.1,4
						c-0.1,1.1-0.4,1.9-0.9,2.4c-0.4,0.3-0.8,0.5-1.4,0.5c-0.6,0-1-0.2-1.4-0.5c-0.5-0.5-0.8-1.3-0.9-2.4
						C207.9,404.2,207.9,402.9,207.9,401.4"/>
					<path class="st9" d="M237.1,404.7c0-0.8-0.3-1.5-0.9-2.1c-0.6-0.6-1.3-0.9-2.1-0.9c-0.8,0-1.5,0.3-2.1,0.9
						c-0.6,0.6-0.9,1.3-0.9,2.1c0,0.6,0.2,1.2,0.6,1.7c0.4,0.5,0.9,1,1.5,1.3c0.6,0.4,1.3,0.7,2.1,0.9c0.8,0.2,1.6,0.3,2.5,0.3
						c1.2,0,2.3-0.2,3.3-0.6c1-0.4,2-1.1,2.8-1.9c0.8-0.8,1.4-1.8,1.9-2.8c0.4-1.1,0.7-2.2,0.7-3.3l0-18.4c0-0.1,0-0.2,0.1-0.3
						c0.1-0.1,0.2-0.1,0.3-0.1h0.5v-0.7h-7.9v0.7h0.5c0.1,0,0.2,0,0.3,0.1c0.1,0.1,0.1,0.2,0.1,0.3v20.1c0,1.3-0.1,2.5-0.2,3.5
						c-0.1,1-0.4,1.7-0.9,2.1c-0.3,0.3-0.7,0.5-1.2,0.5h-0.5c-0.6,0-1.2-0.1-1.9-0.2c-0.5-0.1-1-0.2-1.5-0.5
						c0.8-0.1,1.4-0.4,1.9-0.9C236.8,406.1,237.1,405.4,237.1,404.7"/>
					<path class="st9" d="M269,394.8h0.4v-0.7l-0.2,0c-1.3-0.2-2.4-0.5-3.4-0.9c-0.9-0.3-1.8-0.8-2.6-1.4l-0.1,0h-0.6v1.3
						c-0.1-0.1-0.3-0.2-0.5-0.3c-0.3-0.2-0.6-0.3-1-0.5c-0.4-0.2-0.9-0.3-1.4-0.4c-0.5-0.1-1.1-0.2-1.7-0.2c-1.1,0-2.1,0.2-3,0.6
						c-0.9,0.4-1.7,1-2.4,1.8c-0.7,0.8-1.2,1.7-1.5,2.8c-0.2,0.5-0.3,1.1-0.4,1.6c-0.1,0.5-0.1,1.1-0.1,1.8c0,0.7,0,1.3,0.1,1.9
						c0.1,0.6,0.3,1.1,0.5,1.7c0.4,1.1,1,2.1,1.7,2.8c0.7,0.8,1.6,1.4,2.6,1.7c0.9,0.4,1.8,0.5,2.9,0.5c0.1,0,0.3,0,0.4,0
						c0.5,0,0.9-0.1,1.3-0.2c0.4-0.1,0.8-0.3,1.1-0.5c0.5-0.3,1-0.6,1.4-1v0.3c0,0.3,0.1,0.7,0.4,0.9c0.3,0.3,0.6,0.4,0.9,0.4h5.4
						v-0.7H269c-0.2,0-0.3-0.1-0.3-0.3v-12.9C268.7,394.8,268.8,394.8,269,394.8 M258.1,406.2c-0.3-0.6-0.5-1.4-0.7-2.3
						c-0.1-0.9-0.2-2.1-0.2-3.5c0-0.7,0.1-1.3,0.1-1.8c0-0.5,0.1-1,0.2-1.4c0.2-1,0.5-1.7,0.7-2.3c0.2-0.5,0.6-0.9,1-1.2
						c0.4-0.2,0.8-0.4,1.2-0.4c0.1,0,0.2,0,0.2,0c0.4,0,0.7,0.1,1,0.2c0.3,0.1,0.6,0.2,0.7,0.3c0.2,0.1,0.3,0.2,0.3,0.3
						c0,0.1,0.1,0.3,0.1,0.5v11.4c0,0.3-0.1,0.7-0.4,1c-0.2,0.2-0.5,0.4-0.7,0.6c-0.4,0.2-0.8,0.4-1.2,0.4
						C259.4,408,258.7,407.4,258.1,406.2"/>
					<path class="st9" d="M281.3,407.1c-0.2,0.1-0.3,0.2-0.5,0.2c-0.3,0.1-0.6,0.1-0.8,0.1c-0.3-0.1-0.5-0.3-0.6-0.7
						c-0.2-0.4-0.3-1-0.3-1.7v-12.2c0-0.2,0.1-0.3,0.3-0.3h2.4v-0.7h-2.4c-0.3,0-0.3-0.1-0.3-0.3v-4h-0.6l-0.1,0
						c-0.7,0.6-1.6,1-2.5,1.4c-0.9,0.4-2.1,0.7-3.4,0.9l-0.2,0v0.7h0.4c0.2,0,0.3,0.1,0.3,0.3v13.5c0,0.8,0.1,1.6,0.4,2.1
						c0.2,0.6,0.6,1.1,1,1.5c0.4,0.4,0.9,0.7,1.5,0.8c0.6,0.2,1.2,0.2,1.8,0.2c0.8,0,1.6-0.2,2.4-0.5c0.4-0.2,0.7-0.3,1-0.5
						c0.3-0.2,0.6-0.4,0.9-0.5l0.1-0.1l0.1-0.8l-0.4,0.2C281.6,406.9,281.5,407,281.3,407.1"/>
					<path class="st9" d="M288.4,389.5c0.8,0,1.5-0.3,2.1-0.9c0.6-0.6,0.9-1.3,0.9-2.1c0-0.8-0.3-1.5-0.9-2.1
						c-0.6-0.6-1.3-0.9-2.1-0.9c-0.8,0-1.5,0.3-2.1,0.9c-0.6,0.6-0.9,1.3-0.9,2.1c0,0.8,0.3,1.5,0.9,2.1
						C286.9,389.2,287.6,389.5,288.4,389.5"/>
					<path class="st9" d="M291.4,408v-14.9c0-0.4-0.1-0.7-0.4-0.9c-0.3-0.3-0.6-0.4-0.9-0.4h-5.4v0.7h0.4c0.2,0,0.3,0.1,0.3,0.3V408
						c0,0.2-0.1,0.3-0.3,0.3h-0.4v0.7h7.5v-0.7h-0.4C291.5,408.3,291.4,408.2,291.4,408"/>
					<path class="st9" d="M300.7,425.4c1,0.4,2.2,0.6,3.3,0.6c1.1,0,2.2-0.2,3.3-0.6c1-0.4,2-1.1,2.8-1.9c0.8-0.8,1.4-1.7,1.9-2.8
						c0.4-1,0.7-2.2,0.7-3.3c0-1.4-0.3-2.5-1-3.4c-0.7-0.9-1.5-1.6-2.6-2.2c-1-0.6-2.2-1-3.4-1.4c-1.2-0.3-2.4-0.7-3.5-1
						c-1.1-0.3-2.1-0.7-2.9-1c-0.8-0.3-1.3-0.8-1.6-1.3c-0.1-0.3-0.2-0.6-0.1-0.8c0.8,0.9,1.8,1.6,2.8,2c2.2,1,4.7,1,6.8,0.1
						c1-0.4,2-1.1,2.8-1.9c0.8-0.8,1.4-1.7,1.9-2.8c0.4-1.1,0.6-2.2,0.6-3.3v-4.2c0-0.2,0.1-0.3,0.3-0.3h0.5v-0.7l-0.2,0
						c-1.2-0.1-2.4-0.5-3.4-1.1c-1-0.6-1.9-1.3-2.5-2.3l-0.1-0.1h-0.6v0.4c-0.8-0.3-1.7-0.4-2.6-0.4c-1.2,0-2.3,0.2-3.3,0.6
						c-1.1,0.4-2,1.1-2.8,1.9c-0.8,0.8-1.4,1.8-1.9,2.8c-0.4,1-0.6,2.2-0.6,3.3c0,0.9,0.2,1.9,0.5,2.8c0.3,0.8,0.7,1.6,1.2,2.3
						c-0.4,0.3-0.8,0.8-1.1,1.3c-0.4,0.6-0.6,1.4-0.6,2.4c0,1.1,0.3,2,0.9,2.7c0.6,0.7,1.3,1.3,2.2,1.7c0.9,0.5,1.9,0.8,3,1.2
						c1.1,0.3,2.2,0.6,3.3,1c1.1,0.3,2.1,0.7,3.1,1.1c0.9,0.4,1.7,0.9,2.4,1.5l0,0c0.2,0.3,0.4,0.6,0.6,0.9c0.1,0.3,0.2,0.7,0.2,1.1
						c0,0.7-0.2,1.4-0.7,1.9c-0.7,0.9-1.7,1.6-2.7,2.2c-1.1,0.5-2.2,0.8-3.4,0.8c-1.2,0-2.4-0.3-3.4-0.8c-0.8-0.4-1.5-0.9-2.1-1.4
						c0.2,0,0.4,0.1,0.6,0.1c0.8,0,1.5-0.3,2.1-0.9c0.6-0.6,0.9-1.3,0.9-2.1c0-0.8-0.3-1.5-0.9-2.1c-0.6-0.6-1.3-0.9-2.1-0.9
						c-0.8,0-1.5,0.3-2.1,0.9c-0.6,0.6-0.9,1.3-0.9,2.1c0,0.5,0.1,1,0.4,1.5c0.2,0.3,0.4,0.6,0.6,0.9c0.2,0.3,0.5,0.6,0.8,0.9
						C298.7,424.3,299.6,425,300.7,425.4 M306.3,399.4v2c0,1.5,0,2.8-0.1,4c-0.1,1.1-0.4,1.9-0.9,2.4c-0.4,0.3-0.8,0.5-1.4,0.5
						c-0.6,0-1-0.2-1.4-0.5c-0.5-0.5-0.8-1.3-0.9-2.4c-0.1-1.2-0.1-2.5-0.1-4v-2c0-1.5,0-2.8,0.1-4c0.1-1.1,0.4-1.9,0.9-2.4
						c0.4-0.4,0.8-0.5,1.4-0.5c0.6,0,1,0.2,1.4,0.5c0.5,0.5,0.8,1.3,0.9,2.4C306.3,396.6,306.4,397.9,306.3,399.4"/>
					<path class="st9" d="M316.6,408.3h-0.4v0.7h7.5v-0.7h-0.4c-0.3,0-0.3-0.1-0.3-0.3v-16.2h-0.6l-0.1,0.1
						c-0.7,0.9-1.5,1.7-2.5,2.3c-1,0.6-2.1,0.9-3.3,1.1l-0.2,0v0.7h0.4c0.2,0,0.3,0.1,0.3,0.3V408
						C316.9,408.2,316.8,408.3,316.6,408.3"/>
					<path class="st9" d="M322,387.3c0.6-0.6,0.9-1.3,0.9-2.1c0-0.8-0.3-1.5-0.9-2.1c-0.6-0.6-1.3-0.9-2.1-0.9
						c-0.8,0-1.5,0.3-2.1,0.9c-0.6,0.6-0.9,1.3-0.9,2.1c0,0.8,0.3,1.5,0.9,2.1c0.6,0.6,1.3,0.9,2.1,0.9
						C320.7,388.1,321.4,387.8,322,387.3"/>
					<path class="st9" d="M330,423.5c1.7,1.7,3.7,2.5,6.1,2.5c1.2,0,2.3-0.2,3.3-0.6c1-0.4,2-1.1,2.8-1.9c0.8-0.8,1.4-1.7,1.9-2.8
						c0.4-1,0.6-2.2,0.6-3.3c0-1.4-0.3-2.5-1-3.4c-0.7-0.9-1.5-1.6-2.6-2.2c-1-0.6-2.2-1-3.4-1.4c-1.2-0.3-2.4-0.7-3.5-1
						c-1.1-0.3-2.1-0.7-2.9-1c-0.8-0.3-1.3-0.8-1.6-1.3c-0.1-0.3-0.1-0.5,0-0.8c0.9,0.9,1.9,1.6,2.9,2c1.1,0.5,2.2,0.8,3.4,0.8
						c1.2,0,2.3-0.2,3.3-0.6c1-0.4,2-1.1,2.8-1.9c0.8-0.8,1.4-1.7,1.9-2.8c0.4-1.1,0.6-2.2,0.6-3.3v-7.6c0-0.2,0.1-0.3,0.3-0.3h0.4
						v-0.7h-7.8v0.7h0.5c0.2,0,0.3,0.1,0.3,0.3v8.6c0,1.5,0,2.8-0.1,4c-0.1,1.1-0.4,2-0.9,2.4c-0.3,0.3-0.8,0.5-1.4,0.5
						c-0.6,0-1.1-0.2-1.4-0.5c-0.2-0.2-0.4-0.6-0.6-1c-0.1-0.4-0.2-0.9-0.3-1.5c-0.1-0.6-0.1-1.2-0.1-1.8c0-0.7,0-1.4,0-2.1v-8.6
						c0-0.2,0.1-0.3,0.3-0.3h0.5v-0.7h-7.8v0.7h0.4c0.2,0,0.3,0.1,0.3,0.3v7.6c0,1.9,0.6,3.6,1.7,5.1c-0.4,0.3-0.8,0.8-1.2,1.3
						c-0.4,0.6-0.7,1.4-0.7,2.4c0,1.1,0.3,2,0.9,2.7c0.6,0.7,1.3,1.3,2.2,1.7c0.9,0.5,1.9,0.8,3,1.2c1.1,0.3,2.2,0.6,3.3,0.9
						c1.1,0.3,2.1,0.7,3.1,1.1c0.9,0.4,1.7,0.9,2.3,1.5v0l0.1,0.1c0.5,0.6,0.8,1.3,0.8,2.1c0,0.8-0.2,1.4-0.7,1.9
						c-0.7,0.9-1.6,1.6-2.7,2.2c-1.1,0.5-2.2,0.8-3.5,0.8c-1.2,0-2.4-0.3-3.4-0.8c-0.8-0.4-1.5-0.9-2-1.4c0.2,0,0.4,0.1,0.5,0.1
						c0.8,0,1.5-0.3,2.1-0.9c0.6-0.6,0.9-1.3,0.9-2.1c0-0.8-0.3-1.5-0.9-2.1c-0.6-0.6-1.3-0.9-2.1-0.9c-0.8,0-1.5,0.3-2.1,0.9
						c-0.6,0.6-0.9,1.3-0.9,2.1c0,0.5,0.1,1,0.4,1.5c0.2,0.3,0.4,0.6,0.6,0.9C329.4,422.9,329.7,423.2,330,423.5"/>
					<path class="st9" d="M358.6,408.3c0.5-0.3,1-0.6,1.4-1v0.3c0,0.3,0.1,0.7,0.4,0.9c0.3,0.3,0.6,0.4,0.9,0.4h5.4v-0.7h-0.4
						c-0.2,0-0.3-0.1-0.3-0.3v-15.2c0-0.2,0.1-0.3,0.3-0.3h0.4v-0.7h-5.4c-0.3,0-0.7,0.1-0.9,0.4c-0.3,0.3-0.4,0.6-0.4,0.9v0.1
						c-0.1-0.1-0.3-0.2-0.5-0.3c-0.3-0.2-0.6-0.3-1-0.5c-0.4-0.2-0.9-0.3-1.4-0.4c-0.5-0.1-1.1-0.2-1.7-0.2c-1.1,0-2.1,0.2-3,0.6
						c-0.9,0.4-1.7,1-2.4,1.8c-0.7,0.8-1.2,1.7-1.5,2.8c-0.2,0.5-0.3,1.1-0.4,1.6c-0.1,0.5-0.1,1.1-0.1,1.8c0,0.7,0,1.3,0.1,1.9
						c0.1,0.6,0.3,1.1,0.5,1.7c0.4,1.1,1,2.1,1.7,2.8c0.7,0.8,1.6,1.4,2.6,1.7c0.9,0.4,1.8,0.5,2.9,0.5c0.1,0,0.3,0,0.4,0
						c0.5,0,0.9-0.1,1.3-0.2C357.9,408.7,358.3,408.5,358.6,408.3 M360,393.9c0,0.1,0.1,0.3,0.1,0.5v11.4c0,0.3-0.1,0.7-0.4,1
						c-0.2,0.2-0.5,0.4-0.7,0.6c-0.4,0.2-0.8,0.4-1.2,0.4c-1,0.1-1.7-0.4-2.3-1.7c-0.3-0.6-0.5-1.4-0.7-2.3
						c-0.1-0.9-0.2-2.1-0.2-3.5c0-0.7,0.1-1.3,0.1-1.8c0-0.5,0.1-1,0.2-1.4c0.2-1,0.5-1.7,0.7-2.3c0.2-0.5,0.6-0.9,1-1.2
						c0.4-0.2,0.8-0.4,1.2-0.4c0.1,0,0.2,0,0.2,0c0.4,0,0.7,0.1,1,0.2c0.3,0.1,0.6,0.2,0.7,0.3C359.8,393.7,359.9,393.8,360,393.9"
						/>
					<path class="st9" d="M126,448.2h0.4l0,0c1.6-1.1,2.6-2.1,3-2.9c0.3,0.3,0.7,0.6,1.1,1c0.4,0.4,0.8,0.8,1.3,1.2l0,0h0.4l0,0
						c2.1-1.5,3.1-2.7,3.1-3.7c0-0.5-0.3-1.1-0.8-1.6c-0.5-0.5-1.3-1.1-2.3-1.7l0,0h-0.3l0,0c-0.2,0.1-0.4,0.3-0.7,0.6
						c-0.3,0.3-0.7,0.7-1.1,1.1c-0.3,0.4-0.7,0.7-0.9,1.1c-0.2-0.3-0.6-0.7-1-1c-0.5-0.3-1-0.7-1.6-1.1l0,0h-0.4l0,0
						c-0.2,0.1-0.5,0.4-1,0.9c-0.4,0.5-0.9,1-1.3,1.5c-0.5,0.5-0.8,1-1.1,1.3l0,0v0.4l0,0c0.5,0.4,1,0.9,1.6,1.3
						C124.8,447.1,125.4,447.6,126,448.2L126,448.2z"/>
					<path class="st9" d="M142.1,425.7L142.1,425.7l-0.4,0l0,0c-0.2,0.1-0.5,0.4-1,0.9c-0.5,0.5-0.9,1-1.4,1.5c-0.5,0.5-0.8,1-1,1.3
						l0,0v0.4l0,0c1.1,0.8,2.1,1.8,3.2,2.9l0,0h0.3l0,0c2.2-1.5,3.2-2.7,3.2-3.7c0-0.4-0.2-0.9-0.6-1.4
						C144.2,427.1,143.3,426.4,142.1,425.7"/>
					<path class="st9" d="M143.9,441.4c-0.6-0.6-1.4-0.9-2.3-0.9c-1.1,0-1.9,0.6-2.5,1.7l-1.2,2.3c-0.5,0.9-0.7,1.8-0.7,2.7
						c0,0.8,0.3,1.5,1,2c0.6,0.5,1.4,0.8,2.2,0.8c1.1,0,2-0.3,2.8-0.8c0.1,0.3,0.1,0.5,0.1,0.7c0,0.6-0.2,1.1-0.6,1.6
						c-0.5,0.6-1.1,1.1-1.9,1.3c-0.7,0.2-1.7,0.3-2.9,0.3c-0.1,0-0.2,0-0.4,0c-0.5,0-1.1-0.1-1.9-0.2c-0.7-0.1-1.4-0.2-2-0.2
						c-1.7,0-3.3,0.8-4.7,2.3c-1.4,1.5-2.6,3.6-3.7,6.2l0,0l0.9,0.4l0,0c0.7-0.9,1.4-1.7,2-2.2c0.6-0.5,1.4-0.7,2.4-0.7
						c0.6,0,1.2,0.1,1.9,0.3c0.5,0.2,1,0.3,1.4,0.3c0.3,0.1,0.7,0.1,1.3,0.1c1.2,0,2.5-0.3,3.7-0.8s2.4-1.3,3.4-2.3
						c1-1,1.8-2.4,2.5-4c0.6-1.6,0.9-3.5,0.9-5.7c0-1.1-0.2-2.1-0.4-3.1C145,442.7,144.5,442,143.9,441.4"/>
					<path class="st9" d="M167.9,461.3L167.9,461.3l-0.4,0l0,0c-0.2,0.1-0.6,0.5-1.2,1.1c-0.5,0.6-1.1,1.2-1.5,1.7
						c-0.2-0.3-0.6-0.7-1-1c-0.4-0.3-1-0.7-1.6-1.1l0,0h-0.4l0,0c-0.2,0.1-0.5,0.4-1,0.9c-0.5,0.5-0.9,1-1.4,1.5
						c-0.5,0.5-0.8,1-1,1.3l0,0v0.4l0,0c0.5,0.4,1,0.9,1.6,1.3c0.5,0.5,1.1,1,1.6,1.6l0,0h0.4l0,0c1.6-1.1,2.6-2.1,3-2.9
						c0.8,0.6,1.6,1.3,2.4,2.2l0,0h0.4l0,0c2.1-1.5,3.1-2.7,3.1-3.7c0-0.5-0.3-1.1-0.8-1.6C169.7,462.5,169,461.9,167.9,461.3"/>
					<path class="st9" d="M181.3,428.2L181.3,428.2l0.4,0l0,0c2.2-1.5,3.2-2.7,3.2-3.7c0-0.4-0.2-0.9-0.6-1.4
						c-0.4-0.5-1.2-1.1-2.4-1.9l0,0h-0.4l0,0c-0.2,0.1-0.5,0.4-1,0.9c-0.5,0.5-0.9,1-1.4,1.5c-0.5,0.5-0.8,1-1,1.3l0,0v0.4l0,0
						C179.2,426.1,180.2,427.1,181.3,428.2"/>
					<path class="st9" d="M203.7,414.3c-0.9,2-1.6,3.9-2,5.8c-0.5,1.9-0.7,3.8-0.8,5.7l-0.2,6.9c0,2.1-0.3,3.8-0.9,5.2
						c-0.6,1.3-1.5,2.5-2.8,3.4c-0.9,0.7-2.1,1.4-3.5,1.9c-1.4,0.6-2.9,1.1-4.5,1.5c-0.3,0.1-0.7,0.2-1,0.2c0.2-0.1,0.3-0.3,0.5-0.4
						c0.5-0.4,1-1,1.7-1.7c0.6-0.7,1.3-1.6,1.8-2.5c0.6-0.9,1.1-1.9,1.5-2.9c0.4-1,0.6-1.9,0.6-2.9c0-0.7-0.3-1.4-0.8-1.8
						c-0.5-0.5-1.3-0.7-2.2-0.7c-1.5,0-3,0.5-4.5,1.4c-1.5,0.9-3,2.2-4.4,3.8c-1.4,1.6-2.9,3.4-4.4,5.3c-0.2-0.1-0.6-0.2-1-0.4
						c-0.5-0.2-0.9-0.3-1.3-0.3c-0.7,0-1.2,0.3-1.7,1l-1.9,2.4c-0.7,1-1.4,1.8-2,2.3c-0.5,0.5-1.1,0.7-1.8,0.7
						c-0.6,0-1.1-0.1-1.5-0.4c-0.4-0.3-0.9-0.4-1.5-0.4c-0.7,0-1.2,0.3-1.6,0.9l-1.3,1.7c-0.9,1.2-2.2,1.8-3.7,1.8
						c-1.1,0-2.1-0.3-2.7-0.9c-0.6-0.6-1.1-1.3-1.4-2.2c-0.3-0.9-0.5-1.9-0.5-3c-0.1-1.1-0.1-2.1-0.1-3.1c0-3.7,0.1-6.9,0.2-9.7
						c0.2-2.7,0.4-5,0.7-6.7l0,0l-0.9-0.3l0,0c-0.6,1.5-1.1,2.9-1.4,4.2c-0.1,0.6-0.3,1.5-0.4,2.7c-0.2,1.3-0.3,2.8-0.4,4.5
						c-0.1,1.7-0.2,3.6-0.3,5.6c-0.1,2-0.1,4.1-0.1,6.3c0,2.8,0.5,5,1.3,6.5c0.9,1.4,2.3,2.2,4.2,2.2c0,0,0,0,0,0c0,0,0,0,0,0
						c0,0,0,0,0,0c0.1,0,0.3,0,0.4,0c0.7-0.1,1.3-0.3,1.8-0.6c0.6-0.4,1.2-1,1.8-1.7c0.5-0.7,1.1-1.5,1.6-2.3c0.4-0.6,0.7-1,0.9-1.4
						c0.2-0.3,0.5-0.5,0.8-0.5c0.2,0,0.6,0.2,1.1,0.5c0.5,0.3,1.2,0.5,1.9,0.5c0,0,0,0,0,0c0.7,0,1.3-0.1,1.9-0.4
						c0.6-0.3,1.2-0.8,1.7-1.4c0.6-0.7,1.2-1.6,2-2.8c0.7-1.2,1.3-1.9,1.7-1.9c0.3,0,0.7,0.2,1.2,0.5c0.7,0.5,1.5,0.8,2.3,1.1
						c0.7,0.2,1.5,0.3,2.3,0.3c0.1,0,0.1,0,0.2,0c0,0,0,0,0,0h0c0,0,0,0,0,0c1.8,0,3.6-0.1,5.5-0.4c1.9-0.3,3.9-0.7,5.7-1.2
						c1.8-0.6,3.5-1.3,5.1-2.1c1.5-0.9,2.8-1.9,3.7-3.1c0.5-0.6,1-1.4,1.4-2.1c0.4-0.7,0.7-1.5,1-2.3c0.2-0.7,0.4-1.4,0.5-2.1
						c0.2-0.7,0.3-1.7,0.4-2.9c0.1-1.2,0.2-2.7,0.3-4.6c0.1-1.9,0.2-4.3,0.4-7.2c0.1-1.2,0.1-2.2,0.2-3c0.1-0.8,0.2-1.5,0.3-2l0,0
						L203.7,414.3L203.7,414.3z M190.6,438.7c0,0.5-0.3,1-0.8,1.5c-0.6,0.5-1.3,1-2.3,1.5c-0.9,0.5-2,0.8-3.2,1.1
						c-1.2,0.3-2.4,0.4-3.6,0.4c-0.2,0-0.4,0-0.6,0c-0.2,0-0.4-0.1-0.6-0.1c1.5-2,3-3.6,4.3-4.6c1.3-1,2.7-1.5,4.1-1.5
						c0.7,0,1.3,0.1,1.8,0.4C190.3,437.8,190.6,438.2,190.6,438.7"/>
					<path class="st9" d="M215.4,424.3c-0.7,1.6-1.3,3-1.7,4.1c-0.4,1.1-0.7,2.1-1,3c-0.2,0.9-0.3,1.8-0.4,2.6
						c-0.1,0.9-0.1,1.9-0.2,3.1l-0.3,9.3c-0.1,1.8-0.2,3.4-0.3,4.7c-0.1,1.3-0.3,2.2-0.4,2.8l0,0.1l0.9,0.2l0,0
						c0.8-1.9,1.5-3.8,1.9-5.6c0.4-1.8,0.7-3.5,0.8-5.2l0.7-10.9c0.1-2.1,0.3-3.8,0.4-5.1c0.1-1.3,0.3-2.2,0.5-2.7l0,0L215.4,424.3
						L215.4,424.3z"/>
					<path class="st9" d="M260.3,420.9L260.3,420.9l-0.4,0l0,0c-0.2,0.1-0.5,0.4-1,0.9c-0.5,0.5-0.9,1-1.4,1.5c-0.5,0.5-0.8,1-1,1.3
						l0,0v0.4l0,0c1.1,0.8,2.1,1.8,3.2,2.9l0,0h0.3l0,0c2.2-1.5,3.2-2.7,3.2-3.7c0-0.4-0.2-0.9-0.6-1.4
						C262.3,422.3,261.5,421.6,260.3,420.9"/>
					<path class="st9" d="M267.2,441c1.1-1.6,1.8-2.9,2.3-3.9c0.4-1,0.7-2,0.7-3c0-0.7-0.3-1.3-0.8-1.8c-0.5-0.5-1.3-0.8-2.2-0.8
						c-1.5,0-3,0.5-4.6,1.4c-1.6,0.9-3.3,2.5-5.1,4.6c-2,2.3-3.3,4-4,4.9c-0.7-0.1-1.2-0.1-1.7-0.2c-0.4-0.1-0.7-0.1-0.8-0.2l0,0
						l-0.8,0.1l0,0c-0.1,5.9-0.8,10.3-1.9,13.1c-0.9,2.3-2.1,4.1-3.5,5.4c-1.4,1.3-2.9,2.2-4.5,2.7c-1.6,0.5-3.1,0.8-4.6,0.8
						c-1.1,0-2.2-0.1-3.3-0.4c-1.1-0.3-2.1-0.7-2.9-1.4c-0.9-0.6-1.5-1.5-2.1-2.7c-0.5-1.1-0.8-2.6-0.8-4.2c0-2.5,0.7-5.5,2.2-9.1
						l0,0l-1.2-0.5l0,0c-1.4,2.9-2.3,5.6-2.9,8c-0.5,2.4-0.8,4.9-0.8,7.3c0,2,0.4,3.8,1.2,5.3c0.8,1.5,1.9,2.7,3.4,3.5
						c1.5,0.8,3.2,1.2,5.2,1.2c3.1,0,5.9-1,8.5-3c1.7-1.3,3.2-3.1,4.6-5.2c1.3-2.1,2.4-4.6,3.3-7.3c0.9-2.7,1.4-5.7,1.7-8.8
						c0.6,0.1,1.2,0.2,1.9,0.2c0.7,0,1.4,0.1,2.2,0.1c2.1,0,4.2-0.6,6.2-1.7C264.2,444.5,265.9,442.9,267.2,441 M266.5,438.2
						c0,1-1,2-3.1,3c-2,1-4.3,1.5-6.8,1.5H256c-0.2,0-0.3,0-0.5,0c1.6-2.1,3-3.7,4.3-4.6c1.3-1,2.7-1.5,4.1-1.5
						c0.7,0,1.4,0.2,1.9,0.5C266.3,437.4,266.5,437.7,266.5,438.2"/>
					<path class="st9" d="M277.2,441.7c-0.4,1.1-0.8,2.2-1.3,3.3c-0.5,1.1-0.9,2-1.3,2.9c-0.4,0.9-0.9,1.5-1.3,2
						c-0.4,0.5-1,1.1-1.9,1.9c-0.8,0.8-1.8,1.6-2.8,2.5c-1,0.9-2,1.7-3.1,2.4c-1,0.8-1.9,1.4-2.8,1.8l0,0l0.2,1l0.1,0
						c2.1-0.5,3.9-0.9,5.4-1.4c1.4-0.4,2.5-0.8,3.2-1.2c1.1-0.9,2.3-2.6,3.5-5.2c1.2-2.5,2.3-5.9,3.3-9.9l0-0.1L277.2,441.7
						L277.2,441.7z"/>
					<path class="st9" d="M287.1,424.3c-0.7,1.6-1.3,3-1.7,4.1c-0.4,1.1-0.7,2.1-1,3c-0.2,0.9-0.3,1.8-0.4,2.6
						c-0.1,0.9-0.1,1.9-0.2,3.1l-0.3,9.3c-0.1,1.8-0.2,3.4-0.3,4.7c-0.1,1.3-0.3,2.2-0.4,2.8l0,0.1l0.9,0.2l0,0
						c0.8-1.9,1.5-3.8,1.9-5.6c0.4-1.8,0.7-3.5,0.8-5.2l0.7-10.9c0.1-2.1,0.3-3.8,0.4-5.1c0.1-1.3,0.3-2.2,0.5-2.7l0,0L287.1,424.3
						L287.1,424.3z"/>
					<path class="st9" d="M342,473.9L342,473.9l-0.6,0l-0.1,0c-0.3,0.1-0.7,0.5-1.3,1.2c-0.5,0.5-0.9,1-1.3,1.5
						c-0.2-0.3-0.5-0.5-0.8-0.8c-0.4-0.3-1-0.7-1.7-1.1l-0.1,0h-0.5l-0.1,0c-0.2,0.1-0.6,0.4-1.1,0.9c-0.5,0.5-0.9,1-1.4,1.5
						c-0.5,0.5-0.8,1-1,1.3l-0.1,0.1v0.6l0.1,0.1c0.5,0.4,1,0.9,1.6,1.3c0.5,0.5,1.1,1,1.6,1.6l0.1,0.1h0.6l0.1-0.1
						c1.5-1.1,2.4-2,2.9-2.8c0.7,0.6,1.4,1.2,2.2,2l0.1,0.1h0.6l0.1-0.1c2.2-1.5,3.2-2.8,3.2-3.9c0-0.6-0.3-1.2-0.8-1.7
						C343.9,475.2,343.1,474.6,342,473.9"/>
					<path class="st9" d="M352.3,448.3c-1.3-0.6-2.2-1-2.6-1.4c-0.4-0.4-0.6-0.8-0.6-1.4c0-0.2,0-0.4,0.1-0.7c0.1-0.3,0.1-0.7,0.1-1
						c0-0.1,0-0.1,0-0.2c0.2-0.8,0.4-1.6,0.6-2.4c0.2-0.9,0.5-1.7,0.7-2.5c0.5-1.8,0.9-4.1,1.2-6.7c0.3-2.6,0.5-5.6,0.6-8.9
						c0.1-2.3,0.2-4,0.5-5l0.1-0.2l-1.3-0.6l-0.1,0.3c-0.9,2.1-1.6,4.1-2.1,6c-0.5,2-0.7,3.9-0.7,5.7c0,3.1-0.2,5.9-0.5,8.4
						c-0.3,2.5-0.6,4.4-1,5.8c0,0,0,0,0,0c0,0,0,0,0,0l-0.9,2.9c-0.5,1.6-0.7,2.8-0.7,3.8c0,1.1,0.3,2,0.9,2.7
						c0.6,0.6,1.4,1.1,2.5,1.6c0.8,0.3,1.4,0.7,1.8,1c0.4,0.3,0.5,0.7,0.5,1.1c0,0.5-0.3,1.1-0.8,1.9c-0.5,0.8-1.3,1.7-2.2,2.6
						c-1,0.9-2.2,1.6-3.6,2.2c-1.4,0.6-3,0.9-4.8,0.9c-1.7,0-3.2-0.3-4.4-1c-1.1-0.6-2-1.5-2.6-2.6c-0.6-1.1-0.8-2.3-0.8-3.7
						c0-1,0.1-2.1,0.4-3.3c0.2-1.1,0.7-2.5,1.3-3.9c0.6-1.5,1.5-3.2,2.7-5.2l0.2-0.3l-1.5-0.9l-0.2,0.2c-1.6,2.4-2.9,4.7-3.9,6.9
						c-0.9,2.2-1.6,4.3-2,6.1c-0.4,1.9-0.6,3.5-0.6,4.9c0,2,0.4,3.7,1.1,5.2c0.7,1.5,1.8,2.7,3.1,3.6c1.3,0.9,2.9,1.3,4.7,1.3
						c1.7,0,3.4-0.3,4.8-0.9c1.5-0.6,2.8-1.4,4-2.4c1.2-1,2.2-2,3-3.1c1.2-1.5,2.2-3.1,2.9-4.8c0.8-1.7,1.4-3.3,1.7-4.8
						c0.4-1.6,0.6-2.9,0.6-4.1C354.7,450,353.9,448.9,352.3,448.3"/>
					<path class="st9" d="M367.5,448.6c-0.4-0.5-1-0.8-1.7-0.8c-0.2,0-0.3,0-0.4,0.1l-0.1,0l-1.7,3.7c-0.1,0-0.2,0-0.2,0
						c-0.8,0-1.5-0.2-1.9-0.8c-0.5-0.5-0.8-1.2-1.1-2.1c-0.2-0.9-0.4-1.9-0.4-2.9c-0.1-1.1-0.1-2.1-0.1-3.1c0-3.6,0.1-6.9,0.3-9.6
						c0.2-2.8,0.4-5.2,0.8-7.3l0-0.3l-1.3-0.3l-0.1,0.2c-0.5,1.1-0.9,2.2-1.2,3.2c-0.3,1-0.5,2.1-0.7,3.1c-0.1,0.4-0.1,1.1-0.3,2.2
						c-0.1,1.1-0.2,2.4-0.4,4c-0.1,1.6-0.2,3.4-0.3,5.3c-0.1,1.9-0.1,4-0.1,6.1c0,5.8,1.5,8.8,4.6,8.9c0.1,0,0.2,0,0.3,0
						c1.3,0,2.4-0.4,3.4-1.1c1-0.7,1.8-1.7,2.3-2.9c0.6-1.2,0.9-2.6,0.9-4C368.1,449.7,367.9,449.1,367.5,448.6"/>
					<path class="st9" d="M322.3,441.5c-0.9,0.2-1.9,0.4-3.1,0.6c-1.2,0.2-2.4,0.4-3.8,0.5c-1.3,0.1-2.7,0.2-4,0.3
						c-1.4,0.1-2.7,0.1-3.9,0.1c-2,0-3.7,0-4.9-0.1c-1.2-0.1-2.1-0.2-2.7-0.5c-0.5-0.2-1.7-0.2-2.2,0.1c-0.1,0.1-0.2,0.2-0.2,0.3
						c0,0.7,0.4,1.3,1.1,1.6c0.7,0.4,1.7,0.6,3,0.8c1.2,0.1,2.6,0.2,4.1,0.2c1.4,0,2.8,0,4.3-0.1c1.5-0.1,3-0.2,4.5-0.4
						c1.5-0.2,2.9-0.4,4.3-0.6c1.3-0.3,2.6-0.6,3.6-0.9c1.1-0.3,1.9-0.7,2.5-1.2c0.2-0.1,0.1-0.2,0.1-0.3
						C324.8,441.6,323.1,441.3,322.3,441.5"/>
					<path class="st9" d="M155.1,359.2c1.1,2.7,1.3,3.9,1.3,4.4c0,0.3,0,0.5,0,0.7c-0.2,0.1-0.4,0.4-0.4,0.7c0,0.5,0.4,0.8,0.8,0.8
						h13c0.4,0,0.8-0.3,0.8-0.7c0-0.3-0.1-0.6-0.4-0.8c0-0.1-0.1-0.4,0-0.8c0-0.6,0.3-1.8,1.3-4.3c0.7-1.7,1.7-4.2,3.1-7.4
						c1.4-3.3,3-7,4.8-10.9c1.8-4,3.6-8.1,5.5-12.3c1.3-3,2.6-5.8,3.8-8.5v38.7c0,2-0.2,3.5-0.5,4.4c-0.3,0.7-0.5,0.9-0.6,0.9
						c-0.4,0-0.8,0.4-0.8,0.8c0,0.5,0.4,0.8,0.8,0.8h14.2c0.5,0,0.8-0.4,0.8-0.8c0-0.4-0.3-0.8-0.8-0.8c-0.1,0-0.3-0.2-0.6-0.9
						c-0.4-0.8-0.6-2.3-0.6-4.3v-48.7c0-2.1,0.2-3.6,0.6-4.4c0.3-0.7,0.5-0.9,0.6-0.9c0.4,0,0.8-0.4,0.8-0.8c0-0.5-0.4-0.8-0.8-0.8
						h-17c-0.5,0-0.8,0.4-0.8,0.8c0,0.1,0,0.2,0,0.3c0,0.1-0.1,0.4-0.2,0.9c-0.3,0.9-0.8,2.5-1.7,4.6c-0.4,0.9-1,2.4-2,4.6
						c-1,2.2-2.1,4.8-3.5,7.9c-1.4,3.1-2.8,6.4-4.4,10c-1.6,3.6-3.2,7.2-4.8,10.8c-1.4,3.1-2.7,6-3.9,8.8c-1.2-2.7-2.5-5.6-3.8-8.7
						c-1.6-3.6-3.2-7.2-4.7-10.7c-1.5-3.5-3-6.8-4.4-9.9c-1.3-3-2.5-5.7-3.5-8c-1-2.2-1.6-3.8-2-4.7c-0.9-2.3-1.5-3.9-1.7-4.8
						c-0.1-0.5-0.2-0.8-0.2-0.9c0-0.1,0-0.2,0-0.3c0-0.5-0.4-0.8-0.8-0.8h-17.1c-0.4,0-0.8,0.3-0.8,0.8c0,0.4,0.3,0.8,0.7,0.9
						c0,0,0.3,0.1,0.7,1c0.3,0.6,0.6,1.7,0.6,4.3v48.8c0,2.5-0.3,3.8-0.6,4.3c-0.3,0.7-0.5,0.9-0.6,0.9c-0.4,0-0.8,0.4-0.8,0.8
						c0,0.5,0.4,0.8,0.8,0.8h14.3c0.5,0,0.8-0.4,0.8-0.8c0-0.4-0.3-0.8-0.8-0.8c-0.1,0-0.3-0.2-0.6-0.9c-0.4-0.8-0.6-2.3-0.6-4.3
						V320c1.2,2.8,2.5,5.8,3.9,9c1.9,4.3,3.7,8.5,5.4,12.6c1.8,4.1,3.3,7.7,4.7,10.8C153.7,355.5,154.6,357.7,155.1,359.2"/>
					<path class="st9" d="M212.1,365.8h15.6c0.5,0,0.8-0.4,0.8-0.8c0-0.4-0.3-0.8-0.7-0.8c-0.1-0.1-0.2-0.3-0.3-0.8
						c-0.1-0.6-0.2-1.8,0.5-4.4c0,0,0,0,0-0.1c0.1-0.6,0.3-1.4,0.5-2.1l0.7-2.4c0.5-1.6,1-1.9,1.2-2c0.4-0.2,1.3-0.3,3.3-0.3h23.7
						c1.9,0,2.6,0.2,2.9,0.4c0.2,0.1,0.7,0.6,1.4,2.1c0,0,0,0,0,0.1c0.2,0.4,0.5,1.1,0.8,2.1c0.3,1,0.5,1.8,0.6,2.3
						c0.6,2.4,0.5,3.5,0.3,4c-0.2,0.5-0.5,1.1-0.9,1.1c-0.4,0.1-0.7,0.5-0.6,0.9c0,0.4,0.4,0.7,0.8,0.7h17.1c0.5,0,0.8-0.4,0.8-0.8
						c0-0.4-0.3-0.8-0.8-0.8c0,0,0,0-0.1,0c-0.1,0-0.4-0.1-1.3-1.1c-0.8-0.9-1.6-2.4-2.6-4.6c-0.5-1.1-1.3-2.9-2.3-5.4
						c-1.1-2.6-2.3-5.5-3.7-8.8c-1.4-3.2-2.8-6.6-4.3-10.3c-1.5-3.6-2.9-7-4.3-10.3c-1.4-3.4-2.6-6.2-3.6-8.7
						c-1-2.5-1.7-4.2-2.1-5.2c-0.8-2.1-1.2-3.6-1.2-4.4c0-0.4,0-0.6,0-0.7c0.2-0.2,0.3-0.4,0.3-0.6c0-0.5-0.4-0.8-0.8-0.8h-16.2
						c-0.5,0-0.8,0.4-0.8,0.8c0,0.3,0.1,0.5,0.4,0.7c0,0.1,0,0.3,0,0.7c0,0.6-0.3,1.8-1.3,4.4c-0.4,1-1.2,2.8-2.2,5.3l-3.7,8.7
						c-1.3,3.2-2.8,6.7-4.4,10.4c-1.5,3.6-3,7.1-4.4,10.4c-1.4,3.3-2.7,6.2-3.7,8.6c-1.1,2.4-1.8,4.2-2.2,5.2
						c-1,2.2-1.8,3.8-2.3,4.7c-0.5,0.7-0.7,1-0.8,1.1c-0.4,0.1-0.6,0.4-0.6,0.8C211.3,365.4,211.7,365.8,212.1,365.8 M245.5,313.9
						c0.9,2,1.9,4.3,3,6.9c1.4,3.3,2.8,6.7,4.3,10.2c1.4,3.4,2.7,6.6,3.8,9.5c0.3,0.9,0.3,1.3,0.3,1.5c-0.2,0.1-0.8,0.2-2.2,0.2
						h-18.6c-1.5,0-2-0.2-2.2-0.2c0-0.2,0-0.7,0.4-1.7c1.5-3.5,2.8-6.7,4-9.5c1.2-2.8,2.5-5.8,3.8-9.1
						C243.3,319.1,244.4,316.5,245.5,313.9"/>
					<path class="st9" d="M289.9,304.7c0,0,0.3,0.1,0.7,1c0.3,0.6,0.6,1.7,0.6,4.3v48.8c0,2.5-0.3,3.8-0.6,4.3
						c-0.3,0.7-0.5,0.9-0.6,0.9c-0.4,0-0.8,0.4-0.8,0.8c0,0.5,0.4,0.8,0.8,0.8h50.7c0.5,0,0.8-0.4,0.8-0.8v-2.1l1.8-10.1
						c0.1-0.4-0.1-0.7-0.5-0.9c-0.3-0.2-0.8-0.1-1,0.2c-0.4,0.5-1.4,1.4-4,2.4c-2.1,0.9-4.9,1.3-8.3,1.3h-23.4c-2,0-2.6-0.2-2.7-0.3
						c-0.1-0.1-0.2-0.6-0.2-2.1v-43.4c0-2.1,0.2-3.6,0.6-4.4c0.3-0.7,0.5-0.9,0.6-0.9c0.4,0,0.8-0.4,0.8-0.8c0-0.5-0.4-0.8-0.8-0.8
						H290c-0.4,0-0.8,0.3-0.8,0.8C289.1,304.3,289.4,304.7,289.9,304.7"/>
					<path class="st9" d="M351.7,304.7c0,0,0.3,0.1,0.7,1c0.3,0.6,0.6,1.7,0.6,4.3v48.8c0,2.5-0.3,3.8-0.6,4.3
						c-0.3,0.7-0.5,0.9-0.6,0.9c-0.4,0-0.8,0.4-0.8,0.8c0,0.5,0.4,0.8,0.8,0.8h14.3c0.5,0,0.8-0.4,0.8-0.8c0-0.4-0.3-0.8-0.8-0.8
						c-0.1,0-0.3-0.2-0.6-0.9c-0.4-0.8-0.6-2.3-0.6-4.3v-48.7c0-2.1,0.2-3.6,0.6-4.4c0.3-0.7,0.5-0.9,0.6-0.9c0.4,0,0.8-0.4,0.8-0.8
						c0-0.5-0.4-0.8-0.8-0.8h-14.3c-0.4,0-0.8,0.3-0.8,0.8C351,304.3,351.3,304.7,351.7,304.7"/>
				</g>
				<g class="st3">
					<defs>
						<rect id="SVGID_22_" x="0" y="0" width="490.8" height="785.3"/>
					</defs>
					<clipPath id="SVGID_23_">
						<use xlink:href="#SVGID_22_"  style="overflow:visible;"/>
					</clipPath>
					<g class="st10">
						<defs>
							<rect id="SVGID_24_" x="627.5" y="138" width="272.6" height="316.1"/>
						</defs>
						<clipPath id="SVGID_25_">
							<use xlink:href="#SVGID_24_"  style="overflow:visible;"/>
						</clipPath>
						<g class="st11">
							<defs>
								<rect id="SVGID_26_" x="39.1" y="78.7" width="905.3" height="559.9"/>
							</defs>
							<clipPath id="SVGID_27_">
								<use xlink:href="#SVGID_26_"  style="overflow:visible;"/>
							</clipPath>
							<g class="st12">
								<defs>
									<rect id="SVGID_28_" x="39.1" y="78.7" width="905.3" height="559.9"/>
								</defs>
								<clipPath id="SVGID_29_">
									<use xlink:href="#SVGID_28_"  style="overflow:visible;"/>
								</clipPath>
								<g transform="matrix(1 0 0 1 0 0)" style="clip-path:url(#SVGID_29_);">
									
										<image style="overflow:visible;" width="1080" height="668" xlink:href="374B173F071F0EBE.jpg"  transform="matrix(0.8382 0 0 0.8382 39.0816 78.674)">
									</image>
								</g>
							</g>
						</g>
					</g>
				</g>
				<g class="st3">
					<text transform="matrix(1 0 0 1 156.9317 630.8251)"><tspan x="0" y="0" class="st13 st14 st15 st16">E</tspan><tspan x="9.4" y="0" class="st13 st14 st15 st16">ng</tspan><tspan x="27.3" y="0" class="st13 st14 st15 st16">li</tspan><tspan x="33.6" y="0" class="st13 st14 st15 st16">s</tspan><tspan x="41.8" y="0" class="st13 st14 st15">h</tspan></text>
				</g>
				<polygon class="st17" points="158.1,630.5 158.1,625.3 164.6,625.3 164.6,625 158.1,625 158.1,620.2 165,620.2 165,619.9 
					157.8,619.9 157.8,630.8 165.1,630.8 165.1,630.5 				"/>
				<g class="st3">
					<defs>
						<rect id="SVGID_30_" x="0" y="0" width="490.8" height="785.3"/>
					</defs>
					<clipPath id="SVGID_31_">
						<use xlink:href="#SVGID_30_"  style="overflow:visible;"/>
					</clipPath>
					<path class="st18" d="M167.2,622.9v7.9h0.3v-4.5c0-0.4,0.1-0.9,0.2-1.3c0.1-0.4,0.3-0.7,0.5-1.1c0.2-0.3,0.5-0.5,0.9-0.7
						c0.4-0.2,0.8-0.3,1.2-0.3c0.3,0,0.7,0,1,0.1c0.3,0.1,0.6,0.3,0.8,0.5c0.2,0.2,0.4,0.5,0.5,0.8c0.1,0.3,0.2,0.7,0.2,1.2v5.2h0.3
						v-5.2c0-0.5-0.1-0.9-0.2-1.2c-0.1-0.4-0.3-0.6-0.6-0.9c-0.3-0.2-0.5-0.4-0.9-0.5c-0.3-0.1-0.7-0.2-1.1-0.2
						c-0.4,0-0.7,0.1-1.1,0.2c-0.3,0.1-0.6,0.3-0.8,0.5c-0.2,0.2-0.4,0.4-0.6,0.7c-0.2,0.3-0.3,0.5-0.3,0.8h0v-1.9H167.2z"/>
					<path class="st18" d="M182,626.6c0,0.5-0.1,0.9-0.2,1.3c-0.1,0.4-0.3,0.8-0.6,1.1s-0.6,0.6-1,0.7c-0.4,0.2-0.8,0.3-1.3,0.3
						c-0.5,0-0.9-0.1-1.3-0.3c-0.4-0.2-0.7-0.4-0.9-0.7c-0.3-0.3-0.4-0.7-0.6-1.1s-0.2-0.9-0.2-1.4c0-0.5,0.1-0.9,0.2-1.4
						c0.1-0.4,0.3-0.8,0.6-1.1c0.3-0.3,0.6-0.6,1-0.8s0.8-0.3,1.3-0.3c0.5,0,0.9,0.1,1.3,0.3c0.4,0.2,0.7,0.5,0.9,0.8
						c0.3,0.3,0.4,0.7,0.6,1.1C181.9,625.7,182,626.2,182,626.6z M182,628.2v2.4c0,1-0.3,1.7-0.8,2.2c-0.5,0.5-1.3,0.7-2.2,0.7
						c-0.3,0-0.7,0-1-0.1c-0.3-0.1-0.6-0.2-0.9-0.4c-0.2-0.2-0.4-0.4-0.6-0.7c-0.1-0.3-0.2-0.6-0.2-1H176c0,0.5,0.1,0.8,0.3,1.1
						c0.2,0.3,0.4,0.6,0.7,0.8c0.3,0.2,0.6,0.3,1,0.4c0.4,0.1,0.7,0.1,1.1,0.1c1,0,1.9-0.3,2.4-0.8c0.6-0.5,0.9-1.3,0.9-2.4v-7.6
						H182v2.1h0c-0.1-0.3-0.2-0.6-0.4-0.9c-0.2-0.3-0.4-0.5-0.7-0.7c-0.3-0.2-0.6-0.4-0.9-0.5c-0.3-0.1-0.7-0.2-1.1-0.2
						c-0.6,0-1,0.1-1.5,0.3c-0.4,0.2-0.8,0.5-1.1,0.8c-0.3,0.4-0.5,0.8-0.6,1.2c-0.1,0.5-0.2,1-0.2,1.5c0,0.5,0.1,1,0.2,1.4
						c0.1,0.5,0.3,0.9,0.6,1.2c0.3,0.3,0.6,0.6,1,0.8c0.4,0.2,0.9,0.3,1.4,0.3c0.3,0,0.7,0,1-0.1c0.3-0.1,0.6-0.2,0.9-0.4
						c0.3-0.2,0.5-0.4,0.7-0.7C181.7,628.8,181.9,628.5,182,628.2L182,628.2z"/>
					<rect x="185.1" y="619.9" class="st18" width="0.3" height="11"/>
					<path class="st18" d="M188.5,622.9h-0.3v7.9h0.3V622.9z M188.5,619.9h-0.3v1.5h0.3V619.9z"/>
					<path class="st18" d="M196.5,625.3h0.3c0-0.9-0.3-1.5-0.8-1.9c-0.5-0.4-1.2-0.6-2.1-0.6c-0.5,0-0.9,0.1-1.2,0.2
						c-0.3,0.1-0.6,0.3-0.8,0.5c-0.2,0.2-0.4,0.4-0.5,0.6c-0.1,0.2-0.1,0.5-0.1,0.7c0,0.4,0.1,0.8,0.2,1c0.2,0.3,0.4,0.5,0.7,0.6
						c0.2,0.1,0.5,0.2,0.8,0.3c0.3,0.1,0.6,0.2,1,0.3c0.3,0.1,0.7,0.2,1,0.2c0.3,0.1,0.6,0.2,0.9,0.3c0.3,0.1,0.5,0.3,0.6,0.5
						c0.2,0.2,0.2,0.5,0.2,0.8c0,0.3-0.1,0.6-0.2,0.9c-0.2,0.2-0.4,0.4-0.6,0.6c-0.2,0.1-0.5,0.3-0.8,0.3c-0.3,0.1-0.6,0.1-0.9,0.1
						c-0.9,0-1.6-0.2-2.1-0.6c-0.5-0.4-0.7-1.1-0.7-2H191c0,1,0.3,1.7,0.8,2.2c0.5,0.5,1.3,0.7,2.4,0.7c0.3,0,0.7,0,1-0.1
						c0.3-0.1,0.6-0.2,0.9-0.4c0.3-0.2,0.5-0.4,0.7-0.7c0.2-0.3,0.3-0.6,0.3-1c0-0.4-0.1-0.7-0.2-0.9c-0.1-0.2-0.3-0.4-0.6-0.6
						c-0.2-0.2-0.5-0.3-0.8-0.4c-0.3-0.1-0.6-0.2-0.9-0.3c-0.4-0.1-0.8-0.2-1.1-0.3c-0.3-0.1-0.6-0.2-0.9-0.3
						c-0.3-0.1-0.5-0.3-0.6-0.5c-0.2-0.2-0.2-0.5-0.2-0.9c0-0.1,0-0.2,0.1-0.4c0-0.2,0.1-0.4,0.3-0.6c0.2-0.2,0.4-0.4,0.7-0.5
						c0.3-0.1,0.8-0.2,1.3-0.2c0.4,0,0.7,0,1,0.1c0.3,0.1,0.6,0.2,0.8,0.4c0.2,0.2,0.4,0.4,0.5,0.7
						C196.5,624.5,196.5,624.9,196.5,625.3z"/>
					<path class="st18" d="M199.6,619.9v11h0.3v-4.5c0-0.4,0.1-0.9,0.2-1.3c0.1-0.4,0.3-0.7,0.5-1.1c0.2-0.3,0.5-0.5,0.9-0.7
						c0.4-0.2,0.8-0.3,1.2-0.3c0.3,0,0.7,0,1,0.1c0.3,0.1,0.6,0.3,0.8,0.5c0.2,0.2,0.4,0.5,0.5,0.8c0.1,0.3,0.2,0.7,0.2,1.2v5.2h0.3
						v-5.2c0-0.5-0.1-0.9-0.2-1.2c-0.1-0.4-0.3-0.6-0.6-0.9c-0.3-0.2-0.5-0.4-0.9-0.5c-0.3-0.1-0.7-0.2-1.1-0.2
						c-0.4,0-0.7,0.1-1.1,0.2c-0.3,0.1-0.6,0.3-0.8,0.5c-0.2,0.2-0.4,0.4-0.6,0.7c-0.2,0.3-0.3,0.5-0.3,0.8h0v-5H199.6z"/>
				</g>
				<g class="st3">
					<text transform="matrix(1.0225 0 0 1 290.0792 631.7109)"><tspan x="0" y="0" class="st13 st14 st19">ﺔﻴ</tspan><tspan x="12.9" y="0" class="st13 st14 st19 st20">ﺑ</tspan><tspan x="20.4" y="0" class="st13 st14 st19">ﺮﻌ</tspan><tspan x="34.4" y="0" class="st13 st14 st19 st20">ﻟ</tspan><tspan x="39.8" y="0" class="st13 st14 st19">ا</tspan></text>
				</g>
				<g class="st3">
					<defs>
						<rect id="SVGID_32_" x="0" y="0" width="490.8" height="785.3"/>
					</defs>
					<clipPath id="SVGID_33_">
						<use xlink:href="#SVGID_32_"  style="overflow:visible;"/>
					</clipPath>
					<path class="st21" d="M292.4,621.4c-0.1,0.1-0.2,0.2-0.2,0.4c0,0.1,0.1,0.3,0.2,0.4c0.1,0.1,0.2,0.2,0.4,0.2
						c0.1,0,0.3-0.1,0.4-0.2c0.1-0.1,0.2-0.2,0.2-0.4c0-0.1-0.1-0.3-0.2-0.4c-0.1-0.1-0.2-0.2-0.4-0.2
						C292.7,621.2,292.5,621.3,292.4,621.4z M294.6,621.4c-0.1,0.1-0.2,0.2-0.2,0.4c0,0.1,0.1,0.3,0.2,0.4c0.1,0.1,0.2,0.2,0.4,0.2
						c0.1,0,0.3-0.1,0.4-0.2c0.1-0.1,0.2-0.2,0.2-0.4c0-0.1-0.1-0.3-0.2-0.4c-0.1-0.1-0.2-0.2-0.4-0.2
						C294.8,621.2,294.7,621.3,294.6,621.4z M297.4,631.2h-2.1c-1.9,0.1-3.2-0.9-3.9-3c-0.1-0.3-0.2-0.6-0.2-1.1v-0.4
						c0-1.3,0.5-2.2,1.5-2.7c0.4-0.1,0.7-0.2,1-0.2c1.2,0,2,0.4,2.4,1.3c0.2,0.3,0.4,1.7,0.5,4.3C296.9,630.5,297.2,631,297.4,631.2
						z M293.8,623.5c-1.5,0-2.5,0.8-2.8,2.5l-0.1,1c0.1,2,0.9,3.4,2.5,4.3c0.6,0.3,1.3,0.4,2,0.4h4.2v-0.5h-0.8
						c-0.6,0-1-0.3-1.3-0.8c-0.2-0.6-0.3-2-0.5-4.4c-0.2-0.9-0.5-1.5-1-2C295.3,623.7,294.6,623.5,293.8,623.5z"/>
					<path class="st21" d="M301,623.7v6.4c0,0.5-0.2,0.9-0.5,1.2h-1.2c-0.1,0-0.1,0-0.1,0.1v0.3c0,0.1,0,0.1,0.1,0.1h1.3
						c0.6-0.3,0.9-1,0.9-2.1v-5.9c0-0.1,0-0.1-0.1-0.1h-0.3C301,623.6,301,623.6,301,623.7z M301.4,623.6h-0.3c-0.1,0-0.1,0-0.1,0.1
						v5.9c0,1.2,0.3,1.9,0.9,2.1h1.6c0.1,0,0.1,0,0.1-0.1v-0.3c0-0.1,0-0.1-0.1-0.1H302c-0.4-0.2-0.5-0.6-0.5-1.2v-6.4
						C301.5,623.6,301.4,623.6,301.4,623.6z M302.4,633.1c-0.1,0-0.3,0.1-0.4,0.2c-0.1,0.1-0.2,0.2-0.2,0.4c0,0.1,0.1,0.3,0.2,0.4
						c0.1,0.1,0.2,0.2,0.4,0.2c0.1,0,0.3-0.1,0.4-0.2c0.1-0.1,0.2-0.2,0.2-0.4c0-0.1-0.1-0.3-0.2-0.4
						C302.7,633.1,302.5,633.1,302.4,633.1z M300.2,633.1c-0.1,0-0.3,0.1-0.4,0.2c-0.1,0.1-0.2,0.2-0.2,0.4c0,0.1,0.1,0.3,0.2,0.4
						c0.1,0.1,0.2,0.2,0.4,0.2c0.1,0,0.3-0.1,0.4-0.2c0.1-0.1,0.2-0.2,0.2-0.4c0-0.1-0.1-0.3-0.2-0.4
						C300.5,633.1,300.4,633.1,300.2,633.1z"/>
					<path class="st21" d="M304.6,633c-0.1,0-0.3,0-0.4,0.1c-0.1,0.1-0.2,0.2-0.2,0.4c0,0.1,0.1,0.3,0.2,0.4
						c0.1,0.1,0.2,0.1,0.4,0.1c0.1,0,0.3,0,0.4-0.1c0.1-0.1,0.2-0.2,0.2-0.4c0-0.1-0.1-0.3-0.2-0.4C304.9,633,304.8,633,304.6,633z
						 M306.8,623.5v6.5c0,0.5-0.2,0.9-0.5,1.2h-3.1c-0.1,0-0.1,0-0.1,0.1v0.3c0,0.1,0,0.1,0.1,0.1h3.2c0.6-0.3,0.9-1,0.9-2.1v-6.1
						c0-0.1,0-0.1-0.1-0.1h-0.3C306.9,623.4,306.8,623.5,306.8,623.5z"/>
					<path class="st21" d="M313,633.3l0.9-1.6h2.3c0.1,0,0.1,0,0.1-0.1v-0.3c0-0.1,0-0.1-0.1-0.1h-2.2c0.2-0.8,0.4-1.5,0.4-2.4v-5.6
						H314v5.9c0,0.6-0.1,1.3-0.4,2.1l-0.2,0.5c-0.5,1-1,1.7-1.8,2.3l0.3,0.3C312.3,634.1,312.7,633.7,313,633.3z"/>
					<path class="st21" d="M319.8,623.6c-1.9,0.8-3,2-3.1,3.9v0.2c0,0.9,0.2,1.6,0.7,2.3c0.8,0.9,1.6,1.3,2.2,1.3v0.1h-3.5
						c-0.1,0-0.1,0-0.1,0.1v0.2c0,0.1,0,0.1,0.1,0.1h9.2c0.1,0,0.1,0,0.1-0.1v-0.2c0-0.1,0-0.1-0.1-0.1h-4c-2.8-0.4-4.2-1.6-4.2-3.7
						c0-0.4,0.1-0.8,0.2-1.2c0.8-1.7,2.1-2.5,3.7-2.5c1.1,0,2,0.3,2.8,1h0.1l0.1-0.4c-0.8-0.7-1.7-1.1-2.6-1.1h-0.6
						C320.5,623.4,320.2,623.5,319.8,623.6z"/>
					<path class="st21" d="M326.9,618.9v11.2c0,0.5-0.2,0.9-0.5,1.2h-1.2c-0.1,0-0.1,0-0.1,0.1v0.3c0,0.1,0,0.1,0.1,0.1h1.3
						c0.6-0.3,0.9-1,0.9-2.1v-10.7c0-0.1,0-0.1-0.1-0.1H327C327,618.8,326.9,618.8,326.9,618.9z"/>
					<path class="st21" d="M331.2,618.9v12.7c0,0.1,0,0.1,0.1,0.1h0.2c0.1,0,0.1,0,0.1-0.1v-12.7c0-0.1,0-0.1-0.1-0.1h-0.2
						C331.2,618.8,331.2,618.8,331.2,618.9z"/>
				</g>
			</g>
		</g>
	</g>
</g>
</svg>
