<?xml version="1.0" encoding="utf-8"?>
<!-- Generator: Adobe Illustrator 25.0.1, SVG Export Plug-In . SVG Version: 6.00 Build 0)  -->
<svg version="1.1" id="Layer_1" xmlns="http://www.w3.org/2000/svg" xmlns:xlink="http://www.w3.org/1999/xlink" x="0px" y="0px"
	 viewBox="0 0 488.7 782" style="enable-background:new 0 0 488.7 782;" xml:space="preserve">
<style type="text/css">
	.st0{clip-path:url(#SVGID_2_);}
	.st1{clip-path:url(#SVGID_4_);fill:#0D1A3E;}
	.st2{clip-path:url(#SVGID_4_);}
	.st3{clip-path:url(#SVGID_6_);}
	.st4{opacity:0.8;clip-path:url(#SVGID_12_);}
	.st5{clip-path:url(#SVGID_14_);}
	.st6{clip-path:url(#SVGID_16_);}
	.st7{clip-path:url(#SVGID_20_);}
	.st8{clip-path:url(#SVGID_24_);fill:url(#SVGID_25_);}
	.st9{clip-path:url(#SVGID_27_);}
	.st10{clip-path:url(#SVGID_29_);}
	.st11{clip-path:url(#SVGID_31_);fill:url(#SVGID_32_);}
	.st12{clip-path:url(#SVGID_34_);}
	.st13{clip-path:url(#SVGID_36_);fill:url(#SVGID_37_);}
	.st14{clip-path:url(#SVGID_27_);fill:#E1AC25;}
	.st15{fill:#EACB4E;}
	.st16{font-family:'CormorantGaramond-Regular';}
	.st17{font-size:18.3274px;}
	.st18{clip-path:url(#SVGID_39_);fill:#E1AC25;}
	.st19{clip-path:url(#SVGID_39_);}
	.st20{opacity:0.8;clip-path:url(#SVGID_41_);}
	.st21{clip-path:url(#SVGID_43_);}
	.st22{clip-path:url(#SVGID_45_);}
	.st23{letter-spacing:2;}
	.st24{letter-spacing:1;}
	.st25{clip-path:url(#SVGID_49_);fill:none;stroke:#EACB4E;stroke-width:0.3055;stroke-miterlimit:10;}
	.st26{font-size:15.2728px;}
	.st27{clip-path:url(#SVGID_51_);fill:none;stroke:#EACB4E;stroke-width:0.3055;stroke-miterlimit:10;}
	.st28{font-size:14.6619px;}
	.st29{clip-path:url(#SVGID_53_);fill:none;stroke:#EACB4E;stroke-width:0.3055;stroke-miterlimit:10;}
	.st30{clip-path:url(#SVGID_55_);fill:url(#SVGID_56_);}
	.st31{clip-path:url(#SVGID_58_);fill:url(#SVGID_59_);}
	.st32{clip-path:url(#SVGID_61_);fill:url(#SVGID_62_);}
	
		.st33{clip-path:url(#SVGID_64_);fill:none;stroke:#E4AF23;stroke-width:3.0546;stroke-linecap:round;stroke-linejoin:round;stroke-miterlimit:10;}
</style>
<g>
	<g>
		<defs>
			<rect id="SVGID_1_" y="0" width="488.7" height="782"/>
		</defs>
		<clipPath id="SVGID_2_">
			<use xlink:href="#SVGID_1_"  style="overflow:visible;"/>
		</clipPath>
		<g class="st0">
			<defs>
				<rect id="SVGID_3_" y="0" width="488.7" height="782"/>
			</defs>
			<clipPath id="SVGID_4_">
				<use xlink:href="#SVGID_3_"  style="overflow:visible;"/>
			</clipPath>
			<rect y="0" class="st1" width="488.7" height="782"/>
			<g class="st2">
				<defs>
					<rect id="SVGID_5_" x="426.9" y="0" width="61.8" height="61.8"/>
				</defs>
				<clipPath id="SVGID_6_">
					<use xlink:href="#SVGID_5_"  style="overflow:visible;"/>
				</clipPath>
				<g class="st3">
					<defs>
						<rect id="SVGID_7_" x="426.9" y="0" width="61.8" height="61.8"/>
					</defs>
					<clipPath id="SVGID_8_">
						<use xlink:href="#SVGID_7_"  style="overflow:visible;"/>
					</clipPath>
					<g transform="matrix(8.719257e-03 0 0 8.719257e-03 426.9319 4.325305e-03)" style="clip-path:url(#SVGID_8_);">
						
							<image style="overflow:visible;" width="7088" height="7087" xlink:href="80C4B29D3DAE20D3.png"  transform="matrix(8.719257e-03 0 0 8.719257e-03 426.9319 4.325305e-03)">
						</image>
					</g>
				</g>
			</g>
			<g class="st2">
				<defs>
					<rect id="SVGID_9_" x="0" y="0" width="61.8" height="61.8"/>
				</defs>
				<clipPath id="SVGID_10_">
					<use xlink:href="#SVGID_9_"  style="overflow:visible;"/>
				</clipPath>
				<g transform="matrix(8.719257e-03 0 0 8.719257e-03 0 4.325305e-03)" style="clip-path:url(#SVGID_10_);">
					
						<image style="overflow:visible;" width="7088" height="7087" xlink:href="80C4B29D3DAE20D1.png"  transform="matrix(8.719257e-03 0 0 8.719257e-03 0 4.325305e-03)">
					</image>
				</g>
			</g>
			<g class="st2">
				<defs>
					<rect id="SVGID_11_" y="0" width="488.7" height="782"/>
				</defs>
				<clipPath id="SVGID_12_">
					<use xlink:href="#SVGID_11_"  style="overflow:visible;"/>
				</clipPath>
				<g class="st4">
					<g>
						<defs>
							<rect id="SVGID_13_" x="-219.9" y="-157" width="859.5" height="1289.3"/>
						</defs>
						<clipPath id="SVGID_14_">
							<use xlink:href="#SVGID_13_"  style="overflow:visible;"/>
						</clipPath>
						<g class="st5">
							<defs>
								<rect id="SVGID_15_" x="-219.9" y="-157" width="859.5" height="1289.3"/>
							</defs>
							<clipPath id="SVGID_16_">
								<use xlink:href="#SVGID_15_"  style="overflow:visible;"/>
							</clipPath>
							<g class="st6">
								<defs>
									<rect id="SVGID_17_" x="-219.9" y="-157" width="859.5" height="1289.3"/>
								</defs>
								<clipPath id="SVGID_18_">
									<use xlink:href="#SVGID_17_"  style="overflow:visible;"/>
								</clipPath>
								<g transform="matrix(1 0 0 1 0 0)" style="clip-path:url(#SVGID_18_);">
									
										<image style="overflow:visible;" width="6048" height="4032" xlink:href="80C4B29D3DAE20D7.jpg"  transform="matrix(0 0.2132 -0.2132 0 639.6228 -157.0019)">
									</image>
								</g>
							</g>
						</g>
					</g>
				</g>
			</g>
			<g class="st2">
				<defs>
					<rect id="SVGID_19_" x="51.9" y="182.9" width="380" height="492.5"/>
				</defs>
				<clipPath id="SVGID_20_">
					<use xlink:href="#SVGID_19_"  style="overflow:visible;"/>
				</clipPath>
				<g class="st7">
					<defs>
						<rect id="SVGID_21_" x="47.4" y="179.6" width="418.1" height="551.9"/>
					</defs>
					<clipPath id="SVGID_22_">
						<use xlink:href="#SVGID_21_"  style="overflow:visible;"/>
					</clipPath>
					<g style="clip-path:url(#SVGID_22_);">
						
							<image style="overflow:visible;" width="472" height="623" xlink:href="80C4B29D3DAE20D1.jpg"  transform="matrix(0.8859 0 0 0.8859 47.3928 179.6099)">
						</image>
					</g>
				</g>
			</g>
			<g class="st2">
				<defs>
					<path id="SVGID_23_" d="M479.3,731.5H451c-7.1,0-12.8,5.7-12.8,12.8v28.2c0,4.3-4,7.8-5.6,9.5l56.1-55.7c0,0-0.1-0.1-0.1-0.1
						C486.9,727.8,483.9,731.5,479.3,731.5"/>
				</defs>
				<clipPath id="SVGID_24_">
					<use xlink:href="#SVGID_23_"  style="overflow:visible;"/>
				</clipPath>
				
					<linearGradient id="SVGID_25_" gradientUnits="userSpaceOnUse" x1="-8.896987e-02" y1="-51.0693" x2="0.2165" y2="-51.0693" gradientTransform="matrix(62.5343 62.5343 62.5343 -62.5343 3641.0764 -2452.7769)">
					<stop  offset="0" style="stop-color:#EACB4E"/>
					<stop  offset="0.2992" style="stop-color:#E6C84E"/>
					<stop  offset="0.4605" style="stop-color:#DABE51"/>
					<stop  offset="0.5889" style="stop-color:#C9B155"/>
					<stop  offset="0.6999" style="stop-color:#B29F58"/>
					<stop  offset="0.7998" style="stop-color:#968A5A"/>
					<stop  offset="0.8917" style="stop-color:#787359"/>
					<stop  offset="0.9757" style="stop-color:#585B55"/>
					<stop  offset="1" style="stop-color:#4F5553"/>
				</linearGradient>
				<polygon class="st8" points="460.7,698 516.6,754 460.7,810 404.7,754 				"/>
			</g>
			<g class="st2">
				<defs>
					<rect id="SVGID_26_" y="0" width="488.7" height="782"/>
				</defs>
				<clipPath id="SVGID_27_">
					<use xlink:href="#SVGID_26_"  style="overflow:visible;"/>
				</clipPath>
				<g class="st9">
					<g>
						<defs>
							<rect id="SVGID_28_" x="432.5" y="726.2" width="56.1" height="55.8"/>
						</defs>
						<clipPath id="SVGID_29_">
							<use xlink:href="#SVGID_28_"  style="overflow:visible;"/>
						</clipPath>
						<g class="st10">
							<defs>
								<polygon id="SVGID_30_" points="432.5,782 488.7,782 488.7,726.2 								"/>
							</defs>
							<clipPath id="SVGID_31_">
								<use xlink:href="#SVGID_30_"  style="overflow:visible;"/>
							</clipPath>
							
								<radialGradient id="SVGID_32_" cx="-3.4079" cy="-39.4437" r="0.3055" gradientTransform="matrix(248.2307 0 0 -248.2307 1279.2202 -9064.2637)" gradientUnits="userSpaceOnUse">
								<stop  offset="0" style="stop-color:#57605F"/>
								<stop  offset="0.136" style="stop-color:#5A6261"/>
								<stop  offset="0.2514" style="stop-color:#626867"/>
								<stop  offset="0.3593" style="stop-color:#6F7473"/>
								<stop  offset="0.4627" style="stop-color:#848685"/>
								<stop  offset="0.5628" style="stop-color:#A1A1A1"/>
								<stop  offset="0.6591" style="stop-color:#C8C8C7"/>
								<stop  offset="0.7426" style="stop-color:#FFFFFF"/>
								<stop  offset="1" style="stop-color:#FFFFFF"/>
							</radialGradient>
							<rect x="432.5" y="726.2" class="st11" width="56.1" height="55.8"/>
						</g>
					</g>
				</g>
				<g class="st9">
					<g>
						<defs>
							<rect id="SVGID_33_" y="0" width="45.8" height="782"/>
						</defs>
						<clipPath id="SVGID_34_">
							<use xlink:href="#SVGID_33_"  style="overflow:visible;"/>
						</clipPath>
						<g class="st12">
							<defs>
								<rect id="SVGID_35_" y="0" width="45.8" height="782"/>
							</defs>
							<clipPath id="SVGID_36_">
								<use xlink:href="#SVGID_35_"  style="overflow:visible;"/>
							</clipPath>
							
								<linearGradient id="SVGID_37_" gradientUnits="userSpaceOnUse" x1="0.5594" y1="-47.0227" x2="0.8649" y2="-47.0227" gradientTransform="matrix(150 0 0 -150 -83.9154 -6662.4272)">
								<stop  offset="0" style="stop-color:#4D4D4E"/>
								<stop  offset="1" style="stop-color:#FFFFFF"/>
							</linearGradient>
							<rect y="0" class="st13" width="45.8" height="782"/>
						</g>
					</g>
				</g>
				<path class="st14" d="M432.2,729.4H52.9c-0.2,0-0.3-0.2-0.3-0.3c0-0.2,0.1-0.3,0.3-0.3h379.3c0.2,0,0.3,0.2,0.3,0.3
					C432.5,729.2,432.4,729.4,432.2,729.4"/>
			</g>
			<g class="st2">
				<text transform="matrix(1.0108 0 0 1 238.364 751.6839)" class="st15 st16 st17">4</text>
			</g>
			<g class="st2">
				<defs>
					<rect id="SVGID_38_" y="0" width="488.7" height="782"/>
				</defs>
				<clipPath id="SVGID_39_">
					<use xlink:href="#SVGID_38_"  style="overflow:visible;"/>
				</clipPath>
				<path class="st18" d="M432.2,58.3H52.9c-0.2,0-0.3-0.2-0.3-0.3c0-0.2,0.1-0.3,0.3-0.3h379.3c0.2,0,0.3,0.2,0.3,0.3
					C432.5,58.1,432.4,58.3,432.2,58.3"/>
				<g class="st19">
					<defs>
						<rect id="SVGID_40_" x="-553.2" y="0" width="488.7" height="782"/>
					</defs>
					<clipPath id="SVGID_41_">
						<use xlink:href="#SVGID_40_"  style="overflow:visible;"/>
					</clipPath>
					<g class="st20">
						<g>
							<defs>
								<rect id="SVGID_42_" x="-773.1" y="-157" width="859.5" height="1289.3"/>
							</defs>
							<clipPath id="SVGID_43_">
								<use xlink:href="#SVGID_42_"  style="overflow:visible;"/>
							</clipPath>
							<g class="st21">
								<defs>
									<rect id="SVGID_44_" x="-773.1" y="-157" width="859.5" height="1289.3"/>
								</defs>
								<clipPath id="SVGID_45_">
									<use xlink:href="#SVGID_44_"  style="overflow:visible;"/>
								</clipPath>
								<g class="st22">
									<defs>
										<rect id="SVGID_46_" x="-773.1" y="-157" width="859.5" height="1289.3"/>
									</defs>
									<clipPath id="SVGID_47_">
										<use xlink:href="#SVGID_46_"  style="overflow:visible;"/>
									</clipPath>
									<g transform="matrix(1 0 0 1 0 0)" style="clip-path:url(#SVGID_47_);">
										
											<image style="overflow:visible;" width="6048" height="4032" xlink:href="80C4B29D3DAE20D3.jpg"  transform="matrix(0 0.2132 -0.2132 0 86.4419 -157.0019)">
										</image>
									</g>
								</g>
							</g>
						</g>
					</g>
				</g>
			</g>
			<g class="st2">
				<text transform="matrix(1 0 0 1 80.9304 36.7806)"><tspan x="0" y="0" class="st15 st16 st17 st23">MANUSCRIPT</tspan><tspan x="136" y="0" class="st15 st16 st17 st24">S</tspan><tspan x="146.9" y="0" class="st15 st16 st17 st24"> </tspan><tspan x="153.1" y="0" class="st15 st16 st17 st23">FRO</tspan><tspan x="194.9" y="0" class="st15 st16 st17 st24">M</tspan><tspan x="212.1" y="0" class="st15 st16 st17 st24"> </tspan><tspan x="218.3" y="0" class="st15 st16 st17 st23">TIN</tspan><tspan x="255.4" y="0" class="st15 st16 st17 st24">BU</tspan><tspan x="282.4" y="0" class="st15 st16 st17 st23">CT</tspan><tspan x="310.6" y="0" class="st15 st16 st17">U</tspan></text>
			</g>
			<g class="st2">
				<defs>
					<rect id="SVGID_48_" y="0" width="488.7" height="782"/>
				</defs>
				<clipPath id="SVGID_49_">
					<use xlink:href="#SVGID_48_"  style="overflow:visible;"/>
				</clipPath>
				<path class="st25" d="M95.8,36.6c-0.5,0-0.8,0-1-0.1c-0.2-0.1-0.4-0.2-0.4-0.3c-0.1-0.2-0.1-0.4-0.1-0.8l-0.4-8.5
					c0-0.5,0.1-0.8,0.4-1c0.3-0.2,0.7-0.3,1.3-0.3c0,0,0.1,0,0.1-0.1s0-0.1-0.1-0.1c-0.3,0-0.5,0-0.6,0l-0.9,0c-0.2,0-0.4,0-0.5,0
					c-0.1,0-0.2,0-0.3,0c-0.2,0-0.4,0.2-0.5,0.5l-4,9.1l-4.1-8.6c-0.2-0.4-0.3-0.7-0.4-0.8c-0.1-0.1-0.2-0.2-0.4-0.2
					c-0.1,0-0.2,0-0.4,0c-0.2,0-0.3,0-0.6,0c-0.2,0-0.4,0-0.5,0l-0.7,0c0,0,0,0,0,0.1s0,0.1,0,0.1c0.6,0,1.1,0.2,1.5,0.7l-0.2,8.5
					c0,0.6-0.1,1.1-0.4,1.4c-0.2,0.3-0.6,0.4-1.1,0.4c0,0,0,0,0,0.1s0,0.1,0,0.1c0.3,0,0.6,0,0.7,0l1,0l1,0c0.2,0,0.4,0,0.8,0
					c0,0,0,0,0-0.1s0-0.1,0-0.1c-0.6,0-1-0.1-1.2-0.4c-0.2-0.3-0.3-0.7-0.3-1.4l0.2-7.7l4.5,9.6c0,0,0.1,0.1,0.2,0.1
					c0.1,0,0.1,0,0.1-0.1l4.2-9.7l0.3,8.3c0,0.4,0,0.6-0.1,0.8c-0.1,0.2-0.2,0.3-0.4,0.4c-0.2,0.1-0.5,0.1-0.9,0.1c0,0,0,0,0,0.1
					s0,0.1,0,0.1c0.4,0,0.6,0,0.8,0l1.2,0l1.3,0c0.2,0,0.5,0,0.9,0c0,0,0.1,0,0.1-0.1S95.8,36.6,95.8,36.6z"/>
				<path class="st25" d="M104.1,26.8l2.1,4.5h-4.1L104.1,26.8z M111.1,36.6c-0.4,0-0.8-0.2-1-0.5c-0.3-0.3-0.6-0.9-1.1-1.8
					l-4.3-9.1c0,0,0-0.1-0.1-0.1c-0.1,0-0.1,0-0.1,0.1l-3.9,9.1c-0.3,0.6-0.5,1.1-0.7,1.4c-0.2,0.3-0.4,0.5-0.7,0.7
					c-0.2,0.1-0.5,0.2-0.9,0.2c-0.1,0-0.1,0-0.1,0.1s0,0.1,0.1,0.1c0.2,0,0.6,0,0.9,0c0.4,0,0.8,0,1.1,0c0.3,0,0.7,0,1.2,0
					c0.4,0,0.7,0,1,0c0.1,0,0.1,0,0.1-0.1s0-0.1-0.1-0.1c-0.6,0-1-0.1-1.3-0.3c-0.3-0.2-0.4-0.5-0.4-0.8c0-0.3,0.1-0.6,0.3-1
					l1.2-2.7h4.4l1.6,3.5c0.2,0.4,0.2,0.6,0.2,0.8c0,0.2-0.1,0.4-0.3,0.4c-0.2,0.1-0.5,0.1-1,0.1c0,0-0.1,0-0.1,0.1s0,0.1,0.1,0.1
					c0.2,0,0.5,0,0.9,0c0.4,0,0.8,0,1,0c0.2,0,0.6,0,1.1,0c0.5,0,0.8,0,1.1,0c0,0,0.1,0,0.1-0.1S111.1,36.6,111.1,36.6z"/>
				<path class="st25" d="M126.1,25.3l-0.8,0c-0.4,0-0.7,0-0.9,0c-0.2,0-0.5,0-0.9,0l-0.7,0c0,0,0,0,0,0.1s0,0.1,0,0.1
					c0.5,0,0.9,0.1,1.1,0.4c0.2,0.3,0.3,0.7,0.3,1.4v7.6l-7.1-8.7c-0.1-0.2-0.3-0.4-0.4-0.6c-0.1-0.1-0.2-0.2-0.2-0.3
					c0,0-0.1-0.1-0.2-0.1c-0.1,0-0.2,0-0.4,0c-0.2,0-0.4,0-0.7,0c-0.3,0-0.5,0-0.6,0l-0.7,0c0,0-0.1,0-0.1,0.1s0,0.1,0.1,0.1
					c0.5,0,1,0.2,1.4,0.7v8.6c0,0.6-0.1,1.1-0.3,1.4c-0.2,0.3-0.6,0.4-1.1,0.4c0,0,0,0,0,0.1c0,0.1,0,0.1,0,0.1c0.3,0,0.6,0,0.8,0
					l0.9,0l0.9,0c0.2,0,0.4,0,0.7,0c0,0,0.1,0,0.1-0.1c0-0.1,0-0.1-0.1-0.1c-0.5,0-0.9-0.1-1.1-0.4c-0.2-0.3-0.3-0.7-0.3-1.4v-8.1
					l0.2,0.2l8.4,10.2c0,0,0.1,0,0.1,0c0.1,0,0.1,0,0.1-0.1v-9.7c0-0.6,0.1-1.1,0.3-1.4c0.2-0.3,0.6-0.4,1.1-0.4c0,0,0.1,0,0.1-0.1
					S126.1,25.3,126.1,25.3z"/>
				<path class="st25" d="M139,27.3v5.2c0,1.2-0.3,2.2-0.9,2.9c-0.6,0.7-1.5,1-2.6,1c-1.2,0-2.1-0.4-2.7-1.1c-0.7-0.8-1-1.9-1-3.3
					v-5.2c0-0.4,0-0.6,0.1-0.8c0.1-0.2,0.2-0.3,0.4-0.4c0.2-0.1,0.6-0.1,1-0.1c0,0,0.1,0,0.1-0.1s0-0.1-0.1-0.1l-0.9,0
					c-0.5,0-0.9,0-1.3,0c-0.3,0-0.7,0-1.2,0l-0.9,0c0,0,0,0,0,0.1s0,0.1,0,0.1c0.5,0,0.8,0,1,0.1c0.2,0.1,0.4,0.2,0.4,0.4
					c0.1,0.2,0.1,0.4,0.1,0.8v5.9c0,0.9,0.2,1.6,0.6,2.3c0.4,0.7,0.9,1.2,1.6,1.5c0.7,0.4,1.5,0.5,2.4,0.5c1.3,0,2.4-0.4,3.2-1.2
					c0.8-0.8,1.2-1.9,1.2-3.3v-5.2c0-1.2,0.5-1.8,1.5-1.8c0,0,0,0,0-0.1s0-0.1,0-0.1l-0.8,0c-0.4,0-0.7,0-0.9,0c-0.3,0-0.6,0-1,0
					l-0.8,0c0,0-0.1,0-0.1,0.1s0,0.1,0.1,0.1C138.4,25.5,139,26.1,139,27.3z"/>
				<path class="st25" d="M146,27.5c0-0.6,0.2-1.1,0.5-1.5c0.3-0.4,0.8-0.6,1.5-0.6c0.8,0,1.4,0.3,1.9,0.8c0.4,0.5,0.7,1.1,0.8,1.8
					c0,0,0,0.1,0.1,0.1c0.1,0,0.1,0,0.1-0.1l-0.1-2.1c0-0.1-0.1-0.3-0.3-0.3c-0.7-0.3-1.4-0.4-2.1-0.4c-0.6,0-1.1,0.1-1.7,0.3
					c-0.5,0.2-0.9,0.5-1.3,1c-0.3,0.4-0.5,1-0.5,1.6c0,0.5,0.1,1,0.3,1.4c0.2,0.4,0.5,0.7,0.9,1c0.3,0.3,0.8,0.6,1.4,0.9
					c0.6,0.4,1.1,0.7,1.4,0.9c0.3,0.3,0.6,0.6,0.9,1c0.2,0.4,0.4,0.9,0.4,1.4c0,0.7-0.2,1.3-0.6,1.6c-0.4,0.3-0.9,0.5-1.5,0.5
					c-0.9,0-1.6-0.3-2.1-1c-0.5-0.6-0.9-1.4-1.1-2.3c0,0-0.1-0.1-0.1-0.1c-0.1,0-0.1,0-0.1,0.1l0.2,2.5c0,0.1,0,0.2,0,0.2
					c0,0,0.1,0.1,0.1,0.1c0.8,0.4,1.6,0.6,2.6,0.6c0.8,0,1.5-0.1,2-0.4c0.6-0.3,1-0.7,1.3-1.1c0.3-0.5,0.4-1,0.4-1.6
					c0-0.5-0.1-1-0.4-1.4c-0.3-0.4-0.5-0.7-0.9-1c-0.3-0.3-0.8-0.6-1.5-1c-0.6-0.4-1-0.7-1.4-0.9c-0.3-0.2-0.6-0.5-0.9-0.9
					C146.1,28.4,146,27.9,146,27.5z"/>
				<path class="st25" d="M161.8,25.1c-1.3,0-2.4,0.2-3.4,0.7c-1,0.5-1.8,1.2-2.4,2.1c-0.6,0.9-0.9,1.9-0.9,3.1
					c0,1.2,0.3,2.2,0.8,3.2c0.6,0.9,1.3,1.6,2.4,2.1c1,0.5,2.2,0.8,3.4,0.8c0.7,0,1.4-0.1,1.9-0.2c0.6-0.1,1.2-0.3,1.8-0.6
					c0.1,0,0.1-0.1,0.1-0.1c0,0,0-0.1,0.1-0.3l0.2-2c0,0,0-0.1-0.1-0.1c-0.1,0-0.1,0-0.1,0c-0.3,1-0.8,1.7-1.4,2.2
					c-0.6,0.5-1.4,0.7-2.4,0.7c-0.9,0-1.8-0.3-2.6-0.8c-0.8-0.5-1.4-1.2-1.9-2.1c-0.5-0.9-0.7-1.9-0.7-2.9c0-1.1,0.2-2.1,0.6-2.9
					c0.4-0.8,1-1.5,1.8-1.9c0.8-0.5,1.7-0.7,2.7-0.7c2,0,3.2,1,3.8,3.1c0,0,0.1,0.1,0.1,0c0.1,0,0.1,0,0.1-0.1l-0.2-2.2
					c0-0.1,0-0.2-0.1-0.3c0,0-0.1-0.1-0.1-0.1c-0.5-0.3-1.1-0.5-1.6-0.6C163.3,25.2,162.6,25.1,161.8,25.1z"/>
				<path class="st25" d="M172.5,30.7v-3.8c0-0.5,0.1-0.9,0.3-1c0.2-0.2,0.5-0.3,1-0.3c0.8,0,1.4,0.2,1.8,0.6
					c0.4,0.4,0.6,1.1,0.6,2.1c0,0.9-0.2,1.5-0.6,1.9c-0.4,0.4-1.1,0.6-2,0.6C173.1,30.8,172.8,30.7,172.5,30.7z M181.4,36.6
					c-0.5,0-1.1-0.2-1.6-0.5c-0.5-0.4-1.2-1-1.9-1.8c-0.7-0.8-1.6-2-2.6-3.5c0.6-0.3,1.1-0.7,1.5-1.3c0.4-0.5,0.6-1.1,0.6-1.8
					c0-0.7-0.3-1.3-0.8-1.8c-0.5-0.4-1.3-0.7-2.2-0.7c-0.4,0-0.8,0-1.2,0.1c-0.2,0-0.4,0-0.6,0c-0.2,0-0.5,0-0.8,0
					c-0.3,0-0.7,0-1.2,0l-0.9,0c0,0-0.1,0-0.1,0.1s0,0.1,0.1,0.1c0.5,0,0.8,0,1,0.1c0.2,0.1,0.4,0.2,0.4,0.4
					c0.1,0.2,0.1,0.4,0.1,0.8v8.5c0,0.4,0,0.6-0.1,0.8c-0.1,0.2-0.2,0.3-0.4,0.4c-0.2,0.1-0.6,0.1-1,0.1c0,0,0,0,0,0.1s0,0.1,0,0.1
					c0.4,0,0.7,0,0.9,0l1.2,0l1.3,0c0.2,0,0.5,0,0.9,0c0,0,0.1,0,0.1-0.1s0-0.1-0.1-0.1c-0.5,0-0.8,0-1-0.1
					c-0.2-0.1-0.4-0.2-0.4-0.3c-0.1-0.2-0.1-0.4-0.1-0.8v-4.2c0.5,0,0.8,0.1,0.8,0.1c0.4,0,0.7,0,1-0.1c1.2,1.8,2.2,3.2,3,4.2
					c0.8,1,1.4,1.5,1.7,1.5h2.4c0,0,0,0,0-0.1S181.4,36.6,181.4,36.6z"/>
				<path class="st25" d="M186.9,35.3v-8.4c0-0.4,0-0.6,0.1-0.8c0.1-0.2,0.2-0.3,0.4-0.4c0.2-0.1,0.5-0.1,1-0.1c0,0,0.1,0,0.1-0.1
					s0-0.1-0.1-0.1l-0.9,0c-0.5,0-1,0-1.3,0c-0.3,0-0.8,0-1.3,0l-0.9,0c0,0-0.1,0-0.1,0.1s0,0.1,0.1,0.1c0.5,0,0.8,0,1,0.1
					c0.2,0.1,0.4,0.2,0.4,0.4c0.1,0.2,0.1,0.4,0.1,0.8v8.5c0,0.4,0,0.6-0.1,0.8c-0.1,0.2-0.2,0.3-0.4,0.4c-0.2,0.1-0.6,0.1-1,0.1
					c0,0-0.1,0-0.1,0.1c0,0.1,0,0.1,0.1,0.1c0.4,0,0.7,0,0.9,0l1.3,0l1.3,0c0.2,0,0.5,0,0.9,0c0,0,0.1,0,0.1-0.1
					c0-0.1,0-0.1-0.1-0.1c-0.5,0-0.8,0-1-0.1c-0.2-0.1-0.4-0.2-0.4-0.4C186.9,35.9,186.9,35.7,186.9,35.3z"/>
				<path class="st25" d="M194.9,35.2v-8.4c0-0.4,0-0.7,0.1-0.9c0.1-0.2,0.2-0.3,0.4-0.3c0.2,0,0.5-0.1,1-0.1c0.8,0,1.5,0.3,2,0.8
					c0.5,0.6,0.8,1.3,0.8,2.3c0,1-0.3,1.7-0.8,2.3c-0.6,0.5-1.2,0.8-2,0.8c-0.2,0-0.5,0-0.7-0.1c0,0,0,0-0.1,0c0,0,0,0.1,0,0.1
					c0,0.1,0,0.1,0.1,0.1c0.2,0.1,0.5,0.1,0.9,0.1c0.7,0,1.3-0.1,1.9-0.4c0.6-0.3,1.1-0.7,1.5-1.2c0.4-0.5,0.6-1.2,0.6-2
					c0-1-0.3-1.8-1-2.3c-0.7-0.5-1.6-0.8-2.7-0.8c-0.2,0-0.5,0-0.8,0c-0.3,0-0.5,0-0.7,0c-0.4,0-0.7,0.1-1,0.1c-0.3,0-0.7,0-1.2,0
					l-0.9,0c0,0,0,0,0,0.1s0,0.1,0,0.1c0.5,0,0.8,0,1,0.1c0.2,0.1,0.4,0.2,0.4,0.4c0.1,0.2,0.1,0.4,0.1,0.8v8.5c0,0.4,0,0.6-0.1,0.8
					c-0.1,0.2-0.2,0.3-0.4,0.4c-0.2,0.1-0.6,0.1-1,0.1c0,0,0,0,0,0.1c0,0.1,0,0.1,0,0.1c0.4,0,0.7,0,0.9,0l1.2,0l1.6,0
					c0.3,0,0.7,0,1.2,0c0,0,0.1,0,0.1-0.1c0-0.1,0-0.1-0.1-0.1c-0.6,0-1.1,0-1.4-0.1c-0.3-0.1-0.5-0.2-0.6-0.4
					C194.9,35.9,194.9,35.6,194.9,35.2z"/>
				<path class="st25" d="M206.8,25.7c0.5,0,0.9,0,1.2,0.1c0.2,0,0.4,0.1,0.5,0.3c0.1,0.2,0.1,0.4,0.1,0.8v8.5c0,0.4,0,0.6-0.1,0.8
					c-0.1,0.2-0.3,0.3-0.5,0.4c-0.2,0.1-0.6,0.1-1.2,0.1c0,0,0,0,0,0.1c0,0.1,0,0.1,0,0.1c0.4,0,0.8,0,1,0l1.4,0l1.4,0
					c0.2,0,0.6,0,1,0c0,0,0.1,0,0.1-0.1c0-0.1,0-0.1-0.1-0.1c-0.5,0-0.9,0-1.2-0.1c-0.2-0.1-0.4-0.2-0.5-0.3
					c-0.1-0.2-0.1-0.4-0.1-0.8v-8.4c0-0.4,0-0.6,0.1-0.8c0.1-0.2,0.2-0.3,0.5-0.3c0.2,0,0.6-0.1,1.2-0.1c0.8,0,1.4,0.2,1.8,0.6
					c0.4,0.4,0.5,1.1,0.6,2c0,0,0,0,0.1,0c0.1,0,0.1,0,0.1,0c0-0.5,0-1,0.1-1.8c0-0.7,0.1-1.3,0.1-1.6c0,0,0-0.1-0.1-0.1
					c-0.1,0-0.1,0-0.1,0.1c-0.1,0.2-0.2,0.3-0.4,0.4c-0.2,0.1-0.5,0.1-1,0.1l-1.2,0c-0.8,0-1.6,0-2.3,0c-1.4,0-2.6,0-3.7-0.1
					c-0.7,0-1-0.1-1-0.4c0-0.1,0-0.1-0.1-0.1c-0.1,0-0.1,0-0.1,0.1c0,0.4,0,0.9-0.1,1.6c-0.1,0.7-0.1,1.3-0.2,1.7c0,0,0,0,0.1,0
					c0.1,0,0.1,0,0.1,0c0.2-0.9,0.4-1.6,0.8-2C205.4,25.9,206,25.7,206.8,25.7z"/>
				<path class="st25" d="M219.6,27.5c0-0.6,0.2-1.1,0.5-1.5c0.3-0.4,0.8-0.6,1.5-0.6c0.8,0,1.4,0.3,1.9,0.8
					c0.4,0.5,0.7,1.1,0.8,1.8c0,0,0,0.1,0.1,0.1c0.1,0,0.1,0,0.1-0.1l-0.1-2.1c0-0.1-0.1-0.3-0.3-0.3c-0.7-0.3-1.4-0.4-2.1-0.4
					c-0.6,0-1.1,0.1-1.7,0.3c-0.5,0.2-0.9,0.5-1.3,1c-0.3,0.4-0.5,1-0.5,1.6c0,0.5,0.1,1,0.3,1.4c0.2,0.4,0.5,0.7,0.9,1
					c0.3,0.3,0.8,0.6,1.4,0.9c0.6,0.4,1.1,0.7,1.4,0.9c0.3,0.3,0.6,0.6,0.9,1c0.2,0.4,0.4,0.9,0.4,1.4c0,0.7-0.2,1.3-0.6,1.6
					c-0.4,0.3-0.9,0.5-1.5,0.5c-0.9,0-1.6-0.3-2.1-1c-0.5-0.6-0.9-1.4-1.1-2.3c0,0-0.1-0.1-0.1-0.1c-0.1,0-0.1,0-0.1,0.1l0.2,2.5
					c0,0.1,0,0.2,0,0.2c0,0,0.1,0.1,0.1,0.1c0.8,0.4,1.6,0.6,2.6,0.6c0.8,0,1.5-0.1,2-0.4c0.6-0.3,1-0.7,1.3-1.1
					c0.3-0.5,0.4-1,0.4-1.6c0-0.5-0.1-1-0.4-1.4c-0.3-0.4-0.5-0.7-0.9-1c-0.3-0.3-0.8-0.6-1.5-1c-0.6-0.4-1-0.7-1.4-0.9
					c-0.3-0.2-0.6-0.5-0.9-0.9C219.7,28.4,219.6,27.9,219.6,27.5z"/>
				<path class="st25" d="M242.4,25.5c0-0.1-0.1-0.2-0.2-0.2h-7.4c0,0,0,0,0,0.1s0,0.1,0,0.1c0.5,0,0.8,0,1,0.1
					c0.2,0.1,0.4,0.2,0.4,0.4c0.1,0.2,0.1,0.4,0.1,0.8v8.5c0,0.4,0,0.6-0.1,0.8c-0.1,0.2-0.2,0.3-0.4,0.4c-0.2,0.1-0.6,0.1-1,0.1
					c0,0,0,0,0,0.1c0,0.1,0,0.1,0,0.1c0.4,0,0.7,0,0.9,0l1.2,0l1.6,0c0.3,0,0.7,0,1.2,0c0,0,0.1,0,0.1-0.1c0-0.1,0-0.1-0.1-0.1
					c-0.7,0-1.1,0-1.4-0.1c-0.3-0.1-0.5-0.2-0.6-0.4c-0.1-0.2-0.2-0.5-0.2-0.9v-4h1.8c0.7,0,1.2,0.1,1.4,0.3
					c0.3,0.2,0.4,0.6,0.4,1.2c0,0,0,0,0.1,0c0.1,0,0.1,0,0.1,0l0-0.9c0-0.2,0-0.5,0-0.8l0-1.5c0,0,0,0-0.1,0c-0.1,0-0.1,0-0.1,0
					c0,0.5-0.1,0.8-0.4,1c-0.3,0.2-0.7,0.3-1.4,0.3h-1.9v-4c0-0.3,0-0.5,0.1-0.7c0.1-0.2,0.2-0.3,0.4-0.3c0.2-0.1,0.5-0.1,0.9-0.1
					h1.1c0.6,0,1.1,0.2,1.4,0.5c0.4,0.4,0.5,0.9,0.6,1.5c0,0,0,0.1,0.1,0c0.1,0,0.1,0,0.1-0.1L242.4,25.5z"/>
				<path class="st25" d="M249,30.7v-3.8c0-0.5,0.1-0.9,0.3-1c0.2-0.2,0.5-0.3,1-0.3c0.8,0,1.4,0.2,1.8,0.6c0.4,0.4,0.6,1.1,0.6,2.1
					c0,0.9-0.2,1.5-0.6,1.9c-0.4,0.4-1.1,0.6-2,0.6C249.7,30.8,249.3,30.7,249,30.7z M258,36.6c-0.5,0-1.1-0.2-1.6-0.5
					c-0.5-0.4-1.2-1-1.9-1.8c-0.7-0.8-1.6-2-2.6-3.5c0.6-0.3,1.1-0.7,1.5-1.3c0.4-0.5,0.6-1.1,0.6-1.8c0-0.7-0.3-1.3-0.8-1.8
					c-0.5-0.4-1.3-0.7-2.2-0.7c-0.4,0-0.8,0-1.2,0.1c-0.2,0-0.4,0-0.6,0c-0.2,0-0.5,0-0.8,0c-0.3,0-0.7,0-1.2,0l-0.9,0
					c0,0-0.1,0-0.1,0.1s0,0.1,0.1,0.1c0.5,0,0.8,0,1,0.1c0.2,0.1,0.4,0.2,0.4,0.4c0.1,0.2,0.1,0.4,0.1,0.8v8.5c0,0.4,0,0.6-0.1,0.8
					c-0.1,0.2-0.2,0.3-0.4,0.4c-0.2,0.1-0.6,0.1-1,0.1c0,0,0,0,0,0.1s0,0.1,0,0.1c0.4,0,0.7,0,0.9,0l1.2,0l1.3,0c0.2,0,0.5,0,0.9,0
					c0,0,0.1,0,0.1-0.1s0-0.1-0.1-0.1c-0.5,0-0.8,0-1-0.1c-0.2-0.1-0.4-0.2-0.4-0.3c-0.1-0.2-0.1-0.4-0.1-0.8v-4.2
					c0.5,0,0.8,0.1,0.8,0.1c0.4,0,0.7,0,1-0.1c1.2,1.8,2.2,3.2,3,4.2c0.8,1,1.4,1.5,1.7,1.5h2.4c0,0,0,0,0-0.1S258,36.6,258,36.6z"
					/>
				<path class="st25" d="M267.1,36.6c-1,0-1.9-0.3-2.6-0.8c-0.8-0.5-1.4-1.3-1.8-2.2c-0.4-0.9-0.6-2-0.6-3.1c0-1.5,0.4-2.7,1.1-3.6
					c0.8-0.9,1.8-1.3,3.2-1.3c1,0,1.9,0.3,2.7,0.8c0.8,0.5,1.4,1.2,1.8,2.1c0.4,0.9,0.6,1.9,0.6,3.1c0,1.1-0.2,2-0.6,2.8
					c-0.4,0.8-0.9,1.4-1.6,1.8C268.7,36.4,268,36.6,267.1,36.6z M266.5,37c1.1,0,2.2-0.3,3.2-0.8c1-0.5,1.8-1.3,2.4-2.2
					c0.6-0.9,0.9-1.9,0.9-3.1c0-1-0.2-1.9-0.7-2.8c-0.5-0.9-1.1-1.6-2-2.2c-0.9-0.5-1.9-0.8-3.1-0.8c-1,0-2.1,0.2-3.1,0.7
					c-1,0.5-1.8,1.1-2.4,2c-0.6,0.9-1,2-1,3.2c0,1.1,0.2,2.1,0.7,3c0.5,0.9,1.2,1.6,2.1,2.2C264.3,36.7,265.4,37,266.5,37z"/>
				<path class="st25" d="M290.7,36.6c-0.5,0-0.8,0-1-0.1c-0.2-0.1-0.4-0.2-0.4-0.3c-0.1-0.2-0.1-0.4-0.1-0.8l-0.4-8.5
					c0-0.5,0.1-0.8,0.4-1c0.3-0.2,0.7-0.3,1.3-0.3c0,0,0.1,0,0.1-0.1s0-0.1-0.1-0.1c-0.3,0-0.5,0-0.6,0l-0.9,0c-0.2,0-0.4,0-0.5,0
					c-0.1,0-0.2,0-0.3,0c-0.2,0-0.4,0.2-0.5,0.5l-4,9.1l-4.1-8.6c-0.2-0.4-0.3-0.7-0.4-0.8c-0.1-0.1-0.2-0.2-0.4-0.2
					c-0.1,0-0.2,0-0.4,0c-0.2,0-0.3,0-0.6,0c-0.2,0-0.4,0-0.5,0l-0.7,0c0,0,0,0,0,0.1s0,0.1,0,0.1c0.6,0,1.1,0.2,1.5,0.7l-0.2,8.5
					c0,0.6-0.1,1.1-0.4,1.4c-0.2,0.3-0.6,0.4-1.1,0.4c0,0,0,0,0,0.1s0,0.1,0,0.1c0.3,0,0.6,0,0.7,0l1,0l1,0c0.2,0,0.4,0,0.8,0
					c0,0,0,0,0-0.1s0-0.1,0-0.1c-0.6,0-1-0.1-1.2-0.4c-0.2-0.3-0.3-0.7-0.3-1.4l0.2-7.7l4.5,9.6c0,0,0.1,0.1,0.2,0.1
					c0.1,0,0.1,0,0.1-0.1l4.2-9.7l0.3,8.3c0,0.4,0,0.6-0.1,0.8c-0.1,0.2-0.2,0.3-0.4,0.4c-0.2,0.1-0.5,0.1-0.9,0.1c0,0,0,0,0,0.1
					s0,0.1,0,0.1c0.4,0,0.6,0,0.8,0l1.2,0l1.3,0c0.2,0,0.5,0,0.9,0c0,0,0.1,0,0.1-0.1S290.8,36.6,290.7,36.6z"/>
				<path class="st25" d="M302.8,25.7c0.5,0,0.9,0,1.2,0.1c0.2,0,0.4,0.1,0.5,0.3c0.1,0.2,0.1,0.4,0.1,0.8v8.5c0,0.4,0,0.6-0.1,0.8
					c-0.1,0.2-0.3,0.3-0.5,0.4c-0.2,0.1-0.6,0.1-1.2,0.1c0,0,0,0,0,0.1c0,0.1,0,0.1,0,0.1c0.4,0,0.8,0,1,0l1.4,0l1.4,0
					c0.2,0,0.6,0,1,0c0,0,0.1,0,0.1-0.1c0-0.1,0-0.1-0.1-0.1c-0.5,0-0.9,0-1.2-0.1c-0.2-0.1-0.4-0.2-0.5-0.3
					c-0.1-0.2-0.1-0.4-0.1-0.8v-8.4c0-0.4,0-0.6,0.1-0.8c0.1-0.2,0.2-0.3,0.5-0.3c0.2,0,0.6-0.1,1.2-0.1c0.8,0,1.4,0.2,1.8,0.6
					c0.4,0.4,0.5,1.1,0.6,2c0,0,0,0,0.1,0c0.1,0,0.1,0,0.1,0c0-0.5,0-1,0.1-1.8c0-0.7,0.1-1.3,0.1-1.6c0,0,0-0.1-0.1-0.1
					c-0.1,0-0.1,0-0.1,0.1c-0.1,0.2-0.2,0.3-0.4,0.4c-0.2,0.1-0.5,0.1-1,0.1l-1.2,0c-0.8,0-1.6,0-2.3,0c-1.4,0-2.6,0-3.7-0.1
					c-0.7,0-1-0.1-1-0.4c0-0.1,0-0.1-0.1-0.1c-0.1,0-0.1,0-0.1,0.1c0,0.4,0,0.9-0.1,1.6c-0.1,0.7-0.1,1.3-0.2,1.7c0,0,0,0,0.1,0
					c0.1,0,0.1,0,0.1,0c0.2-0.9,0.4-1.6,0.8-2C301.4,25.9,302,25.7,302.8,25.7z"/>
				<path class="st25" d="M316.6,35.3v-8.4c0-0.4,0-0.6,0.1-0.8c0.1-0.2,0.2-0.3,0.4-0.4c0.2-0.1,0.5-0.1,1-0.1c0,0,0.1,0,0.1-0.1
					s0-0.1-0.1-0.1l-0.9,0c-0.5,0-1,0-1.3,0c-0.3,0-0.8,0-1.3,0l-0.9,0c0,0-0.1,0-0.1,0.1s0,0.1,0.1,0.1c0.5,0,0.8,0,1,0.1
					c0.2,0.1,0.4,0.2,0.4,0.4c0.1,0.2,0.1,0.4,0.1,0.8v8.5c0,0.4,0,0.6-0.1,0.8c-0.1,0.2-0.2,0.3-0.4,0.4c-0.2,0.1-0.6,0.1-1,0.1
					c0,0-0.1,0-0.1,0.1c0,0.1,0,0.1,0.1,0.1c0.4,0,0.7,0,0.9,0l1.3,0l1.3,0c0.2,0,0.5,0,0.9,0c0,0,0.1,0,0.1-0.1
					c0-0.1,0-0.1-0.1-0.1c-0.5,0-0.8,0-1-0.1c-0.2-0.1-0.4-0.2-0.4-0.4C316.6,35.9,316.6,35.7,316.6,35.3z"/>
				<path class="st25" d="M333.9,25.3l-0.8,0c-0.4,0-0.7,0-0.9,0c-0.2,0-0.5,0-0.9,0l-0.7,0c0,0,0,0,0,0.1s0,0.1,0,0.1
					c0.5,0,0.9,0.1,1.1,0.4c0.2,0.3,0.3,0.7,0.3,1.4v7.6l-7.1-8.7c-0.1-0.2-0.3-0.4-0.4-0.6c-0.1-0.1-0.2-0.2-0.2-0.3
					c0,0-0.1-0.1-0.2-0.1c-0.1,0-0.2,0-0.4,0c-0.2,0-0.4,0-0.7,0c-0.3,0-0.5,0-0.6,0l-0.7,0c0,0-0.1,0-0.1,0.1s0,0.1,0.1,0.1
					c0.5,0,1,0.2,1.4,0.7v8.6c0,0.6-0.1,1.1-0.3,1.4c-0.2,0.3-0.6,0.4-1.1,0.4c0,0,0,0,0,0.1c0,0.1,0,0.1,0,0.1c0.3,0,0.6,0,0.8,0
					l0.9,0l0.9,0c0.2,0,0.4,0,0.7,0c0,0,0.1,0,0.1-0.1c0-0.1,0-0.1-0.1-0.1c-0.5,0-0.9-0.1-1.1-0.4c-0.2-0.3-0.3-0.7-0.3-1.4v-8.1
					l0.2,0.2l8.4,10.2c0,0,0.1,0,0.1,0c0.1,0,0.1,0,0.1-0.1v-9.7c0-0.6,0.1-1.1,0.3-1.4c0.2-0.3,0.6-0.4,1.1-0.4c0,0,0.1,0,0.1-0.1
					S334,25.3,333.9,25.3z"/>
				<path class="st25" d="M341.8,36.5c-0.5,0-0.9,0-1.1-0.1c-0.3-0.1-0.4-0.2-0.5-0.4c-0.1-0.2-0.1-0.4-0.1-0.7v-4.5
					c0.5,0,1,0,1.4,0c1,0,1.7,0.3,2.2,0.9c0.5,0.6,0.8,1.3,0.8,2.3c0,0.9-0.2,1.5-0.7,2C343.3,36.3,342.7,36.5,341.8,36.5z
					 M341.1,25.5c0.8,0,1.3,0.2,1.7,0.6c0.4,0.4,0.6,1,0.6,1.7c0,0.8-0.2,1.4-0.6,1.8c-0.4,0.5-1.1,0.7-2,0.7l-0.8,0v-3.5
					c0-0.4,0-0.7,0.1-0.9c0.1-0.2,0.2-0.3,0.3-0.3C340.6,25.6,340.8,25.5,341.1,25.5z M342.5,30.3c0.7-0.3,1.2-0.6,1.6-1.1
					c0.4-0.5,0.6-1,0.6-1.6c0-0.7-0.3-1.3-0.8-1.8c-0.5-0.4-1.3-0.7-2.3-0.7c-0.3,0-0.7,0-1.1,0.1c-0.1,0-0.3,0-0.5,0
					c-0.2,0-0.4,0-0.6,0c-0.3,0-0.7,0-1.2,0l-0.9,0c0,0-0.1,0-0.1,0.1s0,0.1,0.1,0.1c0.5,0,0.8,0,1,0.1c0.2,0.1,0.4,0.2,0.4,0.4
					c0.1,0.2,0.1,0.4,0.1,0.8v8.5c0,0.4,0,0.6-0.1,0.8c-0.1,0.2-0.2,0.3-0.5,0.4c-0.2,0.1-0.6,0.1-1,0.1c0,0,0,0,0,0.1s0,0.1,0,0.1
					c0.4,0,0.7,0,0.9,0l1.2,0c0.3,0,0.5,0,0.8,0c0.2,0,0.4,0,0.6,0c0.5,0,0.9,0.1,1.3,0.1c0.7,0,1.3-0.1,1.9-0.4
					c0.6-0.3,1-0.7,1.3-1.2c0.3-0.5,0.5-1.1,0.5-1.8c0-0.8-0.3-1.5-0.9-2.1C344.2,30.7,343.4,30.4,342.5,30.3z"/>
				<path class="st25" d="M359.1,27.3v5.2c0,1.2-0.3,2.2-0.9,2.9c-0.6,0.7-1.5,1-2.6,1c-1.2,0-2.1-0.4-2.7-1.1c-0.7-0.8-1-1.9-1-3.3
					v-5.2c0-0.4,0-0.6,0.1-0.8c0.1-0.2,0.2-0.3,0.4-0.4c0.2-0.1,0.6-0.1,1-0.1c0,0,0.1,0,0.1-0.1s0-0.1-0.1-0.1l-0.9,0
					c-0.5,0-0.9,0-1.3,0c-0.3,0-0.7,0-1.2,0l-0.9,0c0,0,0,0,0,0.1s0,0.1,0,0.1c0.5,0,0.8,0,1,0.1c0.2,0.1,0.4,0.2,0.4,0.4
					c0.1,0.2,0.1,0.4,0.1,0.8v5.9c0,0.9,0.2,1.6,0.6,2.3c0.4,0.7,0.9,1.2,1.6,1.5c0.7,0.4,1.5,0.5,2.4,0.5c1.3,0,2.4-0.4,3.2-1.2
					c0.8-0.8,1.2-1.9,1.2-3.3v-5.2c0-1.2,0.5-1.8,1.5-1.8c0,0,0,0,0-0.1s0-0.1,0-0.1l-0.8,0c-0.4,0-0.7,0-0.9,0c-0.3,0-0.6,0-1,0
					l-0.8,0c0,0-0.1,0-0.1,0.1s0,0.1,0.1,0.1C358.6,25.5,359.1,26.1,359.1,27.3z"/>
				<path class="st25" d="M371,25.1c-1.3,0-2.4,0.2-3.4,0.7c-1,0.5-1.8,1.2-2.4,2.1c-0.6,0.9-0.9,1.9-0.9,3.1c0,1.2,0.3,2.2,0.8,3.2
					c0.6,0.9,1.3,1.6,2.4,2.1c1,0.5,2.2,0.8,3.4,0.8c0.7,0,1.4-0.1,1.9-0.2c0.6-0.1,1.2-0.3,1.8-0.6c0.1,0,0.1-0.1,0.1-0.1
					c0,0,0-0.1,0.1-0.3l0.2-2c0,0,0-0.1-0.1-0.1c-0.1,0-0.1,0-0.1,0c-0.3,1-0.8,1.7-1.4,2.2c-0.6,0.5-1.4,0.7-2.4,0.7
					c-0.9,0-1.8-0.3-2.6-0.8c-0.8-0.5-1.4-1.2-1.9-2.1c-0.5-0.9-0.7-1.9-0.7-2.9c0-1.1,0.2-2.1,0.6-2.9c0.4-0.8,1-1.5,1.8-1.9
					c0.8-0.5,1.7-0.7,2.7-0.7c2,0,3.2,1,3.8,3.1c0,0,0.1,0.1,0.1,0c0.1,0,0.1,0,0.1-0.1l-0.2-2.2c0-0.1,0-0.2-0.1-0.3
					c0,0-0.1-0.1-0.1-0.1c-0.5-0.3-1.1-0.5-1.6-0.6C372.4,25.2,371.7,25.1,371,25.1z"/>
				<path class="st25" d="M381.5,25.7c0.5,0,0.9,0,1.2,0.1c0.2,0,0.4,0.1,0.5,0.3c0.1,0.2,0.1,0.4,0.1,0.8v8.5c0,0.4,0,0.6-0.1,0.8
					c-0.1,0.2-0.3,0.3-0.5,0.4c-0.2,0.1-0.6,0.1-1.2,0.1c0,0,0,0,0,0.1c0,0.1,0,0.1,0,0.1c0.4,0,0.8,0,1,0l1.4,0l1.4,0
					c0.2,0,0.6,0,1,0c0,0,0.1,0,0.1-0.1c0-0.1,0-0.1-0.1-0.1c-0.5,0-0.9,0-1.2-0.1c-0.2-0.1-0.4-0.2-0.5-0.3
					c-0.1-0.2-0.1-0.4-0.1-0.8v-8.4c0-0.4,0-0.6,0.1-0.8c0.1-0.2,0.2-0.3,0.5-0.3c0.2,0,0.6-0.1,1.2-0.1c0.8,0,1.4,0.2,1.8,0.6
					c0.4,0.4,0.5,1.1,0.6,2c0,0,0,0,0.1,0c0.1,0,0.1,0,0.1,0c0-0.5,0-1,0.1-1.8c0-0.7,0.1-1.3,0.1-1.6c0,0,0-0.1-0.1-0.1
					c-0.1,0-0.1,0-0.1,0.1c-0.1,0.2-0.2,0.3-0.4,0.4c-0.2,0.1-0.5,0.1-1,0.1l-1.2,0c-0.8,0-1.6,0-2.3,0c-1.4,0-2.6,0-3.7-0.1
					c-0.7,0-1-0.1-1-0.4c0-0.1,0-0.1-0.1-0.1c-0.1,0-0.1,0-0.1,0.1c0,0.4,0,0.9-0.1,1.6c-0.1,0.7-0.1,1.3-0.2,1.7c0,0,0,0,0.1,0
					c0.1,0,0.1,0,0.1,0c0.2-0.9,0.4-1.6,0.8-2C380.1,25.9,380.7,25.7,381.5,25.7z"/>
				<path class="st25" d="M402.1,27.3v5.2c0,1.2-0.3,2.2-0.9,2.9c-0.6,0.7-1.5,1-2.6,1c-1.2,0-2.1-0.4-2.7-1.1c-0.7-0.8-1-1.9-1-3.3
					v-5.2c0-0.4,0-0.6,0.1-0.8c0.1-0.2,0.2-0.3,0.4-0.4c0.2-0.1,0.6-0.1,1-0.1c0,0,0.1,0,0.1-0.1s0-0.1-0.1-0.1l-0.9,0
					c-0.5,0-0.9,0-1.3,0c-0.3,0-0.7,0-1.2,0l-0.9,0c0,0,0,0,0,0.1s0,0.1,0,0.1c0.5,0,0.8,0,1,0.1c0.2,0.1,0.4,0.2,0.4,0.4
					c0.1,0.2,0.1,0.4,0.1,0.8v5.9c0,0.9,0.2,1.6,0.6,2.3c0.4,0.7,0.9,1.2,1.6,1.5c0.7,0.4,1.5,0.5,2.4,0.5c1.3,0,2.4-0.4,3.2-1.2
					c0.8-0.8,1.2-1.9,1.2-3.3v-5.2c0-1.2,0.5-1.8,1.5-1.8c0,0,0,0,0-0.1s0-0.1,0-0.1l-0.8,0c-0.4,0-0.7,0-0.9,0c-0.3,0-0.6,0-1,0
					l-0.8,0c0,0-0.1,0-0.1,0.1s0,0.1,0.1,0.1C401.6,25.5,402.1,26.1,402.1,27.3z"/>
			</g>
			<g class="st2">
				<text transform="matrix(1 0 0 1 52.5949 109.5999)"><tspan x="0" y="0" class="st15 st16 st26 st24">RI</tspan><tspan x="18.4" y="0" class="st15 st16 st26 st24">S</tspan><tspan x="27.4" y="0" class="st15 st16 st26 st24">AL</tspan><tspan x="49.3" y="0" class="st15 st16 st26 st24">A</tspan><tspan x="61.5" y="0" class="st15 st16 st26 st24"> </tspan><tspan x="66.5" y="0" class="st15 st16 st26 st24">IL</tspan><tspan x="82.8" y="0" class="st15 st16 st26 st24">A</tspan><tspan x="94.9" y="0" class="st15 st16 st26 st24"> </tspan><tspan x="100" y="0" class="st15 st16 st26 st24">AMI</tspan><tspan x="133.1" y="0" class="st15 st16 st26 st24">R </tspan><tspan x="149.8" y="0" class="st15 st16 st26 st24">A</tspan><tspan x="162.1" y="0" class="st15 st16 st26 st24">L-</tspan><tspan x="178" y="0" class="st15 st16 st26 st24">FULLA</tspan><tspan x="231.1" y="0" class="st15 st16 st26 st24">N</tspan><tspan x="243.7" y="0" class="st15 st16 st26 st24"> </tspan><tspan x="248.7" y="0" class="st15 st16 st26 st24">AHMA</tspan><tspan x="300.6" y="0" class="st15 st16 st26 st24">D</tspan><tspan x="312.6" y="0" class="st15 st16 st26 st24"> </tspan><tspan x="317.6" y="0" class="st15 st16 st26 st24">A</tspan><tspan x="329.8" y="0" class="st15 st16 st26 st24">HMA</tspan><tspan x="369.5" y="0" class="st15 st16 st26">D</tspan></text>
			</g>
			<g class="st2">
				<defs>
					<rect id="SVGID_50_" y="0" width="488.7" height="782"/>
				</defs>
				<clipPath id="SVGID_51_">
					<use xlink:href="#SVGID_50_"  style="overflow:visible;"/>
				</clipPath>
				<path class="st27" d="M55.6,104.5v-3.2c0-0.4,0.1-0.7,0.2-0.9c0.2-0.1,0.4-0.2,0.8-0.2c0.7,0,1.2,0.2,1.5,0.5
					c0.4,0.3,0.5,0.9,0.5,1.7c0,0.7-0.2,1.3-0.5,1.6c-0.3,0.3-0.9,0.5-1.7,0.5C56.1,104.6,55.8,104.6,55.6,104.5z M63,109.4
					c-0.4,0-0.9-0.2-1.3-0.5c-0.5-0.3-1-0.8-1.6-1.5c-0.6-0.7-1.3-1.7-2.2-2.9c0.5-0.3,1-0.6,1.3-1c0.3-0.4,0.5-0.9,0.5-1.5
					c0-0.6-0.2-1.1-0.7-1.5c-0.4-0.4-1.1-0.5-1.9-0.5c-0.3,0-0.6,0-1,0c-0.1,0-0.3,0-0.5,0c-0.2,0-0.4,0-0.6,0c-0.3,0-0.6,0-1,0
					l-0.7,0c0,0,0,0,0,0.1s0,0.1,0,0.1c0.4,0,0.7,0,0.8,0.1c0.2,0.1,0.3,0.2,0.4,0.3c0.1,0.1,0.1,0.4,0.1,0.7v7.1
					c0,0.3,0,0.5-0.1,0.7c-0.1,0.1-0.2,0.2-0.4,0.3c-0.2,0.1-0.5,0.1-0.9,0.1c0,0,0,0,0,0.1s0,0.1,0,0.1c0.3,0,0.6,0,0.8,0l1,0
					l1.1,0c0.2,0,0.4,0,0.7,0c0,0,0,0,0-0.1s0-0.1,0-0.1c-0.4,0-0.7,0-0.8-0.1c-0.2-0.1-0.3-0.1-0.4-0.3c-0.1-0.1-0.1-0.4-0.1-0.7
					v-3.5c0.4,0,0.6,0,0.7,0c0.3,0,0.6,0,0.9-0.1c1,1.5,1.8,2.6,2.5,3.5c0.7,0.8,1.2,1.3,1.4,1.3h2C63,109.6,63.1,109.6,63,109.4
					C63.1,109.4,63,109.4,63,109.4z"/>
				<path class="st27" d="M67.4,108.4v-7c0-0.3,0-0.5,0.1-0.7c0.1-0.1,0.2-0.3,0.4-0.3c0.2-0.1,0.5-0.1,0.8-0.1c0,0,0,0,0-0.1
					c0-0.1,0-0.1,0-0.1l-0.7,0c-0.4,0-0.8,0-1.1,0c-0.3,0-0.6,0-1.1,0l-0.7,0c0,0,0,0,0,0.1c0,0.1,0,0.1,0,0.1c0.4,0,0.7,0,0.8,0.1
					c0.2,0.1,0.3,0.2,0.4,0.3c0.1,0.1,0.1,0.4,0.1,0.7v7.1c0,0.3,0,0.5-0.1,0.7c-0.1,0.1-0.2,0.2-0.4,0.3c-0.2,0.1-0.5,0.1-0.8,0.1
					c0,0,0,0,0,0.1c0,0.1,0,0.1,0,0.1c0.3,0,0.6,0,0.7,0l1.1,0l1.1,0c0.2,0,0.4,0,0.7,0c0,0,0,0,0-0.1c0-0.1,0-0.1,0-0.1
					c-0.4,0-0.7,0-0.8-0.1c-0.2-0.1-0.3-0.2-0.4-0.3C67.5,108.9,67.4,108.7,67.4,108.4z"/>
				<path class="st27" d="M73.2,101.8c0-0.5,0.1-0.9,0.4-1.2c0.3-0.3,0.7-0.5,1.3-0.5c0.7,0,1.2,0.2,1.5,0.7
					c0.4,0.5,0.6,0.9,0.7,1.5c0,0,0,0.1,0.1,0.1c0.1,0,0.1,0,0.1-0.1l-0.1-1.8c0-0.1-0.1-0.2-0.2-0.3c-0.6-0.2-1.2-0.4-1.8-0.4
					c-0.5,0-0.9,0.1-1.4,0.3c-0.4,0.2-0.8,0.4-1.1,0.8c-0.3,0.4-0.4,0.8-0.4,1.3c0,0.4,0.1,0.8,0.3,1.1c0.2,0.3,0.4,0.6,0.7,0.8
					c0.3,0.2,0.7,0.5,1.2,0.8c0.5,0.3,0.9,0.6,1.2,0.8s0.5,0.5,0.7,0.8c0.2,0.3,0.3,0.7,0.3,1.2c0,0.6-0.2,1.1-0.5,1.3
					c-0.4,0.3-0.8,0.4-1.3,0.4c-0.7,0-1.3-0.3-1.8-0.8c-0.4-0.5-0.7-1.2-0.9-1.9c0,0,0-0.1-0.1,0c-0.1,0-0.1,0-0.1,0.1l0.2,2.1
					c0,0.1,0,0.1,0,0.2c0,0,0,0.1,0.1,0.1c0.7,0.4,1.4,0.5,2.2,0.5c0.7,0,1.2-0.1,1.7-0.3c0.5-0.2,0.8-0.5,1.1-0.9
					c0.2-0.4,0.4-0.8,0.4-1.3c0-0.5-0.1-0.9-0.3-1.2c-0.2-0.3-0.5-0.6-0.7-0.8c-0.3-0.2-0.7-0.5-1.2-0.8c-0.5-0.3-0.9-0.5-1.2-0.7
					c-0.3-0.2-0.5-0.4-0.7-0.7C73.3,102.6,73.2,102.2,73.2,101.8z"/>
				<path class="st27" d="M84.9,101.3l1.8,3.8h-3.4L84.9,101.3z M90.7,109.4c-0.3,0-0.6-0.1-0.9-0.4c-0.2-0.3-0.5-0.8-0.9-1.5
					l-3.6-7.6c0,0,0,0-0.1,0s-0.1,0-0.1,0l-3.2,7.6c-0.2,0.5-0.4,0.9-0.6,1.2c-0.2,0.3-0.4,0.5-0.6,0.6c-0.2,0.1-0.4,0.2-0.7,0.2
					c-0.1,0-0.1,0-0.1,0.1s0,0.1,0.1,0.1c0.2,0,0.5,0,0.8,0c0.3,0,0.7,0,0.9,0c0.3,0,0.6,0,1,0c0.3,0,0.6,0,0.8,0
					c0.1,0,0.1,0,0.1-0.1s0-0.1-0.1-0.1c-0.5,0-0.9-0.1-1.1-0.2c-0.2-0.1-0.4-0.4-0.4-0.7c0-0.2,0.1-0.5,0.2-0.8l1-2.3h3.6l1.4,2.9
					c0.1,0.3,0.2,0.5,0.2,0.7c0,0.2-0.1,0.3-0.3,0.4c-0.2,0.1-0.4,0.1-0.8,0.1c0,0-0.1,0-0.1,0.1s0,0.1,0.1,0.1c0.2,0,0.4,0,0.7,0
					c0.3,0,0.6,0,0.9,0c0.2,0,0.5,0,0.9,0c0.4,0,0.7,0,0.9,0C90.7,109.6,90.8,109.6,90.7,109.4C90.8,109.4,90.7,109.4,90.7,109.4z"
					/>
				<path class="st27" d="M95.1,101.3c0-0.3,0-0.5,0.1-0.7c0.1-0.1,0.2-0.2,0.4-0.3c0.2-0.1,0.5-0.1,0.8-0.1c0,0,0,0,0-0.1
					c0-0.1,0-0.1,0-0.1l-0.7,0c-0.4,0-0.8,0-1.1,0c-0.3,0-0.6,0-1,0l-0.7,0c0,0,0,0,0,0.1c0,0.1,0,0.1,0,0.1c0.4,0,0.7,0,0.8,0.1
					c0.2,0.1,0.3,0.2,0.4,0.3c0.1,0.1,0.1,0.4,0.1,0.7v7.1c0,0.3,0,0.5-0.1,0.7c-0.1,0.1-0.2,0.2-0.4,0.3c-0.2,0.1-0.5,0.1-0.8,0.1
					c0,0,0,0,0,0.1c0,0.1,0,0.1,0,0.1h7.1c0.1,0,0.2,0,0.2-0.1s0-0.1,0-0.2c0-0.5,0-1.2,0.1-2.1c0,0,0,0-0.1-0.1c-0.1,0-0.1,0-0.1,0
					c-0.1,0.6-0.3,1.1-0.7,1.5c-0.3,0.4-0.8,0.5-1.4,0.5h-1.7c-0.4,0-0.6,0-0.8-0.1c-0.2,0-0.3-0.1-0.3-0.3
					c-0.1-0.1-0.1-0.3-0.1-0.6V101.3z"/>
				<path class="st27" d="M106.8,101.3l1.8,3.8h-3.4L106.8,101.3z M112.6,109.4c-0.3,0-0.6-0.1-0.9-0.4c-0.2-0.3-0.5-0.8-0.9-1.5
					l-3.6-7.6c0,0,0,0-0.1,0s-0.1,0-0.1,0l-3.2,7.6c-0.2,0.5-0.4,0.9-0.6,1.2c-0.2,0.3-0.4,0.5-0.6,0.6c-0.2,0.1-0.4,0.2-0.7,0.2
					c-0.1,0-0.1,0-0.1,0.1s0,0.1,0.1,0.1c0.2,0,0.5,0,0.8,0c0.3,0,0.7,0,0.9,0c0.3,0,0.6,0,1,0c0.3,0,0.6,0,0.8,0
					c0.1,0,0.1,0,0.1-0.1s0-0.1-0.1-0.1c-0.5,0-0.9-0.1-1.1-0.2c-0.2-0.1-0.4-0.4-0.4-0.7c0-0.2,0.1-0.5,0.2-0.8l1-2.3h3.6l1.4,2.9
					c0.1,0.3,0.2,0.5,0.2,0.7c0,0.2-0.1,0.3-0.3,0.4c-0.2,0.1-0.4,0.1-0.8,0.1c0,0-0.1,0-0.1,0.1s0,0.1,0.1,0.1c0.2,0,0.4,0,0.7,0
					c0.3,0,0.6,0,0.9,0c0.2,0,0.5,0,0.9,0c0.4,0,0.7,0,0.9,0C112.7,109.6,112.7,109.6,112.6,109.4
					C112.7,109.4,112.7,109.4,112.6,109.4z"/>
				<path class="st27" d="M122.2,108.4v-7c0-0.3,0-0.5,0.1-0.7c0.1-0.1,0.2-0.3,0.4-0.3c0.2-0.1,0.5-0.1,0.8-0.1c0,0,0,0,0-0.1
					c0-0.1,0-0.1,0-0.1l-0.7,0c-0.4,0-0.8,0-1.1,0c-0.3,0-0.6,0-1.1,0l-0.7,0c0,0,0,0,0,0.1c0,0.1,0,0.1,0,0.1c0.4,0,0.7,0,0.8,0.1
					c0.2,0.1,0.3,0.2,0.4,0.3c0.1,0.1,0.1,0.4,0.1,0.7v7.1c0,0.3,0,0.5-0.1,0.7c-0.1,0.1-0.2,0.2-0.4,0.3c-0.2,0.1-0.5,0.1-0.8,0.1
					c0,0,0,0,0,0.1c0,0.1,0,0.1,0,0.1c0.3,0,0.6,0,0.7,0l1.1,0l1.1,0c0.2,0,0.4,0,0.7,0c0,0,0,0,0-0.1c0-0.1,0-0.1,0-0.1
					c-0.4,0-0.7,0-0.8-0.1c-0.2-0.1-0.3-0.2-0.4-0.3S122.2,108.7,122.2,108.4z"/>
				<path class="st27" d="M128.6,101.3c0-0.3,0-0.5,0.1-0.7c0.1-0.1,0.2-0.2,0.4-0.3c0.2-0.1,0.5-0.1,0.8-0.1c0,0,0,0,0-0.1
					c0-0.1,0-0.1,0-0.1l-0.7,0c-0.4,0-0.8,0-1.1,0c-0.3,0-0.6,0-1,0l-0.7,0c0,0,0,0,0,0.1c0,0.1,0,0.1,0,0.1c0.4,0,0.7,0,0.8,0.1
					c0.2,0.1,0.3,0.2,0.4,0.3c0.1,0.1,0.1,0.4,0.1,0.7v7.1c0,0.3,0,0.5-0.1,0.7c-0.1,0.1-0.2,0.2-0.4,0.3c-0.2,0.1-0.5,0.1-0.8,0.1
					c0,0,0,0,0,0.1c0,0.1,0,0.1,0,0.1h7.1c0.1,0,0.2,0,0.2-0.1s0-0.1,0-0.2c0-0.5,0-1.2,0.1-2.1c0,0,0,0-0.1-0.1c-0.1,0-0.1,0-0.1,0
					c-0.1,0.6-0.3,1.1-0.7,1.5c-0.3,0.4-0.8,0.5-1.4,0.5h-1.7c-0.4,0-0.6,0-0.8-0.1c-0.2,0-0.3-0.1-0.3-0.3
					c-0.1-0.1-0.1-0.3-0.1-0.6V101.3z"/>
				<path class="st27" d="M140.3,101.3l1.8,3.8h-3.4L140.3,101.3z M146.1,109.4c-0.3,0-0.6-0.1-0.9-0.4c-0.2-0.3-0.5-0.8-0.9-1.5
					l-3.6-7.6c0,0,0,0-0.1,0s-0.1,0-0.1,0l-3.2,7.6c-0.2,0.5-0.4,0.9-0.6,1.2c-0.2,0.3-0.4,0.5-0.6,0.6c-0.2,0.1-0.4,0.2-0.7,0.2
					c-0.1,0-0.1,0-0.1,0.1s0,0.1,0.1,0.1c0.2,0,0.5,0,0.8,0c0.3,0,0.7,0,0.9,0c0.3,0,0.6,0,1,0c0.3,0,0.6,0,0.8,0
					c0.1,0,0.1,0,0.1-0.1s0-0.1-0.1-0.1c-0.5,0-0.9-0.1-1.1-0.2c-0.2-0.1-0.4-0.4-0.4-0.7c0-0.2,0.1-0.5,0.2-0.8l1-2.3h3.6l1.4,2.9
					c0.1,0.3,0.2,0.5,0.2,0.7c0,0.2-0.1,0.3-0.3,0.4c-0.2,0.1-0.4,0.1-0.8,0.1c0,0-0.1,0-0.1,0.1s0,0.1,0.1,0.1c0.2,0,0.4,0,0.7,0
					c0.3,0,0.6,0,0.9,0c0.2,0,0.5,0,0.9,0c0.4,0,0.7,0,0.9,0C146.1,109.6,146.1,109.6,146.1,109.4
					C146.1,109.4,146.1,109.4,146.1,109.4z"/>
				<path class="st27" d="M157.5,101.3l1.8,3.8h-3.4L157.5,101.3z M163.3,109.4c-0.3,0-0.6-0.1-0.9-0.4c-0.2-0.3-0.5-0.8-0.9-1.5
					l-3.6-7.6c0,0,0,0-0.1,0s-0.1,0-0.1,0l-3.2,7.6c-0.2,0.5-0.4,0.9-0.6,1.2c-0.2,0.3-0.4,0.5-0.6,0.6c-0.2,0.1-0.4,0.2-0.7,0.2
					c-0.1,0-0.1,0-0.1,0.1s0,0.1,0.1,0.1c0.2,0,0.5,0,0.8,0c0.3,0,0.7,0,0.9,0c0.3,0,0.6,0,1,0c0.3,0,0.6,0,0.8,0
					c0.1,0,0.1,0,0.1-0.1s0-0.1-0.1-0.1c-0.5,0-0.9-0.1-1.1-0.2c-0.2-0.1-0.4-0.4-0.4-0.7c0-0.2,0.1-0.5,0.2-0.8l1-2.3h3.6l1.4,2.9
					c0.1,0.3,0.2,0.5,0.2,0.7c0,0.2-0.1,0.3-0.3,0.4c-0.2,0.1-0.4,0.1-0.8,0.1c0,0-0.1,0-0.1,0.1s0,0.1,0.1,0.1c0.2,0,0.4,0,0.7,0
					c0.3,0,0.6,0,0.9,0c0.2,0,0.5,0,0.9,0c0.4,0,0.7,0,0.9,0C163.3,109.6,163.3,109.6,163.3,109.4
					C163.3,109.4,163.3,109.4,163.3,109.4z"/>
				<path class="st27" d="M177.2,109.4c-0.4,0-0.7,0-0.8-0.1c-0.2-0.1-0.3-0.1-0.4-0.3c-0.1-0.1-0.1-0.4-0.1-0.7l-0.3-7.1
					c0-0.4,0.1-0.7,0.3-0.8c0.2-0.1,0.6-0.2,1.1-0.2c0,0,0,0,0-0.1s0-0.1,0-0.1c-0.2,0-0.4,0-0.5,0l-0.7,0c-0.2,0-0.3,0-0.4,0
					c-0.1,0-0.2,0-0.2,0c-0.2,0-0.3,0.1-0.5,0.4l-3.3,7.6l-3.4-7.2c-0.2-0.3-0.3-0.6-0.4-0.6c-0.1-0.1-0.2-0.1-0.3-0.1
					c-0.1,0-0.2,0-0.3,0c-0.1,0-0.3,0-0.5,0c-0.2,0-0.3,0-0.4,0l-0.6,0c0,0,0,0,0,0.1s0,0.1,0,0.1c0.5,0,0.9,0.2,1.3,0.6l-0.1,7.1
					c0,0.5-0.1,0.9-0.3,1.1c-0.2,0.2-0.5,0.3-0.9,0.3c0,0,0,0,0,0.1s0,0.1,0,0.1c0.3,0,0.5,0,0.6,0l0.8,0l0.8,0c0.2,0,0.4,0,0.7,0
					c0,0,0,0,0-0.1s0-0.1,0-0.1c-0.5,0-0.8-0.1-1-0.3c-0.2-0.2-0.3-0.6-0.3-1.1l0.1-6.4l3.8,8c0,0,0.1,0.1,0.1,0.1
					c0.1,0,0.1,0,0.1-0.1l3.5-8.1l0.3,6.9c0,0.3,0,0.5-0.1,0.7c-0.1,0.1-0.2,0.2-0.3,0.3c-0.2,0.1-0.4,0.1-0.8,0.1c0,0,0,0,0,0.1
					s0,0.1,0,0.1c0.3,0,0.5,0,0.7,0l1,0l1.1,0c0.2,0,0.4,0,0.7,0C177.3,109.6,177.3,109.6,177.2,109.4
					C177.3,109.4,177.3,109.4,177.2,109.4z"/>
				<path class="st27" d="M182.2,108.4v-7c0-0.3,0-0.5,0.1-0.7c0.1-0.1,0.2-0.3,0.4-0.3c0.2-0.1,0.5-0.1,0.8-0.1c0,0,0,0,0-0.1
					c0-0.1,0-0.1,0-0.1l-0.7,0c-0.4,0-0.8,0-1.1,0c-0.3,0-0.6,0-1.1,0l-0.7,0c0,0,0,0,0,0.1c0,0.1,0,0.1,0,0.1c0.4,0,0.7,0,0.8,0.1
					c0.2,0.1,0.3,0.2,0.4,0.3c0.1,0.1,0.1,0.4,0.1,0.7v7.1c0,0.3,0,0.5-0.1,0.7c-0.1,0.1-0.2,0.2-0.4,0.3c-0.2,0.1-0.5,0.1-0.8,0.1
					c0,0,0,0,0,0.1c0,0.1,0,0.1,0,0.1c0.3,0,0.6,0,0.7,0l1.1,0l1.1,0c0.2,0,0.4,0,0.7,0c0,0,0,0,0-0.1c0-0.1,0-0.1,0-0.1
					c-0.4,0-0.7,0-0.8-0.1c-0.2-0.1-0.3-0.2-0.4-0.3S182.2,108.7,182.2,108.4z"/>
				<path class="st27" d="M188.7,104.5v-3.2c0-0.4,0.1-0.7,0.2-0.9c0.2-0.1,0.4-0.2,0.8-0.2c0.7,0,1.2,0.2,1.5,0.5
					c0.4,0.3,0.5,0.9,0.5,1.7c0,0.7-0.2,1.3-0.5,1.6c-0.3,0.3-0.9,0.5-1.7,0.5C189.3,104.6,189,104.6,188.7,104.5z M196.2,109.4
					c-0.4,0-0.9-0.2-1.3-0.5c-0.5-0.3-1-0.8-1.6-1.5c-0.6-0.7-1.3-1.7-2.2-2.9c0.5-0.3,1-0.6,1.3-1c0.3-0.4,0.5-0.9,0.5-1.5
					c0-0.6-0.2-1.1-0.7-1.5c-0.4-0.4-1.1-0.5-1.9-0.5c-0.3,0-0.6,0-1,0c-0.1,0-0.3,0-0.5,0c-0.2,0-0.4,0-0.6,0c-0.3,0-0.6,0-1,0
					l-0.7,0c0,0,0,0,0,0.1s0,0.1,0,0.1c0.4,0,0.7,0,0.8,0.1c0.2,0.1,0.3,0.2,0.4,0.3c0.1,0.1,0.1,0.4,0.1,0.7v7.1
					c0,0.3,0,0.5-0.1,0.7c-0.1,0.1-0.2,0.2-0.4,0.3c-0.2,0.1-0.5,0.1-0.9,0.1c0,0,0,0,0,0.1s0,0.1,0,0.1c0.3,0,0.6,0,0.8,0l1,0
					l1.1,0c0.2,0,0.4,0,0.7,0c0,0,0,0,0-0.1s0-0.1,0-0.1c-0.4,0-0.7,0-0.8-0.1c-0.2-0.1-0.3-0.1-0.4-0.3c-0.1-0.1-0.1-0.4-0.1-0.7
					v-3.5c0.4,0,0.6,0,0.7,0c0.3,0,0.6,0,0.9-0.1c1,1.5,1.8,2.6,2.5,3.5c0.7,0.8,1.2,1.3,1.4,1.3h2
					C196.2,109.6,196.2,109.6,196.2,109.4C196.2,109.4,196.2,109.4,196.2,109.4z"/>
				<path class="st27" d="M207.4,101.3l1.8,3.8h-3.4L207.4,101.3z M213.2,109.4c-0.3,0-0.6-0.1-0.9-0.4c-0.2-0.3-0.5-0.8-0.9-1.5
					l-3.6-7.6c0,0,0,0-0.1,0s-0.1,0-0.1,0l-3.2,7.6c-0.2,0.5-0.4,0.9-0.6,1.2c-0.2,0.3-0.4,0.5-0.6,0.6c-0.2,0.1-0.4,0.2-0.7,0.2
					c-0.1,0-0.1,0-0.1,0.1s0,0.1,0.1,0.1c0.2,0,0.5,0,0.8,0c0.3,0,0.7,0,0.9,0c0.3,0,0.6,0,1,0c0.3,0,0.6,0,0.8,0
					c0.1,0,0.1,0,0.1-0.1s0-0.1-0.1-0.1c-0.5,0-0.9-0.1-1.1-0.2c-0.2-0.1-0.4-0.4-0.4-0.7c0-0.2,0.1-0.5,0.2-0.8l1-2.3h3.6l1.4,2.9
					c0.1,0.3,0.2,0.5,0.2,0.7c0,0.2-0.1,0.3-0.3,0.4c-0.2,0.1-0.4,0.1-0.8,0.1c0,0-0.1,0-0.1,0.1s0,0.1,0.1,0.1c0.2,0,0.4,0,0.7,0
					c0.3,0,0.6,0,0.9,0c0.2,0,0.5,0,0.9,0c0.4,0,0.7,0,0.9,0C213.2,109.6,213.2,109.6,213.2,109.4
					C213.2,109.4,213.2,109.4,213.2,109.4z"/>
				<path class="st27" d="M217.6,101.3c0-0.3,0-0.5,0.1-0.7c0.1-0.1,0.2-0.2,0.4-0.3c0.2-0.1,0.5-0.1,0.8-0.1c0,0,0,0,0-0.1
					c0-0.1,0-0.1,0-0.1l-0.7,0c-0.4,0-0.8,0-1.1,0c-0.3,0-0.6,0-1,0l-0.7,0c0,0,0,0,0,0.1c0,0.1,0,0.1,0,0.1c0.4,0,0.7,0,0.8,0.1
					c0.2,0.1,0.3,0.2,0.4,0.3c0.1,0.1,0.1,0.4,0.1,0.7v7.1c0,0.3,0,0.5-0.1,0.7c-0.1,0.1-0.2,0.2-0.4,0.3c-0.2,0.1-0.5,0.1-0.8,0.1
					c0,0,0,0,0,0.1c0,0.1,0,0.1,0,0.1h7.1c0.1,0,0.2,0,0.2-0.1s0-0.1,0-0.2c0-0.5,0-1.2,0.1-2.1c0,0,0,0-0.1-0.1c-0.1,0-0.1,0-0.1,0
					c-0.1,0.6-0.3,1.1-0.7,1.5c-0.3,0.4-0.8,0.5-1.4,0.5h-1.7c-0.4,0-0.6,0-0.8-0.1c-0.2,0-0.3-0.1-0.3-0.3
					c-0.1-0.1-0.1-0.3-0.1-0.6V101.3z"/>
				<path class="st27" d="M224.8,107.1l4-0.7c0.1,0,0.1-0.1,0.1-0.3c0-0.1,0-0.2,0-0.2c0-0.1,0-0.1-0.1-0.1l-4,0.7c0,0,0,0.1,0,0.3
					c0,0.1,0,0.2,0,0.2C224.8,107.1,224.8,107.1,224.8,107.1z"/>
				<path class="st27" d="M237.7,100.2c0-0.1,0-0.1-0.1-0.1h-6.1c0,0,0,0,0,0.1c0,0.1,0,0.1,0,0.1c0.4,0,0.7,0,0.8,0.1
					c0.2,0.1,0.3,0.2,0.4,0.3c0.1,0.1,0.1,0.4,0.1,0.7v7.1c0,0.3,0,0.5-0.1,0.7s-0.2,0.2-0.4,0.3c-0.2,0.1-0.5,0.1-0.9,0.1
					c0,0,0,0,0,0.1c0,0.1,0,0.1,0,0.1c0.3,0,0.6,0,0.8,0l1,0l1.4,0c0.2,0,0.6,0,1,0c0,0,0,0,0-0.1c0-0.1,0-0.1,0-0.1
					c-0.5,0-1,0-1.2-0.1c-0.3-0.1-0.4-0.2-0.5-0.3c-0.1-0.1-0.1-0.4-0.1-0.7V105h1.5c0.6,0,1,0.1,1.2,0.3c0.2,0.2,0.4,0.5,0.4,1
					c0,0,0,0,0.1,0s0.1,0,0.1,0l0-0.7c0-0.2,0-0.4,0-0.7l0-1.2c0,0,0,0-0.1,0c-0.1,0-0.1,0-0.1,0c0,0.4-0.1,0.6-0.3,0.8
					c-0.2,0.2-0.6,0.3-1.2,0.3h-1.5v-3.3c0-0.3,0-0.4,0.1-0.6c0.1-0.1,0.2-0.2,0.4-0.3c0.2-0.1,0.4-0.1,0.8-0.1h0.9
					c0.5,0,0.9,0.2,1.2,0.5c0.3,0.3,0.5,0.7,0.5,1.3c0,0,0,0,0.1,0c0.1,0,0.1,0,0.1-0.1L237.7,100.2z"/>
				<path class="st27" d="M248.8,101.7v4.4c0,1-0.3,1.8-0.8,2.4c-0.5,0.6-1.2,0.9-2.1,0.9c-1,0-1.7-0.3-2.3-1
					c-0.5-0.6-0.8-1.6-0.8-2.7v-4.3c0-0.3,0-0.5,0.1-0.7c0.1-0.1,0.2-0.3,0.4-0.3c0.2-0.1,0.5-0.1,0.8-0.1c0,0,0,0,0-0.1
					s0-0.1,0-0.1l-0.7,0c-0.4,0-0.8,0-1.1,0c-0.3,0-0.6,0-1,0l-0.7,0c0,0,0,0,0,0.1s0,0.1,0,0.1c0.4,0,0.7,0,0.8,0.1
					c0.2,0.1,0.3,0.2,0.4,0.3c0.1,0.1,0.1,0.4,0.1,0.7v4.9c0,0.7,0.2,1.4,0.5,1.9c0.3,0.5,0.7,1,1.3,1.3c0.6,0.3,1.2,0.4,2,0.4
					c1.1,0,2-0.3,2.6-1c0.7-0.7,1-1.6,1-2.7v-4.3c0-1,0.4-1.5,1.2-1.5c0,0,0,0,0-0.1s0-0.1,0-0.1l-0.6,0c-0.3,0-0.6,0-0.7,0
					c-0.2,0-0.5,0-0.9,0l-0.7,0c0,0,0,0,0,0.1s0,0.1,0,0.1C248.3,100.2,248.8,100.7,248.8,101.7z"/>
				<path class="st27" d="M255,101.3c0-0.3,0-0.5,0.1-0.7c0.1-0.1,0.2-0.2,0.4-0.3c0.2-0.1,0.5-0.1,0.8-0.1c0,0,0,0,0-0.1
					c0-0.1,0-0.1,0-0.1l-0.7,0c-0.4,0-0.8,0-1.1,0c-0.3,0-0.6,0-1,0l-0.7,0c0,0,0,0,0,0.1c0,0.1,0,0.1,0,0.1c0.4,0,0.7,0,0.8,0.1
					c0.2,0.1,0.3,0.2,0.4,0.3c0.1,0.1,0.1,0.4,0.1,0.7v7.1c0,0.3,0,0.5-0.1,0.7c-0.1,0.1-0.2,0.2-0.4,0.3c-0.2,0.1-0.5,0.1-0.8,0.1
					c0,0,0,0,0,0.1c0,0.1,0,0.1,0,0.1h7.1c0.1,0,0.2,0,0.2-0.1s0-0.1,0-0.2c0-0.5,0-1.2,0.1-2.1c0,0,0,0-0.1-0.1c-0.1,0-0.1,0-0.1,0
					c-0.1,0.6-0.3,1.1-0.7,1.5c-0.3,0.4-0.8,0.5-1.4,0.5h-1.7c-0.4,0-0.6,0-0.8-0.1c-0.2,0-0.3-0.1-0.3-0.3
					c-0.1-0.1-0.1-0.3-0.1-0.6V101.3z"/>
				<path class="st27" d="M264.7,101.3c0-0.3,0-0.5,0.1-0.7c0.1-0.1,0.2-0.2,0.4-0.3c0.2-0.1,0.5-0.1,0.8-0.1c0,0,0,0,0-0.1
					c0-0.1,0-0.1,0-0.1l-0.7,0c-0.4,0-0.8,0-1.1,0c-0.3,0-0.6,0-1,0l-0.7,0c0,0,0,0,0,0.1c0,0.1,0,0.1,0,0.1c0.4,0,0.7,0,0.8,0.1
					c0.2,0.1,0.3,0.2,0.4,0.3c0.1,0.1,0.1,0.4,0.1,0.7v7.1c0,0.3,0,0.5-0.1,0.7c-0.1,0.1-0.2,0.2-0.4,0.3c-0.2,0.1-0.5,0.1-0.8,0.1
					c0,0,0,0,0,0.1c0,0.1,0,0.1,0,0.1h7.1c0.1,0,0.2,0,0.2-0.1s0-0.1,0-0.2c0-0.5,0-1.2,0.1-2.1c0,0,0,0-0.1-0.1c-0.1,0-0.1,0-0.1,0
					c-0.1,0.6-0.3,1.1-0.7,1.5c-0.3,0.4-0.8,0.5-1.4,0.5h-1.7c-0.4,0-0.6,0-0.8-0.1c-0.2,0-0.3-0.1-0.3-0.3
					c-0.1-0.1-0.1-0.3-0.1-0.6V101.3z"/>
				<path class="st27" d="M276.4,101.3l1.8,3.8h-3.4L276.4,101.3z M282.2,109.4c-0.3,0-0.6-0.1-0.9-0.4c-0.2-0.3-0.5-0.8-0.9-1.5
					l-3.6-7.6c0,0,0,0-0.1,0c-0.1,0-0.1,0-0.1,0l-3.2,7.6c-0.2,0.5-0.4,0.9-0.6,1.2c-0.2,0.3-0.4,0.5-0.6,0.6
					c-0.2,0.1-0.4,0.2-0.7,0.2c-0.1,0-0.1,0-0.1,0.1s0,0.1,0.1,0.1c0.2,0,0.5,0,0.8,0c0.3,0,0.7,0,0.9,0c0.3,0,0.6,0,1,0
					c0.3,0,0.6,0,0.8,0c0.1,0,0.1,0,0.1-0.1s0-0.1-0.1-0.1c-0.5,0-0.9-0.1-1.1-0.2c-0.2-0.1-0.4-0.4-0.4-0.7c0-0.2,0.1-0.5,0.2-0.8
					l1-2.3h3.6l1.4,2.9c0.1,0.3,0.2,0.5,0.2,0.7c0,0.2-0.1,0.3-0.3,0.4c-0.2,0.1-0.4,0.1-0.8,0.1c0,0-0.1,0-0.1,0.1s0,0.1,0.1,0.1
					c0.2,0,0.4,0,0.7,0c0.3,0,0.6,0,0.9,0c0.2,0,0.5,0,0.9,0c0.4,0,0.7,0,0.9,0C282.3,109.6,282.3,109.6,282.2,109.4
					C282.3,109.4,282.3,109.4,282.2,109.4z"/>
				<path class="st27" d="M294.5,100.1l-0.6,0c-0.3,0-0.6,0-0.8,0c-0.2,0-0.4,0-0.7,0l-0.6,0c0,0,0,0,0,0.1s0,0.1,0,0.1
					c0.4,0,0.7,0.1,0.9,0.4c0.2,0.2,0.3,0.6,0.3,1.1v6.3l-5.9-7.2c-0.1-0.2-0.2-0.3-0.4-0.5c-0.1-0.1-0.1-0.2-0.2-0.2
					c0,0-0.1-0.1-0.2-0.1c-0.1,0-0.2,0-0.3,0c-0.1,0-0.3,0-0.5,0c-0.2,0-0.4,0-0.5,0l-0.6,0c0,0,0,0,0,0.1s0,0.1,0,0.1
					c0.4,0,0.8,0.2,1.2,0.5v7.1c0,0.5-0.1,0.9-0.3,1.1c-0.2,0.2-0.5,0.3-0.9,0.3c0,0,0,0,0,0.1c0,0.1,0,0.1,0,0.1c0.3,0,0.5,0,0.6,0
					l0.8,0l0.8,0c0.1,0,0.3,0,0.6,0c0,0,0,0,0-0.1c0-0.1,0-0.1,0-0.1c-0.4,0-0.7-0.1-0.9-0.3c-0.2-0.2-0.3-0.6-0.3-1.1v-6.8l0.1,0.2
					l7,8.5c0,0,0.1,0,0.1,0c0.1,0,0.1,0,0.1,0v-8c0-0.5,0.1-0.9,0.3-1.1c0.2-0.2,0.5-0.4,0.9-0.4
					C294.6,100.2,294.6,100.2,294.5,100.1C294.6,100.1,294.6,100.1,294.5,100.1z"/>
				<path class="st27" d="M306.3,101.3l1.8,3.8h-3.4L306.3,101.3z M312,109.4c-0.3,0-0.6-0.1-0.9-0.4c-0.2-0.3-0.5-0.8-0.9-1.5
					l-3.6-7.6c0,0,0,0-0.1,0c-0.1,0-0.1,0-0.1,0l-3.2,7.6c-0.2,0.5-0.4,0.9-0.6,1.2c-0.2,0.3-0.4,0.5-0.6,0.6
					c-0.2,0.1-0.4,0.2-0.7,0.2c-0.1,0-0.1,0-0.1,0.1s0,0.1,0.1,0.1c0.2,0,0.5,0,0.8,0c0.3,0,0.7,0,0.9,0c0.3,0,0.6,0,1,0
					c0.3,0,0.6,0,0.8,0c0.1,0,0.1,0,0.1-0.1s0-0.1-0.1-0.1c-0.5,0-0.9-0.1-1.1-0.2c-0.2-0.1-0.4-0.4-0.4-0.7c0-0.2,0.1-0.5,0.2-0.8
					l1-2.3h3.6l1.4,2.9c0.1,0.3,0.2,0.5,0.2,0.7c0,0.2-0.1,0.3-0.3,0.4c-0.2,0.1-0.4,0.1-0.8,0.1c0,0-0.1,0-0.1,0.1s0,0.1,0.1,0.1
					c0.2,0,0.4,0,0.7,0c0.3,0,0.6,0,0.9,0c0.2,0,0.5,0,0.9,0c0.4,0,0.7,0,0.9,0C312.1,109.6,312.1,109.6,312,109.4
					C312.1,109.4,312.1,109.4,312,109.4z"/>
				<path class="st27" d="M324.6,109.4c-0.4,0-0.7,0-0.9-0.1c-0.2-0.1-0.3-0.1-0.4-0.3c-0.1-0.1-0.1-0.4-0.1-0.7v-7.1
					c0-0.3,0-0.5,0.1-0.7c0.1-0.1,0.2-0.2,0.4-0.3c0.2-0.1,0.5-0.1,0.9-0.1c0,0,0,0,0-0.1s0-0.1,0-0.1l-0.7,0c-0.4,0-0.8,0-1.1,0
					c-0.3,0-0.7,0-1.1,0l-0.7,0c0,0,0,0,0,0.1s0,0.1,0,0.1c0.4,0,0.7,0,0.9,0.1c0.2,0.1,0.3,0.2,0.4,0.3c0.1,0.1,0.1,0.4,0.1,0.7
					v3.1h-5.9v-3.1c0-0.3,0-0.5,0.1-0.7c0.1-0.1,0.2-0.3,0.4-0.3c0.2-0.1,0.5-0.1,0.9-0.1c0,0,0,0,0-0.1s0-0.1,0-0.1l-0.7,0
					c-0.4,0-0.8,0-1.1,0c-0.3,0-0.6,0-1,0l-0.8,0c0,0,0,0,0,0.1s0,0.1,0,0.1c0.4,0,0.7,0,0.9,0.1c0.2,0.1,0.3,0.2,0.4,0.3
					c0.1,0.1,0.1,0.4,0.1,0.7v7.1c0,0.3,0,0.5-0.1,0.7c-0.1,0.1-0.2,0.2-0.4,0.3c-0.2,0.1-0.5,0.1-0.9,0.1c0,0,0,0,0,0.1
					s0,0.1,0,0.1c0.3,0,0.6,0,0.8,0l1.1,0l1.1,0c0.2,0,0.4,0,0.7,0c0,0,0,0,0-0.1s0-0.1,0-0.1c-0.4,0-0.7,0-0.9-0.1
					c-0.2-0.1-0.3-0.1-0.4-0.3c-0.1-0.1-0.1-0.4-0.1-0.7v-3.6h5.9v3.6c0,0.3,0,0.5-0.1,0.7c-0.1,0.1-0.2,0.2-0.4,0.3
					c-0.2,0.1-0.5,0.1-0.9,0.1c0,0,0,0,0,0.1s0,0.1,0,0.1c0.3,0,0.5,0,0.7,0l1.1,0l1.1,0c0.2,0,0.4,0,0.7,0
					C324.7,109.6,324.7,109.6,324.6,109.4C324.7,109.4,324.7,109.4,324.6,109.4z"/>
				<path class="st27" d="M339.1,109.4c-0.4,0-0.7,0-0.8-0.1c-0.2-0.1-0.3-0.1-0.4-0.3c-0.1-0.1-0.1-0.4-0.1-0.7l-0.3-7.1
					c0-0.4,0.1-0.7,0.3-0.8c0.2-0.1,0.6-0.2,1.1-0.2c0,0,0,0,0-0.1s0-0.1,0-0.1c-0.2,0-0.4,0-0.5,0l-0.7,0c-0.2,0-0.3,0-0.4,0
					c-0.1,0-0.2,0-0.2,0c-0.2,0-0.3,0.1-0.5,0.4l-3.3,7.6l-3.4-7.2c-0.2-0.3-0.3-0.6-0.4-0.6c-0.1-0.1-0.2-0.1-0.3-0.1
					c-0.1,0-0.2,0-0.3,0c-0.1,0-0.3,0-0.5,0c-0.2,0-0.3,0-0.4,0l-0.6,0c0,0,0,0,0,0.1s0,0.1,0,0.1c0.5,0,0.9,0.2,1.3,0.6l-0.1,7.1
					c0,0.5-0.1,0.9-0.3,1.1c-0.2,0.2-0.5,0.3-0.9,0.3c0,0,0,0,0,0.1s0,0.1,0,0.1c0.3,0,0.5,0,0.6,0l0.8,0l0.8,0c0.2,0,0.4,0,0.7,0
					c0,0,0,0,0-0.1s0-0.1,0-0.1c-0.5,0-0.8-0.1-1-0.3c-0.2-0.2-0.3-0.6-0.3-1.1l0.1-6.4l3.8,8c0,0,0.1,0.1,0.1,0.1
					c0.1,0,0.1,0,0.1-0.1l3.5-8.1l0.3,6.9c0,0.3,0,0.5-0.1,0.7c-0.1,0.1-0.2,0.2-0.3,0.3c-0.2,0.1-0.4,0.1-0.8,0.1c0,0,0,0,0,0.1
					s0,0.1,0,0.1c0.3,0,0.5,0,0.7,0l1,0l1.1,0c0.2,0,0.4,0,0.7,0C339.2,109.6,339.2,109.6,339.1,109.4
					C339.2,109.4,339.2,109.4,339.1,109.4z"/>
				<path class="st27" d="M345.9,101.3l1.8,3.8h-3.4L345.9,101.3z M351.7,109.4c-0.3,0-0.6-0.1-0.9-0.4c-0.2-0.3-0.5-0.8-0.9-1.5
					l-3.6-7.6c0,0,0,0-0.1,0s-0.1,0-0.1,0l-3.2,7.6c-0.2,0.5-0.4,0.9-0.6,1.2c-0.2,0.3-0.4,0.5-0.6,0.6c-0.2,0.1-0.4,0.2-0.7,0.2
					c-0.1,0-0.1,0-0.1,0.1s0,0.1,0.1,0.1c0.2,0,0.5,0,0.8,0c0.3,0,0.7,0,0.9,0c0.3,0,0.6,0,1,0c0.3,0,0.6,0,0.8,0
					c0.1,0,0.1,0,0.1-0.1s0-0.1-0.1-0.1c-0.5,0-0.9-0.1-1.1-0.2c-0.2-0.1-0.4-0.4-0.4-0.7c0-0.2,0.1-0.5,0.2-0.8l1-2.3h3.6l1.4,2.9
					c0.1,0.3,0.2,0.5,0.2,0.7c0,0.2-0.1,0.3-0.3,0.4c-0.2,0.1-0.4,0.1-0.8,0.1c0,0-0.1,0-0.1,0.1s0,0.1,0.1,0.1c0.2,0,0.4,0,0.7,0
					c0.3,0,0.6,0,0.9,0c0.2,0,0.5,0,0.9,0c0.4,0,0.7,0,0.9,0C351.7,109.6,351.8,109.6,351.7,109.4
					C351.8,109.4,351.7,109.4,351.7,109.4z"/>
				<path class="st27" d="M357.8,109.4c-0.4,0-0.8,0-1-0.1c-0.2-0.1-0.4-0.2-0.5-0.4c-0.1-0.2-0.1-0.4-0.1-0.7v-6.9
					c0-0.3,0.1-0.5,0.2-0.7c0.1-0.2,0.3-0.3,0.5-0.3c0.2-0.1,0.6-0.1,1-0.1c0.8,0,1.5,0.2,2.2,0.6c0.6,0.4,1.1,1,1.4,1.7
					c0.3,0.7,0.5,1.5,0.5,2.4c0,0.9-0.2,1.7-0.5,2.4c-0.4,0.7-0.8,1.2-1.5,1.5C359.3,109.3,358.6,109.4,357.8,109.4z M357.9,109.7
					c0.9,0,1.8-0.2,2.6-0.6c0.8-0.4,1.4-1,1.9-1.8c0.5-0.8,0.7-1.6,0.7-2.6c0-0.9-0.2-1.7-0.7-2.4c-0.4-0.7-1.1-1.3-1.9-1.7
					c-0.8-0.4-1.8-0.6-2.8-0.6c-0.2,0-0.5,0-0.9,0c-0.4,0-0.8,0-1.1,0c-0.3,0-0.6,0-1,0l-0.8,0c0,0,0,0,0,0.1c0,0.1,0,0.1,0,0.1
					c0.4,0,0.7,0,0.8,0.1c0.2,0.1,0.3,0.2,0.4,0.3c0.1,0.1,0.1,0.4,0.1,0.7v7.1c0,0.3,0,0.5-0.1,0.7c-0.1,0.1-0.2,0.2-0.4,0.3
					c-0.2,0.1-0.5,0.1-0.8,0.1c0,0,0,0,0,0.1c0,0.1,0,0.1,0,0.1c0.3,0,0.6,0,0.8,0l1,0c0.3,0,0.5,0,0.7,0c0.2,0,0.4,0,0.5,0
					C357.3,109.6,357.6,109.7,357.9,109.7z"/>
				<path class="st27" d="M375.2,101.3l1.8,3.8h-3.4L375.2,101.3z M381,109.4c-0.3,0-0.6-0.1-0.9-0.4c-0.2-0.3-0.5-0.8-0.9-1.5
					l-3.6-7.6c0,0,0,0-0.1,0c-0.1,0-0.1,0-0.1,0l-3.2,7.6c-0.2,0.5-0.4,0.9-0.6,1.2c-0.2,0.3-0.4,0.5-0.6,0.6
					c-0.2,0.1-0.4,0.2-0.7,0.2c-0.1,0-0.1,0-0.1,0.1s0,0.1,0.1,0.1c0.2,0,0.5,0,0.8,0c0.3,0,0.7,0,0.9,0c0.3,0,0.6,0,1,0
					c0.3,0,0.6,0,0.8,0c0.1,0,0.1,0,0.1-0.1s0-0.1-0.1-0.1c-0.5,0-0.9-0.1-1.1-0.2c-0.2-0.1-0.4-0.4-0.4-0.7c0-0.2,0.1-0.5,0.2-0.8
					l1-2.3h3.6l1.4,2.9c0.1,0.3,0.2,0.5,0.2,0.7c0,0.2-0.1,0.3-0.3,0.4c-0.2,0.1-0.4,0.1-0.8,0.1c0,0-0.1,0-0.1,0.1s0,0.1,0.1,0.1
					c0.2,0,0.4,0,0.7,0c0.3,0,0.6,0,0.9,0c0.2,0,0.5,0,0.9,0c0.4,0,0.7,0,0.9,0C381,109.6,381,109.6,381,109.4
					C381,109.4,381,109.4,381,109.4z"/>
				<path class="st27" d="M393.6,109.4c-0.4,0-0.7,0-0.9-0.1c-0.2-0.1-0.3-0.1-0.4-0.3c-0.1-0.1-0.1-0.4-0.1-0.7v-7.1
					c0-0.3,0-0.5,0.1-0.7c0.1-0.1,0.2-0.2,0.4-0.3c0.2-0.1,0.5-0.1,0.9-0.1c0,0,0,0,0-0.1s0-0.1,0-0.1l-0.7,0c-0.4,0-0.8,0-1.1,0
					c-0.3,0-0.7,0-1.1,0l-0.7,0c0,0,0,0,0,0.1s0,0.1,0,0.1c0.4,0,0.7,0,0.9,0.1c0.2,0.1,0.3,0.2,0.4,0.3c0.1,0.1,0.1,0.4,0.1,0.7
					v3.1h-5.9v-3.1c0-0.3,0-0.5,0.1-0.7c0.1-0.1,0.2-0.3,0.4-0.3c0.2-0.1,0.5-0.1,0.9-0.1c0,0,0,0,0-0.1s0-0.1,0-0.1l-0.7,0
					c-0.4,0-0.8,0-1.1,0c-0.3,0-0.6,0-1,0l-0.8,0c0,0,0,0,0,0.1s0,0.1,0,0.1c0.4,0,0.7,0,0.9,0.1c0.2,0.1,0.3,0.2,0.4,0.3
					c0.1,0.1,0.1,0.4,0.1,0.7v7.1c0,0.3,0,0.5-0.1,0.7c-0.1,0.1-0.2,0.2-0.4,0.3c-0.2,0.1-0.5,0.1-0.9,0.1c0,0,0,0,0,0.1
					s0,0.1,0,0.1c0.3,0,0.6,0,0.8,0l1.1,0l1.1,0c0.2,0,0.4,0,0.7,0c0,0,0,0,0-0.1s0-0.1,0-0.1c-0.4,0-0.7,0-0.9-0.1
					c-0.2-0.1-0.3-0.1-0.4-0.3c-0.1-0.1-0.1-0.4-0.1-0.7v-3.6h5.9v3.6c0,0.3,0,0.5-0.1,0.7c-0.1,0.1-0.2,0.2-0.4,0.3
					c-0.2,0.1-0.5,0.1-0.9,0.1c0,0,0,0,0,0.1s0,0.1,0,0.1c0.3,0,0.5,0,0.7,0l1.1,0l1.1,0c0.2,0,0.4,0,0.7,0
					C393.6,109.6,393.6,109.6,393.6,109.4C393.6,109.4,393.6,109.4,393.6,109.4z"/>
				<path class="st27" d="M408.1,109.4c-0.4,0-0.7,0-0.8-0.1c-0.2-0.1-0.3-0.1-0.4-0.3c-0.1-0.1-0.1-0.4-0.1-0.7l-0.3-7.1
					c0-0.4,0.1-0.7,0.3-0.8c0.2-0.1,0.6-0.2,1.1-0.2c0,0,0,0,0-0.1s0-0.1,0-0.1c-0.2,0-0.4,0-0.5,0l-0.7,0c-0.2,0-0.3,0-0.4,0
					c-0.1,0-0.2,0-0.2,0c-0.2,0-0.3,0.1-0.5,0.4l-3.3,7.6l-3.4-7.2c-0.2-0.3-0.3-0.6-0.4-0.6c-0.1-0.1-0.2-0.1-0.3-0.1
					c-0.1,0-0.2,0-0.3,0c-0.1,0-0.3,0-0.5,0c-0.2,0-0.3,0-0.4,0l-0.6,0c0,0,0,0,0,0.1s0,0.1,0,0.1c0.5,0,0.9,0.2,1.3,0.6l-0.1,7.1
					c0,0.5-0.1,0.9-0.3,1.1c-0.2,0.2-0.5,0.3-0.9,0.3c0,0,0,0,0,0.1s0,0.1,0,0.1c0.3,0,0.5,0,0.6,0l0.8,0l0.8,0c0.2,0,0.4,0,0.7,0
					c0,0,0,0,0-0.1s0-0.1,0-0.1c-0.5,0-0.8-0.1-1-0.3c-0.2-0.2-0.3-0.6-0.3-1.1l0.1-6.4l3.8,8c0,0,0.1,0.1,0.1,0.1
					c0.1,0,0.1,0,0.1-0.1l3.5-8.1l0.3,6.9c0,0.3,0,0.5-0.1,0.7c-0.1,0.1-0.2,0.2-0.3,0.3c-0.2,0.1-0.4,0.1-0.8,0.1c0,0,0,0,0,0.1
					s0,0.1,0,0.1c0.3,0,0.5,0,0.7,0l1,0l1.1,0c0.2,0,0.4,0,0.7,0C408.1,109.6,408.1,109.6,408.1,109.4
					C408.1,109.4,408.1,109.4,408.1,109.4z"/>
				<path class="st27" d="M414.9,101.3l1.8,3.8h-3.4L414.9,101.3z M420.6,109.4c-0.3,0-0.6-0.1-0.9-0.4c-0.2-0.3-0.5-0.8-0.9-1.5
					l-3.6-7.6c0,0,0,0-0.1,0c-0.1,0-0.1,0-0.1,0l-3.2,7.6c-0.2,0.5-0.4,0.9-0.6,1.2c-0.2,0.3-0.4,0.5-0.6,0.6
					c-0.2,0.1-0.4,0.2-0.7,0.2c-0.1,0-0.1,0-0.1,0.1s0,0.1,0.1,0.1c0.2,0,0.5,0,0.8,0c0.3,0,0.7,0,0.9,0c0.3,0,0.6,0,1,0
					c0.3,0,0.6,0,0.8,0c0.1,0,0.1,0,0.1-0.1s0-0.1-0.1-0.1c-0.5,0-0.9-0.1-1.1-0.2c-0.2-0.1-0.4-0.4-0.4-0.7c0-0.2,0.1-0.5,0.2-0.8
					l1-2.3h3.6l1.4,2.9c0.1,0.3,0.2,0.5,0.2,0.7c0,0.2-0.1,0.3-0.3,0.4c-0.2,0.1-0.4,0.1-0.8,0.1c0,0-0.1,0-0.1,0.1s0,0.1,0.1,0.1
					c0.2,0,0.4,0,0.7,0c0.3,0,0.6,0,0.9,0c0.2,0,0.5,0,0.9,0c0.4,0,0.7,0,0.9,0C420.7,109.6,420.7,109.6,420.6,109.4
					C420.7,109.4,420.7,109.4,420.6,109.4z"/>
				<path class="st27" d="M426.7,109.4c-0.4,0-0.8,0-1-0.1c-0.2-0.1-0.4-0.2-0.5-0.4c-0.1-0.2-0.1-0.4-0.1-0.7v-6.9
					c0-0.3,0.1-0.5,0.2-0.7c0.1-0.2,0.3-0.3,0.5-0.3c0.2-0.1,0.6-0.1,1-0.1c0.8,0,1.5,0.2,2.2,0.6c0.6,0.4,1.1,1,1.4,1.7
					c0.3,0.7,0.5,1.5,0.5,2.4c0,0.9-0.2,1.7-0.5,2.4c-0.4,0.7-0.8,1.2-1.5,1.5C428.2,109.3,427.5,109.4,426.7,109.4z M426.8,109.7
					c0.9,0,1.8-0.2,2.6-0.6c0.8-0.4,1.4-1,1.9-1.8c0.5-0.8,0.7-1.6,0.7-2.6c0-0.9-0.2-1.7-0.7-2.4c-0.4-0.7-1.1-1.3-1.9-1.7
					c-0.8-0.4-1.8-0.6-2.8-0.6c-0.2,0-0.5,0-0.9,0c-0.4,0-0.8,0-1.1,0c-0.3,0-0.6,0-1,0l-0.8,0c0,0,0,0,0,0.1c0,0.1,0,0.1,0,0.1
					c0.4,0,0.7,0,0.8,0.1c0.2,0.1,0.3,0.2,0.4,0.3c0.1,0.1,0.1,0.4,0.1,0.7v7.1c0,0.3,0,0.5-0.1,0.7c-0.1,0.1-0.2,0.2-0.4,0.3
					c-0.2,0.1-0.5,0.1-0.8,0.1c0,0,0,0,0,0.1c0,0.1,0,0.1,0,0.1c0.3,0,0.6,0,0.8,0l1,0c0.3,0,0.5,0,0.7,0c0.2,0,0.4,0,0.5,0
					C426.2,109.6,426.6,109.7,426.8,109.7z"/>
			</g>
			<g class="st2">
				<text transform="matrix(1 0 0 1 182.5495 82.5286)"><tspan x="0" y="0" class="st15 st16 st28 st24">M</tspan><tspan x="13.7" y="0" class="st15 st16 st28 st24">a</tspan><tspan x="21.3" y="0" class="st15 st16 st28 st24">nuscri</tspan><tspan x="65.2" y="0" class="st15 st16 st28 st24">p</tspan><tspan x="74.1" y="0" class="st15 st16 st28 st24">t</tspan><tspan x="80.5" y="0" class="st15 st16 st28 st24"> No.</tspan><tspan x="110.4" y="0" class="st15 st16 st28 st24"> </tspan><tspan x="115.3" y="0" class="st15 st16 st28">1</tspan></text>
			</g>
			<g class="st2">
				<defs>
					<rect id="SVGID_52_" y="0" width="488.7" height="782"/>
				</defs>
				<clipPath id="SVGID_53_">
					<use xlink:href="#SVGID_52_"  style="overflow:visible;"/>
				</clipPath>
				<path class="st29" d="M194.5,82.4c-0.4,0-0.6,0-0.8-0.1c-0.2,0-0.3-0.1-0.3-0.3c-0.1-0.1-0.1-0.4-0.1-0.7l-0.3-6.8
					c0-0.4,0.1-0.7,0.3-0.8c0.2-0.1,0.6-0.2,1-0.2c0,0,0,0,0-0.1c0-0.1,0-0.1,0-0.1c-0.2,0-0.4,0-0.5,0l-0.7,0c-0.2,0-0.3,0-0.4,0
					c-0.1,0-0.2,0-0.2,0c-0.2,0-0.3,0.1-0.4,0.4l-3.2,7.3l-3.3-6.9c-0.2-0.3-0.3-0.5-0.4-0.6c-0.1-0.1-0.2-0.1-0.3-0.1
					c-0.1,0-0.2,0-0.3,0c-0.1,0-0.3,0-0.4,0c-0.2,0-0.3,0-0.4,0l-0.5,0c0,0,0,0,0,0.1c0,0.1,0,0.1,0,0.1c0.5,0,0.9,0.2,1.2,0.6
					l-0.1,6.8c0,0.5-0.1,0.9-0.3,1.1c-0.2,0.2-0.5,0.3-0.9,0.3c0,0,0,0,0,0.1c0,0.1,0,0.1,0,0.1c0.3,0,0.4,0,0.6,0l0.8,0l0.8,0
					c0.1,0,0.4,0,0.6,0c0,0,0,0,0-0.1c0-0.1,0-0.1,0-0.1c-0.5,0-0.8-0.1-1-0.3c-0.2-0.2-0.3-0.6-0.3-1.1l0.1-6.2l3.6,7.7
					c0,0,0.1,0.1,0.1,0.1c0.1,0,0.1,0,0.1-0.1l3.3-7.8l0.3,6.7c0,0.3,0,0.5-0.1,0.6c-0.1,0.1-0.2,0.2-0.3,0.3
					c-0.2,0.1-0.4,0.1-0.7,0.1c0,0,0,0,0,0.1c0,0.1,0,0.1,0,0.1c0.3,0,0.5,0,0.7,0l0.9,0l1,0c0.2,0,0.4,0,0.7,0
					C194.5,82.5,194.5,82.5,194.5,82.4C194.5,82.4,194.5,82.4,194.5,82.4z"/>
				<path class="st29" d="M199.6,81.9c-0.3,0.2-0.5,0.2-0.7,0.2c-0.2,0-0.4-0.1-0.6-0.2c-0.2-0.2-0.2-0.4-0.2-0.6
					c0-0.2,0.1-0.4,0.2-0.5c0.1-0.1,0.3-0.3,0.6-0.4l1.4-0.5v1.6v0.1L199.6,81.9z M202.3,81.7c-0.3,0.1-0.5,0.2-0.7,0.2
					c-0.2,0-0.4-0.1-0.4-0.2c-0.1-0.2-0.1-0.4-0.1-0.7v-2.7c0-0.5-0.1-0.8-0.3-1.1c-0.2-0.3-0.5-0.4-0.9-0.4c-0.3,0-0.7,0.1-1.1,0.2
					c-0.4,0.2-0.8,0.4-1.1,0.6c-0.3,0.2-0.5,0.5-0.5,0.7c0,0.1,0,0.2,0.1,0.3c0.1,0.1,0.2,0.1,0.4,0.1c0.2,0,0.3-0.1,0.4-0.2
					c0.1-0.1,0.1-0.3,0.2-0.4c0.1-0.3,0.2-0.5,0.3-0.8c0.2-0.2,0.4-0.3,0.8-0.3c0.6,0,0.9,0.5,0.9,1.6v1l-1.6,0.6
					c-0.5,0.2-0.9,0.4-1.2,0.6c-0.2,0.2-0.4,0.5-0.4,0.8c0,0.3,0.1,0.5,0.3,0.7c0.2,0.2,0.5,0.3,0.8,0.3c0.2,0,0.4,0,0.6-0.1
					c0.2-0.1,0.4-0.2,0.6-0.3l0.8-0.5c0,0.3,0.1,0.5,0.2,0.7c0.1,0.2,0.2,0.3,0.3,0.3c0,0,0.1,0,0.1,0l1.5-0.7c0,0,0.1-0.1,0-0.1
					C202.4,81.8,202.4,81.7,202.3,81.7L202.3,81.7z"/>
				<path class="st29" d="M211.1,82.4c-0.3,0-0.5,0-0.6-0.1c-0.1-0.1-0.2-0.1-0.3-0.3c0-0.1-0.1-0.4-0.1-0.6v-2.9
					c0-0.6-0.1-1-0.4-1.3c-0.3-0.3-0.7-0.5-1.3-0.5c-0.4,0-0.8,0.1-1.1,0.3c-0.4,0.2-0.7,0.5-1.1,1c0-0.4,0-0.6-0.1-0.9
					c-0.1-0.2-0.2-0.3-0.3-0.3l-0.1,0l-1.7,0.8c0,0-0.1,0.1,0,0.1c0,0,0,0.1,0.1,0.1h0c0.4-0.1,0.6-0.2,0.8-0.2
					c0.2,0,0.3,0.1,0.4,0.2c0.1,0.1,0.1,0.4,0.1,0.7v2.9c0,0.3,0,0.5-0.1,0.6c0,0.1-0.1,0.2-0.3,0.3c-0.1,0.1-0.3,0.1-0.6,0.1
					c0,0,0,0,0,0.1c0,0.1,0,0.1,0,0.1c0.2,0,0.4,0,0.5,0l0.8,0l0.8,0c0.1,0,0.3,0,0.5,0c0,0,0,0,0-0.1c0-0.1,0-0.1,0-0.1
					c-0.3,0-0.5,0-0.6-0.1c-0.1-0.1-0.2-0.1-0.3-0.3c0-0.1-0.1-0.4-0.1-0.6v-3.2c0.3-0.3,0.5-0.5,0.8-0.7c0.3-0.2,0.6-0.2,0.9-0.2
					c0.5,0,0.8,0.1,1,0.4c0.2,0.3,0.3,0.7,0.3,1.3v2.4c0,0.3,0,0.5-0.1,0.6c0,0.1-0.1,0.2-0.3,0.3c-0.1,0.1-0.3,0.1-0.6,0.1
					c0,0,0,0,0,0.1c0,0.1,0,0.1,0,0.1c0.2,0,0.4,0,0.5,0l0.8,0l0.8,0c0.1,0,0.3,0,0.5,0C211.2,82.5,211.2,82.5,211.1,82.4
					C211.2,82.4,211.2,82.4,211.1,82.4z"/>
				<path class="st29" d="M220,81.7c-0.4,0.1-0.6,0.2-0.8,0.2c-0.2,0-0.3-0.1-0.4-0.2c-0.1-0.1-0.1-0.4-0.1-0.7v-4.1
					c0,0,0-0.1-0.1-0.1c0,0-0.1,0-0.1,0l0,0l-1.6,0.7c0,0-0.1,0,0,0.1c0,0.1,0,0.1,0.1,0.1h0c0.2-0.1,0.4-0.1,0.5-0.1
					c0.2,0,0.3,0.1,0.3,0.2c0.1,0.2,0.1,0.4,0.1,0.8v2.6c-0.3,0.3-0.6,0.5-0.9,0.7c-0.3,0.2-0.6,0.2-1,0.2c-0.8,0-1.2-0.6-1.2-1.7
					v-3.5c0,0,0-0.1-0.1-0.1c0,0-0.1,0-0.1,0l-0.1,0l-1.6,0.7c0,0,0,0,0,0.1c0,0.1,0,0.1,0.1,0.1h0c0.2-0.1,0.4-0.1,0.5-0.1
					c0.2,0,0.3,0.1,0.3,0.3c0.1,0.2,0.1,0.4,0.1,0.8v2.2c0,0.6,0.1,1,0.4,1.3c0.3,0.3,0.7,0.5,1.1,0.5c0.4,0,0.8-0.1,1.2-0.3
					c0.4-0.2,0.8-0.5,1.1-0.9v0.1c0,0.4,0,0.7,0.1,0.9c0.1,0.2,0.2,0.3,0.3,0.3l0.1,0l1.7-0.8c0,0,0.1-0.1,0-0.1
					C220.1,81.7,220.1,81.7,220,81.7L220,81.7z"/>
				<path class="st29" d="M223.1,77.8c0-0.3,0.1-0.5,0.2-0.6c0.1-0.1,0.3-0.2,0.6-0.2c0.2,0,0.5,0.1,0.7,0.2
					c0.2,0.1,0.4,0.3,0.6,0.4c0.2,0.2,0.2,0.4,0.2,0.6c0,0,0,0,0.1,0c0.1,0,0.1,0,0.1,0l0-0.6c0-0.1,0-0.3,0-0.5c0,0,0-0.1,0-0.1
					c0,0-0.1,0-0.1-0.1c-0.3-0.1-0.7-0.2-1.1-0.2c-0.5,0-1,0.1-1.4,0.4c-0.4,0.3-0.6,0.7-0.6,1.2c0,0.3,0.1,0.6,0.2,0.8
					c0.1,0.2,0.3,0.4,0.5,0.5c0.2,0.1,0.4,0.3,0.8,0.4c0.4,0.2,0.8,0.4,1,0.6c0.2,0.2,0.3,0.5,0.3,0.9c0,0.3-0.1,0.5-0.2,0.7
					c-0.2,0.2-0.4,0.2-0.7,0.2c-0.4,0-0.7-0.1-1-0.4c-0.3-0.3-0.5-0.6-0.7-1.1c0,0,0,0-0.1,0c-0.1,0-0.1,0-0.1,0.1l0,1.1
					c0,0.1,0,0.1,0.1,0.2c0.4,0.3,0.9,0.4,1.4,0.4c0.6,0,1.1-0.2,1.5-0.5c0.4-0.3,0.6-0.8,0.6-1.3c0-0.3-0.1-0.5-0.2-0.7
					c-0.1-0.2-0.3-0.4-0.5-0.5c-0.2-0.1-0.5-0.3-0.8-0.5c-0.4-0.2-0.8-0.4-1-0.6C223.2,78.4,223.1,78.1,223.1,77.8z"/>
				<path class="st29" d="M231.4,82.7c0.4,0,0.8-0.1,1.1-0.2c0.3-0.1,0.7-0.4,1-0.7c0,0,0,0,0-0.1c0,0-0.1,0-0.1,0h0
					c-0.4,0.3-0.9,0.5-1.5,0.5c-0.8,0-1.4-0.3-1.8-0.8c-0.4-0.5-0.6-1.2-0.6-2c0-0.7,0.2-1.3,0.5-1.7c0.3-0.4,0.7-0.6,1.3-0.6
					c0.3,0,0.5,0,0.6,0.1c0.1,0.1,0.3,0.2,0.4,0.4c0.2,0.3,0.4,0.5,0.6,0.5c0.2,0,0.3,0,0.4-0.1c0.1-0.1,0.1-0.2,0.1-0.3
					c0-0.3-0.2-0.5-0.5-0.6c-0.4-0.2-0.8-0.3-1.2-0.3c-0.5,0-1,0.1-1.5,0.4c-0.5,0.2-0.9,0.6-1.2,1.1c-0.3,0.5-0.5,1-0.5,1.6
					c0,0.5,0.1,1,0.3,1.4c0.2,0.4,0.5,0.8,1,1.1C230.3,82.6,230.8,82.7,231.4,82.7z"/>
				<path class="st29" d="M239.6,76.7c-0.2,0-0.4,0.1-0.7,0.3c-0.2,0.2-0.6,0.5-1,1v0c0-0.4,0-0.6-0.1-0.9c-0.1-0.2-0.2-0.3-0.3-0.3
					l-0.1,0l-1.7,0.8c0,0-0.1,0.1,0,0.1c0,0,0,0.1,0.1,0.1h0c0.4-0.1,0.6-0.2,0.8-0.2c0.2,0,0.3,0.1,0.4,0.2
					c0.1,0.1,0.1,0.4,0.1,0.7v2.9c0,0.3,0,0.5-0.1,0.6s-0.1,0.2-0.3,0.3c-0.1,0.1-0.3,0.1-0.6,0.1c0,0,0,0,0,0.1s0,0.1,0,0.1
					c0.2,0,0.4,0,0.5,0l0.8,0l1.1,0c0.2,0,0.4,0,0.7,0c0,0,0.1,0,0.1-0.1s0-0.1-0.1-0.1c-0.4,0-0.7,0-0.9-0.1
					c-0.2-0.1-0.3-0.1-0.4-0.3c-0.1-0.1-0.1-0.4-0.1-0.6v-3.1c0.3-0.4,0.5-0.6,0.7-0.7c0.1-0.1,0.3-0.2,0.4-0.2c0.1,0,0.2,0,0.3,0.1
					c0.1,0,0.2,0.1,0.2,0.2c0.1,0.1,0.2,0.1,0.2,0.2c0.1,0,0.1,0.1,0.2,0.1c0.2,0,0.3,0,0.4-0.1c0.1-0.1,0.1-0.2,0.1-0.3
					c0-0.2-0.1-0.3-0.3-0.4C240,76.8,239.8,76.7,239.6,76.7z"/>
				<path class="st29" d="M243.1,82.5c0.2,0,0.4,0,0.6,0l0.8,0l0.8,0c0.1,0,0.3,0,0.5,0c0,0,0,0,0-0.1c0-0.1,0-0.1,0-0.1
					c-0.3,0-0.5,0-0.6-0.1c-0.1-0.1-0.2-0.1-0.3-0.3c0-0.1-0.1-0.4-0.1-0.6v-2.8c0-0.4,0-0.8,0-1.1c0-0.3,0-0.5,0-0.6
					c0,0,0-0.1,0-0.1c0,0-0.1,0-0.1,0l-0.1,0l-1.9,0.9c0,0,0,0.1,0,0.1c0,0,0,0.1,0.1,0.1h0c0.3-0.1,0.5-0.2,0.7-0.2
					c0.2,0,0.3,0.1,0.4,0.2c0.1,0.2,0.1,0.4,0.1,0.8v2.7c0,0.3,0,0.5-0.1,0.6c0,0.1-0.1,0.2-0.3,0.3c-0.1,0.1-0.3,0.1-0.6,0.1
					C243.1,82.4,243.1,82.4,243.1,82.5C243.1,82.5,243.1,82.5,243.1,82.5z M244.3,75c0.2,0,0.3-0.1,0.5-0.2c0.1-0.1,0.2-0.3,0.2-0.5
					c0-0.2-0.1-0.3-0.2-0.5c-0.1-0.1-0.3-0.2-0.5-0.2c-0.2,0-0.4,0.1-0.5,0.2c-0.1,0.1-0.2,0.3-0.2,0.5c0,0.2,0.1,0.3,0.2,0.5
					C244,75,244.1,75,244.3,75z"/>
				<path class="st29" d="M252,82.4c-0.4,0-0.8-0.1-1.1-0.2c-0.3-0.2-0.6-0.4-0.9-0.7v-3.3c0.3-0.3,0.6-0.5,0.9-0.7
					c0.3-0.2,0.6-0.2,1-0.2c0.6,0,1,0.2,1.4,0.7c0.4,0.5,0.5,1.1,0.5,1.9c0,0.8-0.2,1.4-0.5,1.9C253,82.2,252.5,82.4,252,82.4z
					 M252.5,76.7c-0.8,0-1.6,0.4-2.5,1.3c0-0.4-0.1-0.7-0.1-0.9c-0.1-0.2-0.2-0.3-0.3-0.3c0,0-0.1,0-0.1,0l-1.6,0.8c0,0,0,0.1,0,0.1
					c0,0,0,0.1,0.1,0.1l0,0c0.3-0.1,0.6-0.2,0.8-0.2c0.2,0,0.3,0.1,0.4,0.2c0.1,0.2,0.1,0.4,0.1,0.8v6.9c0,0.3,0,0.5-0.1,0.6
					c0,0.1-0.1,0.2-0.3,0.3c-0.1,0.1-0.3,0.1-0.6,0.1c0,0,0,0,0,0.1c0,0.1,0,0.1,0,0.1c0.2,0,0.4,0,0.5,0l0.8,0l1.1,0
					c0.2,0,0.5,0,0.8,0c0,0,0,0,0-0.1c0-0.1,0-0.1,0-0.1c-0.4,0-0.7,0-0.9-0.1c-0.2-0.1-0.3-0.1-0.4-0.3c-0.1-0.1-0.1-0.4-0.1-0.6
					v-3c0.3,0.1,0.5,0.2,0.7,0.3c0.2,0.1,0.5,0.1,0.8,0.1c0.5,0,0.9-0.1,1.4-0.4c0.5-0.2,0.9-0.6,1.2-1.1c0.3-0.5,0.5-1.1,0.5-1.9
					c0-0.5-0.1-1-0.3-1.4c-0.2-0.4-0.5-0.7-0.8-0.9C253.3,76.8,252.9,76.7,252.5,76.7z"/>
				<path class="st29" d="M261.3,81.8c-0.4,0.3-0.7,0.4-1.2,0.4c-0.4,0-0.7-0.1-0.9-0.3c-0.2-0.2-0.3-0.5-0.3-0.9v-3.7
					c0.8,0,1.4,0.1,2,0.2c0,0,0.1,0,0.1-0.1c0-0.1,0.1-0.2,0.1-0.2c0-0.1,0-0.2,0-0.2c0-0.1,0-0.1-0.1-0.1c-0.9,0.1-1.5,0.1-2,0.1
					v-1.1c0,0,0,0-0.1,0c-0.1,0-0.1,0-0.1,0c0,0.3-0.2,0.6-0.4,0.8c-0.2,0.2-0.6,0.3-1,0.3c0,0-0.1,0-0.1,0.1c0,0.1,0,0.1,0.1,0.1
					c0.2,0,0.4,0,0.5,0.1c0.1,0,0.2,0.1,0.2,0.2c0,0.1,0.1,0.3,0.1,0.5v3.4c0,0.4,0.1,0.7,0.4,0.9c0.3,0.2,0.6,0.3,1,0.3
					c0.3,0,0.6-0.1,0.9-0.2c0.3-0.1,0.6-0.3,1-0.6c0,0,0-0.1,0-0.1C261.4,81.8,261.4,81.8,261.3,81.8L261.3,81.8z"/>
				<path class="st29" d="M278.4,73.4l-0.6,0c-0.3,0-0.6,0-0.7,0c-0.2,0-0.4,0-0.7,0l-0.6,0c0,0,0,0,0,0.1c0,0.1,0,0.1,0,0.1
					c0.4,0,0.7,0.1,0.9,0.3c0.2,0.2,0.3,0.6,0.3,1.1v6.1l-5.6-6.9c-0.1-0.1-0.2-0.3-0.4-0.5c-0.1-0.1-0.1-0.2-0.2-0.2
					c0,0-0.1-0.1-0.2-0.1c-0.1,0-0.2,0-0.3,0c-0.1,0-0.3,0-0.5,0c-0.2,0-0.4,0-0.5,0l-0.5,0c0,0,0,0,0,0.1c0,0.1,0,0.1,0,0.1
					c0.4,0,0.8,0.2,1.2,0.5v6.9c0,0.5-0.1,0.9-0.3,1.1c-0.2,0.2-0.5,0.3-0.9,0.3c0,0,0,0,0,0.1c0,0.1,0,0.1,0,0.1c0.3,0,0.5,0,0.6,0
					l0.7,0l0.7,0c0.1,0,0.3,0,0.6,0c0,0,0,0,0-0.1c0-0.1,0-0.1,0-0.1c-0.4,0-0.7-0.1-0.9-0.3c-0.2-0.2-0.3-0.6-0.3-1.1v-6.5l0.1,0.1
					l6.7,8.2c0,0,0.1,0,0.1,0c0,0,0.1,0,0.1,0V75c0-0.5,0.1-0.9,0.3-1.1c0.2-0.2,0.5-0.3,0.9-0.3C278.4,73.5,278.5,73.5,278.4,73.4
					C278.5,73.4,278.4,73.4,278.4,73.4z"/>
				<path class="st29" d="M284,82.4c-0.4,0-0.8-0.1-1.2-0.4c-0.4-0.3-0.6-0.7-0.8-1.2c-0.2-0.5-0.3-1-0.3-1.6c0-0.7,0.1-1.3,0.4-1.6
					c0.3-0.4,0.7-0.6,1.2-0.6c0.4,0,0.9,0.1,1.2,0.4c0.4,0.3,0.6,0.6,0.8,1.1c0.2,0.5,0.3,1,0.3,1.6c0,0.8-0.1,1.4-0.4,1.8
					C285,82.3,284.6,82.4,284,82.4z M283.6,82.7c0.6,0,1.1-0.1,1.5-0.4c0.5-0.2,0.9-0.6,1.1-1.1c0.3-0.5,0.4-1,0.4-1.6
					c0-0.5-0.1-1-0.3-1.5c-0.2-0.5-0.6-0.8-1-1.1c-0.4-0.3-0.9-0.4-1.5-0.4c-0.5,0-1,0.1-1.5,0.3c-0.5,0.2-0.9,0.6-1.2,1
					c-0.3,0.4-0.5,1-0.5,1.6c0,0.6,0.1,1.1,0.4,1.5c0.2,0.5,0.6,0.9,1,1.1C282.5,82.6,283,82.7,283.6,82.7z"/>
				<path class="st29" d="M290.2,82.7c0.2,0,0.4-0.1,0.5-0.2c0.1-0.1,0.2-0.3,0.2-0.5c0-0.2-0.1-0.3-0.2-0.4
					c-0.1-0.1-0.3-0.2-0.5-0.2c-0.2,0-0.4,0.1-0.5,0.2c-0.1,0.1-0.2,0.3-0.2,0.4c0,0.2,0.1,0.4,0.2,0.5
					C289.8,82.6,290,82.7,290.2,82.7z"/>
				<path class="st29" d="M300,78.1v3.3c0,0.3,0,0.5-0.1,0.6c-0.1,0.1-0.2,0.2-0.4,0.3c-0.2,0.1-0.4,0.1-0.8,0.1c0,0,0,0,0,0.1
					c0,0.1,0,0.1,0,0.1c0.3,0,0.5,0,0.7,0l1,0l1,0c0.2,0,0.4,0,0.7,0c0,0,0,0,0-0.1c0-0.1,0-0.1,0-0.1c-0.4,0-0.7,0-0.8-0.1
					c-0.2,0-0.3-0.1-0.3-0.3c-0.1-0.1-0.1-0.4-0.1-0.7v-3.3c0-0.3,0-0.5,0.1-0.6c0.1-0.1,0.2-0.2,0.4-0.3c0.2-0.1,0.4-0.1,0.8-0.1
					c0,0,0,0,0-0.1c0-0.1,0-0.1,0-0.1c-0.3,0-0.5,0-0.7,0l-1,0l-1,0c-0.2,0-0.4,0-0.7,0c0,0,0,0,0,0.1c0,0.1,0,0.1,0,0.1
					c0.4,0,0.7,0,0.8,0.1c0.2,0,0.3,0.1,0.3,0.3C299.9,77.5,300,77.8,300,78.1z"/>
			</g>
			<g class="st2">
				<defs>
					<path id="SVGID_54_" d="M462.6,27.2l-0.3-0.3v-2.2h1.3v3.5L462.6,27.2z M452,29.3l5.7-5.8l3.9,4l0,0l0.2,0.2l1.7,1.7v8.9h-3.3
						V32c0-0.4-0.3-0.7-0.7-0.7h-3.5c-0.4,0-0.7,0.3-0.7,0.7v6.2H452V29.3z M457.5,22.6l-5,5.1l-1,1l-2,2.1c-0.2,0.2-0.1,0.4,0,0.5
						c0.2,0.2,0.4,0.1,0.6,0l1.3-1.3v8.1c0,0.4,0.3,0.7,0.7,0.7h3.4c0.4,0,0.7-0.3,0.7-0.7v-6.2h3.4v6.2c0,0.4,0.3,0.7,0.7,0.7h3.4
						c0.4,0,0.7-0.3,0.7-0.7v-8.1l1.4,1.4c0.1,0.1,0.2,0.1,0.3,0.1c0.1,0,0.2,0,0.3-0.1c0.2-0.2,0.2-0.4,0-0.5l-2.1-2.1
						c0.1-0.1,0.2-0.3,0.2-0.5v-3.7c0-0.4-0.3-0.7-0.7-0.7h-1.4c-0.4,0-0.7,0.3-0.7,0.7v1.5l-3.2-3.2c0,0,0,0,0,0l-0.2-0.2
						c-0.1-0.1-0.2-0.1-0.3-0.1S457.6,22.6,457.5,22.6"/>
				</defs>
				<clipPath id="SVGID_55_">
					<use xlink:href="#SVGID_54_"  style="overflow:visible;"/>
				</clipPath>
				
					<linearGradient id="SVGID_56_" gradientUnits="userSpaceOnUse" x1="-39.0513" y1="-52.1713" x2="-38.7459" y2="-52.1713" gradientTransform="matrix(44.6132 -44.6132 -44.6132 -44.6132 -134.6682 -4031.8052)">
					<stop  offset="0" style="stop-color:#AD834B"/>
					<stop  offset="1" style="stop-color:#ECCA84"/>
				</linearGradient>
				<polygon class="st30" points="441.1,30.8 457.8,14 474.6,30.8 457.8,47.5 				"/>
			</g>
			<g class="st2">
				<defs>
					<path id="SVGID_57_" d="M29.4,22.5l-7.1,6.9c-0.1,0.1-0.1,0.1-0.1,0.2c0,0.1,0,0.2,0.1,0.2l6.8,6.7c0.1,0.1,0.1,0.1,0.2,0.1
						c0.1,0,0.2,0,0.2-0.1c0.1-0.1,0.1-0.3,0-0.4L23,29.6l6.8-6.7c0.1-0.1,0.1-0.3,0-0.4c-0.1-0.1-0.1-0.1-0.2-0.1
						C29.6,22.4,29.5,22.4,29.4,22.5"/>
				</defs>
				<clipPath id="SVGID_58_">
					<use xlink:href="#SVGID_57_"  style="overflow:visible;"/>
				</clipPath>
				
					<linearGradient id="SVGID_59_" gradientUnits="userSpaceOnUse" x1="-1.4836" y1="-136.601" x2="-1.1782" y2="-136.601" gradientTransform="matrix(25.0463 0 0 -25.0463 59.4574 -3391.8435)">
					<stop  offset="0" style="stop-color:#AD834B"/>
					<stop  offset="1" style="stop-color:#ECCA84"/>
				</linearGradient>
				<rect x="22.3" y="22.4" class="st31" width="7.7" height="14.2"/>
			</g>
			<g class="st2">
				<defs>
					<path id="SVGID_60_" d="M22.6,29.3c-0.2,0-0.3,0.1-0.3,0.3c0,0.2,0.1,0.3,0.3,0.3h15.9c0.2,0,0.3-0.1,0.3-0.3
						c0-0.2-0.1-0.3-0.3-0.3H22.6z"/>
				</defs>
				<clipPath id="SVGID_61_">
					<use xlink:href="#SVGID_60_"  style="overflow:visible;"/>
				</clipPath>
				
					<linearGradient id="SVGID_62_" gradientUnits="userSpaceOnUse" x1="-0.3862" y1="-82.4671" x2="-8.070324e-02" y2="-82.4671" gradientTransform="matrix(54 0 0 -54 43.1509 -4423.6416)">
					<stop  offset="0" style="stop-color:#AD834B"/>
					<stop  offset="1" style="stop-color:#ECCA84"/>
				</linearGradient>
				<rect x="22.3" y="29.3" class="st32" width="16.5" height="0.6"/>
			</g>
			<g class="st2">
				<defs>
					<rect id="SVGID_63_" y="0" width="488.7" height="782"/>
				</defs>
				<clipPath id="SVGID_64_">
					<use xlink:href="#SVGID_63_"  style="overflow:visible;"/>
				</clipPath>
				<line class="st33" x1="54.4" y1="138.5" x2="434.4" y2="138.5"/>
				<line class="st33" x1="54.4" y1="152.2" x2="434.4" y2="152.2"/>
			</g>
		</g>
	</g>
</g>
</svg>
